STARTFONT 2.1
COMMENT
COMMENT Converted from OpenType font "uvn_baisau.ttf" by "otf2bdf 3.0".
COMMENT
FONT -FreeType-UVN Bai Sau-Bold-R-Normal--55-400-100-100-P-272-ISO10646-1
SIZE 40 100 100
FONTBOUNDINGBOX 78 78 -9 -15
STARTPROPERTIES 19
FOUNDRY "FreeType"
FAMILY_NAME "UVN Bai Sau"
WEIGHT_NAME "Bold"
SLANT "R"
SETWIDTH_NAME "Normal"
ADD_STYLE_NAME ""
PIXEL_SIZE 55
POINT_SIZE 400
RESOLUTION_X 100
RESOLUTION_Y 100
SPACING "P"
AVERAGE_WIDTH 272
CHARSET_REGISTRY "ISO10646"
CHARSET_ENCODING "1"
FONT_ASCENT 63
FONT_DESCENT 14
COPYRIGHT "(c) Copyright 2001 by Tom Truong. All Rights Reserved"
_OTF_FONTFILE "uvn_baisau.ttf"
_OTF_PSNAME "UVNBaiSauBold"
ENDPROPERTIES
CHARS 383
STARTCHAR 0020
ENCODING 32
SWIDTH 270 0
DWIDTH 15 0
BBX 0 0 0 0
BITMAP
ENDCHAR
STARTCHAR 0021
ENCODING 33
SWIDTH 324 0
DWIDTH 18 0
BBX 11 40 4 -1
BITMAP
FFC0
FFC0
FFC0
FFC0
FFC0
FFC0
FFC0
FFC0
FFC0
FFC0
FFC0
FFC0
FFC0
FFC0
FFC0
FFC0
FFC0
FFC0
FFC0
FFC0
7FC0
7FC0
7FC0
7FC0
7FC0
7FC0
7FC0
0000
0000
3F00
7F80
FFC0
FFC0
FFE0
FFE0
FFC0
FFC0
7FC0
3F80
0C00
ENDCHAR
STARTCHAR 0022
ENCODING 34
SWIDTH 342 0
DWIDTH 19 0
BBX 15 15 2 24
BITMAP
FC7E
FC7E
FC7E
FC7E
FC7E
FC7E
FC7E
FC7E
FC7E
FC7E
FC7E
FC7E
FC7E
FC7E
FC7E
ENDCHAR
STARTCHAR 0023
ENCODING 35
SWIDTH 756 0
DWIDTH 42 0
BBX 41 40 1 0
BITMAP
00007F01F800
00007F03F800
00007F03F800
0000FE03F000
0000FE07F000
0000FC07F000
0001FC0FE000
0001FC0FE000
0001F80FE000
0003F81FC000
0003F81FC000
03FFFFFFFF80
03FFFFFFFF80
07FFFFFFFF00
07FFFFFFFF00
0FFFFFFFFE00
0FFFFFFFFE00
001FC07E0000
001FC0FE0000
001F80FE0000
003F80FC0000
003F81FC0000
003F01FC0000
3FFFFFFFF800
3FFFFFFFF000
7FFFFFFFF000
7FFFFFFFF000
FFFFFFFFE000
FFFFFFFFE000
FFFFFFFFE000
01FC0FE00000
03F80FC00000
03F81FC00000
03F81FC00000
07F01F800000
07F03F800000
07E03F800000
0FE07F000000
0FE07F000000
0FC07F000000
ENDCHAR
STARTCHAR 0024
ENCODING 36
SWIDTH 558 0
DWIDTH 31 0
BBX 21 44 6 -2
BITMAP
00F800
00F800
00F800
00F800
00F800
07FFE0
1FFFE0
3FFFE0
7FFFE0
7FFFE0
FFFFE0
FFFFE0
FF8000
FF8000
FF8000
FFC000
7FF000
7FF800
3FFC00
3FFF00
1FFF80
07FFC0
03FFE0
01FFF0
00FFF0
003FF8
001FF8
000FF8
000FF8
001FF8
FFFFF8
FFFFF8
FFFFF8
FFFFF0
FFFFE0
FFFFC0
FFFF80
FFFE00
00F800
00F800
00F800
00F800
00F800
00F800
ENDCHAR
STARTCHAR 0025
ENCODING 37
SWIDTH 864 0
DWIDTH 48 0
BBX 45 39 2 0
BITMAP
01F00001F800
07FE0001F000
1FFF0003F000
3FFF8007E000
3FFFC007E000
7FFFE00FC000
7F9FE00F8000
FE07F01F8000
FC03F03F0000
FC03F03E0000
FC03F07E0000
FC03F0FC0000
FE07F0FC0000
FF0FE1F80000
7FFFE1F00000
7FFFC3F00000
3FFFC7E00000
1FFF87C00000
0FFF0FC00000
03FC1F80FC00
00001F87FF00
00003F0FFF80
00003E1FFFC0
00007E3FFFE0
0000FC3FFFF0
0000FC7F8FF0
0001F87F03F0
0003F07E03F8
0003F07E01F8
0007E07E01F8
0007C07E03F8
000FC07F03F0
001F807F87F0
001F803FFFF0
003F003FFFE0
007E001FFFC0
007E000FFF80
00FC0007FF00
00F80001FC00
ENDCHAR
STARTCHAR 0026
ENCODING 38
SWIDTH 756 0
DWIDTH 42 0
BBX 39 40 3 -1
BITMAP
00FFFFE000
03FFFFE000
0FFFFFE000
0FFFFFE000
1FFFFFE000
1FFFFFE000
1FFFFFE000
1FFFFFE000
0FFE000000
07FF000000
07FF800100
03FF800780
07FFC00FC0
0FFFE01FC0
1FFFF07FE0
3FFFF87FE0
3FFFF83FF0
7FFFFC3FF0
7FFFFE1FF0
FFE7FF1FF0
FFC7FF9FF0
FFC3FF9FF0
FFC1FFDFF0
FF80FFFFF0
FF80FFFFF0
FFC07FFFF0
FFC03FFFF0
FFC01FFFE0
FFE00FFFE0
7FF00FFFC0
7FFE1FFFC0
3FFFFFFF80
3FFFFFFFC0
1FFFFFFFE0
0FFFFFFFF0
07FFFFFFF0
03FFFFFFF8
00FFFFFFFC
003FFF1FFE
0001E00000
ENDCHAR
STARTCHAR 0027
ENCODING 39
SWIDTH 180 0
DWIDTH 10 0
BBX 6 15 2 24
BITMAP
FC
FC
FC
FC
FC
FC
FC
FC
FC
FC
FC
FC
FC
FC
FC
ENDCHAR
STARTCHAR 0028
ENCODING 40
SWIDTH 396 0
DWIDTH 22 0
BBX 17 52 4 -12
BITMAP
001800
003C00
007E00
00FF00
01FF00
01FE00
03FC00
07F800
07F800
0FF000
1FE000
1FC000
1FC000
3F8000
3F8000
3F8000
7F0000
7F0000
7F0000
7F0000
FE0000
FE0000
FE0000
FE0000
FE0000
FE0000
FE0000
FE0000
FE0000
FE0000
FF0000
7F0000
7F0000
7F0000
7F8000
7F8000
3F8000
3FC000
1FC000
1FE000
1FE000
0FF000
0FF800
07FC00
03FC00
03FE00
01FF00
00FF80
007F00
003E00
001C00
000800
ENDCHAR
STARTCHAR 0029
ENCODING 41
SWIDTH 396 0
DWIDTH 22 0
BBX 17 52 1 -12
BITMAP
0C0000
1E0000
3F0000
7F8000
FFC000
7FC000
3FE000
1FF000
0FF000
07F800
07F800
03FC00
01FC00
01FE00
00FE00
00FE00
00FF00
007F00
007F00
007F00
007F80
003F80
003F80
003F80
003F80
003F80
003F80
003F80
003F80
003F80
003F80
007F00
007F00
007F00
007F00
00FF00
00FE00
00FE00
01FE00
01FC00
03FC00
07F800
07F800
0FF000
1FE000
3FE000
7FC000
FF8000
7F0000
3E0000
1C0000
080000
ENDCHAR
STARTCHAR 002A
ENCODING 42
SWIDTH 486 0
DWIDTH 27 0
BBX 20 20 4 19
BITMAP
03F800
01F800
31F880
39F180
7CF3C0
7EF7E0
FEEFE0
FFFFF0
3FFF80
03F800
0FFE00
FFFFF0
FFFFE0
FEEFE0
7CF7C0
39F3C0
31F180
01F880
03F800
03F800
ENDCHAR
STARTCHAR 002B
ENCODING 43
SWIDTH 828 0
DWIDTH 46 0
BBX 32 33 7 0
BITMAP
0007E000
0007E000
0007E000
0007E000
0007E000
0007E000
0007E000
0007E000
0007E000
0007E000
0007E000
0007E000
0007E000
FFFFFFFF
FFFFFFFF
FFFFFFFF
FFFFFFFF
FFFFFFFF
FFFFFFFF
FFFFFFFF
0007E000
0007E000
0007E000
0007E000
0007E000
0007E000
0007E000
0007E000
0007E000
0007E000
0007E000
0007E000
0007E000
ENDCHAR
STARTCHAR 002C
ENCODING 44
SWIDTH 270 0
DWIDTH 15 0
BBX 12 16 1 -8
BITMAP
1FF0
1FF0
3FE0
3FE0
3FE0
3FC0
3FC0
3FC0
7F80
7F80
7F80
7F00
7F00
FF00
FE00
FE00
ENDCHAR
STARTCHAR 002D
ENCODING 45
SWIDTH 324 0
DWIDTH 18 0
BBX 15 7 2 10
BITMAP
FFFE
FFFE
FFFE
FFFE
FFFE
FFFE
FFFE
ENDCHAR
STARTCHAR 002E
ENCODING 46
SWIDTH 270 0
DWIDTH 15 0
BBX 11 11 2 -1
BITMAP
1F80
3FC0
7FE0
FFE0
FFE0
FFE0
FFE0
7FE0
7FC0
3F80
0600
ENDCHAR
STARTCHAR 002F
ENCODING 47
SWIDTH 270 0
DWIDTH 15 0
BBX 19 45 -2 -5
BITMAP
0003E0
0003E0
0003E0
0007C0
0007C0
0007C0
000F80
000F80
000F80
001F00
001F00
001F00
003E00
003E00
003E00
007C00
007C00
007C00
00F800
00F800
00F800
00F800
01F000
01F000
01F000
03E000
03E000
03E000
07C000
07C000
07C000
0F8000
0F8000
0F8000
1F0000
1F0000
1F0000
3E0000
3E0000
3E0000
3E0000
7C0000
7C0000
7C0000
F80000
ENDCHAR
STARTCHAR 0030
ENCODING 48
SWIDTH 558 0
DWIDTH 31 0
BBX 28 40 2 0
BITMAP
00FFE000
03FFF800
0FFFFE00
1FFFFF00
3FFFFF80
3FFFFFC0
7FFFFFC0
7FFFFFE0
FFE0FFE0
FFC07FE0
FFC03FE0
FF803FF0
FF803FF0
FF803FF0
FF803FF0
FF803FF0
FF803FF0
FF803FF0
FF803FF0
FF803FF0
FF803FF0
FF803FF0
FF803FF0
FF803FF0
FF803FF0
FF803FF0
FF803FF0
FF803FF0
FFC03FF0
FFC07FE0
FFF0FFE0
7FFFFFE0
7FFFFFC0
3FFFFFC0
3FFFFF80
1FFFFF00
0FFFFE00
03FFFC00
00FFF000
001F0000
ENDCHAR
STARTCHAR 0031
ENCODING 49
SWIDTH 558 0
DWIDTH 31 0
BBX 15 39 8 0
BITMAP
FFFE
FFFE
FFFE
FFFE
FFFE
FFFE
FFFE
FFFE
FFFE
03FE
03FE
03FE
03FE
03FE
03FE
03FE
03FE
03FE
03FE
03FE
03FE
03FE
03FE
03FE
03FE
03FE
03FE
03FE
03FE
03FE
03FE
03FE
03FE
03FE
03FE
03FE
03FE
03FE
03FE
ENDCHAR
STARTCHAR 0032
ENCODING 50
SWIDTH 558 0
DWIDTH 31 0
BBX 27 39 2 1
BITMAP
00FFE000
03FFF800
07FFFC00
0FFFFE00
1FFFFF00
3FFFFF80
3FFFFF80
7FFFFFC0
7FE1FFC0
7FC0FFC0
7FC07FC0
7FC07FC0
7FC07FC0
7FC0FFC0
7FE0FFC0
7FF1FF80
3FE3FF80
3FC7FF00
1F8FFF00
0F1FFE00
0E3FFC00
007FF800
00FFF800
01FFE000
03FFC000
07FF8000
0FFF0000
1FFE0000
1FFC0000
3FF80000
7FFFFFE0
7FFFFFE0
7FFFFFE0
FFFFFFE0
FFFFFFE0
7FFFFFE0
7FFFFFE0
3FFFFFE0
1FFFFFE0
ENDCHAR
STARTCHAR 0033
ENCODING 51
SWIDTH 558 0
DWIDTH 31 0
BBX 26 39 3 0
BITMAP
FFFFE000
FFFFFC00
FFFFFE00
FFFFFF00
FFFFFF00
FFFFFF00
FFFFFF00
FFFFFF00
FFFFFF00
0007FE00
000FFE00
001FFC00
003FF800
007FF000
00FFC000
01FF8000
03FFE000
07FFF800
07FFFE00
07FFFF00
07FFFF00
07FFFF80
0007FF80
0000FFC0
0000FFC0
00007FC0
00007FC0
0000FFC0
0000FFC0
0003FFC0
FFFFFF80
FFFFFF80
FFFFFF80
FFFFFF00
FFFFFE00
FFFFFE00
FFFFF800
FFFFF000
FFFF8000
ENDCHAR
STARTCHAR 0034
ENCODING 52
SWIDTH 558 0
DWIDTH 31 0
BBX 29 39 1 1
BITMAP
0007FC80
000FF980
000FF980
001FF380
003FF380
003FE780
007FC780
007FCF80
00FF9F80
00FF9F80
01FF3F80
01FF3F80
03FE7F80
07FC7F80
07FCFF80
0FF8FF80
0FF8FF80
1FF0FF80
1FF0FF80
3FE0FF80
3FC0FF80
7FC0FF80
7F80FFF8
FFFFFFF8
FFFFFFF8
FFFFFFF8
7FFFFFF8
7FFFFFF8
7FFFFFF8
3FFFFFF8
0FFFFFF8
0000FF80
0000FF80
0000FF80
0000FF80
0000FF80
0000FF80
0000FF80
0000FF80
ENDCHAR
STARTCHAR 0035
ENCODING 53
SWIDTH 558 0
DWIDTH 31 0
BBX 26 39 3 0
BITMAP
7FFFFE00
7FFFFE00
7FFFFE00
7FFFFE00
7FFFFE00
7FFFFE00
7FFFFE00
7FFFFE00
7FFFFE00
7FC00000
7FC00000
7FC00000
7FC00000
7FFFC000
7FFFF000
7FFFFC00
7FFFFE00
7FFFFE00
7FFFFF00
7FFFFF80
7FFFFF80
000FFF80
0001FF80
0000FFC0
0000FFC0
00007FC0
00007FC0
0000FFC0
0000FFC0
0003FF80
FFFFFF80
FFFFFF80
FFFFFF00
FFFFFF00
FFFFFE00
FFFFFC00
FFFFF800
FFFFE000
FFFF0000
ENDCHAR
STARTCHAR 0036
ENCODING 54
SWIDTH 558 0
DWIDTH 31 0
BBX 28 40 2 -1
BITMAP
000FFC00
001FFC00
001FF800
003FF000
007FF000
007FE000
00FFE000
00FFC000
01FFC000
01FF8000
03FF8000
07FF0000
07FE0000
0FFE7000
0FFC7C00
1FFCFF00
1FF8FF80
3FF9FFC0
3FF3FFC0
7FE3FFE0
7FE7FFE0
7FC0FFF0
FFC07FF0
FF803FF0
FF803FF0
FF803FF0
FF803FF0
FF803FF0
FFC07FF0
FFE0FFE0
FFFFFFE0
7FFFFFE0
7FFFFFC0
3FFFFFC0
1FFFFF80
1FFFFF00
07FFFE00
03FFF800
00FFF000
001E0000
ENDCHAR
STARTCHAR 0037
ENCODING 55
SWIDTH 558 0
DWIDTH 31 0
BBX 25 39 3 0
BITMAP
FFFFF800
FFFFFE00
FFFFFF00
FFFFFF80
FFFFFF80
FFFFFF80
FFFFFF80
FFFFFF80
FFFFFF80
0001FF80
0001FF00
0001FF00
0003FF00
0003FF00
0003FE00
0007FE00
0007FE00
1FFFFF80
1FFFFF80
1FFFFF80
1FFFFF80
1FFFFF80
1FFFFF80
003FF000
003FF000
003FF000
007FE000
007FE000
007FE000
00FFE000
00FFC000
00FFC000
01FFC000
01FF8000
01FF8000
03FF8000
03FF0000
03FF0000
07FF0000
ENDCHAR
STARTCHAR 0038
ENCODING 56
SWIDTH 558 0
DWIDTH 31 0
BBX 28 40 2 0
BITMAP
00FFE000
03FFF800
07FFFE00
0FFFFF00
1FFFFF80
3FFFFF80
3FFFFFC0
7FE0FFC0
7FC07FC0
7FC03FC0
7FC03FC0
7FC03FC0
3FC07FC0
3FE07F80
3FF9FF80
1FFFFF00
0FFFFE00
07FFFC00
0FFFFE00
1FFFFF80
3FFFFF80
7FFBFFC0
7FC07FE0
FF803FE0
FF803FE0
FF801FF0
FF801FF0
FF801FF0
FF803FF0
FFC03FF0
FFE0FFE0
FFFFFFE0
7FFFFFE0
7FFFFFC0
3FFFFF80
1FFFFF80
0FFFFF00
07FFFC00
01FFF000
001F0000
ENDCHAR
STARTCHAR 0039
ENCODING 57
SWIDTH 558 0
DWIDTH 31 0
BBX 29 39 1 1
BITMAP
007FF000
01FFFC00
03FFFF00
07FFFF80
0FFFFFC0
1FFFFFC0
3FFFFFE0
3FFFFFF0
7FFFFFF0
7FF07FF0
7FE03FF0
7FE01FF8
7FC01FF8
FFC01FF8
FFC01FF0
7FC01FF0
7FE01FF0
7FF03FF0
7FFE3FE0
7FFE7FE0
3FFCFFE0
3FFCFFC0
1FF9FFC0
0FF1FF80
03F3FF80
00E3FF00
0007FF00
0007FE00
000FFC00
001FFC00
001FF800
003FF800
003FF000
007FF000
007FE000
00FFE000
01FFC000
01FF8000
03FF8000
ENDCHAR
STARTCHAR 003A
ENCODING 58
SWIDTH 306 0
DWIDTH 17 0
BBX 11 28 3 -1
BITMAP
1F00
3F80
7FC0
FFE0
FFE0
FFE0
FFE0
FFE0
7FC0
3FC0
1F00
0000
0000
0000
0000
0000
0000
1F80
7FC0
7FC0
FFE0
FFE0
FFE0
FFE0
7FE0
7FC0
3F80
0E00
ENDCHAR
STARTCHAR 003B
ENCODING 59
SWIDTH 306 0
DWIDTH 17 0
BBX 14 35 1 -8
BITMAP
03C0
0FF0
1FF8
1FF8
1FFC
1FFC
1FFC
1FF8
1FF8
0FF0
07E0
0000
0000
0000
0000
0000
0000
0000
0000
1FF0
1FF0
1FF0
1FE0
3FE0
3FE0
3FC0
3FC0
3FC0
7F80
7F80
7F80
7F00
7F00
FE00
FE00
ENDCHAR
STARTCHAR 003C
ENCODING 60
SWIDTH 828 0
DWIDTH 46 0
BBX 32 33 7 0
BITMAP
00000001
00000007
0000003F
000000FF
000007FF
00001FFF
00007FFF
0003FFFE
000FFFF0
007FFFC0
01FFFE00
0FFFF800
3FFFE000
FFFF0000
FFFC0000
FFE00000
FF800000
FFF00000
FFFC0000
FFFF0000
3FFFE000
07FFF800
01FFFF00
003FFFC0
000FFFF8
0003FFFE
00007FFF
00001FFF
000003FF
000000FF
0000001F
00000007
00000001
ENDCHAR
STARTCHAR 003D
ENCODING 61
SWIDTH 828 0
DWIDTH 46 0
BBX 32 19 7 7
BITMAP
FFFFFFFF
FFFFFFFF
FFFFFFFF
FFFFFFFF
FFFFFFFF
FFFFFFFF
FFFFFFFF
00000000
00000000
00000000
00000000
00000000
FFFFFFFF
FFFFFFFF
FFFFFFFF
FFFFFFFF
FFFFFFFF
FFFFFFFF
FFFFFFFF
ENDCHAR
STARTCHAR 003E
ENCODING 62
SWIDTH 828 0
DWIDTH 46 0
BBX 32 33 7 0
BITMAP
80000000
F0000000
FC000000
FF800000
FFE00000
FFF80000
FFFF0000
3FFFC000
0FFFF800
03FFFE00
007FFF80
001FFFF0
0003FFFC
0000FFFF
00001FFF
000007FF
000001FF
000007FF
00003FFF
0000FFFF
0007FFFC
001FFFF0
00FFFF80
03FFFE00
0FFFF000
7FFFC000
FFFE0000
FFF80000
FFE00000
FF000000
FC000000
E0000000
80000000
ENDCHAR
STARTCHAR 003F
ENCODING 63
SWIDTH 504 0
DWIDTH 28 0
BBX 26 41 1 -1
BITMAP
000E0000
01FFE000
07FFF800
0FFFFC00
1FFFFE00
3FFFFF00
3FFFFF00
7FFFFF80
7FFFFF80
FFE1FFC0
FFC0FFC0
1F80FFC0
0180FFC0
0000FFC0
0000FFC0
0001FFC0
00FFFFC0
00FFFF80
00FFFF80
00FFFF00
00FFFF00
00FFFC00
00FFF800
00FFE000
00FF8000
00FF8000
00FF8000
00FF8000
00000000
00000000
003F0000
007F8000
00FFC000
01FFC000
01FFC000
01FFC000
01FFC000
00FFC000
00FF8000
007F0000
000E0000
ENDCHAR
STARTCHAR 0040
ENCODING 64
SWIDTH 990 0
DWIDTH 55 0
BBX 51 49 2 -9
BITMAP
00000FFFF00000
00007FFFFE0000
0001FFFFFF8000
0007FFFFFFE000
001FFFFFFFF000
003FF8001FF800
007FC00007FC00
00FF000001FE00
01FE0000007F00
03F80000003F80
07F00000001F80
07E00000001FC0
0FC00040000FC0
1FC007FC7E07E0
1F801FFE7E07E0
3F003FFFFC07E0
3F007FFFFC03E0
3E00FF07FC03E0
7E01FE03FC03E0
7E03FC03F803E0
7C03F803F803E0
7C03F003F803E0
FC07F003F803E0
FC07F003F007E0
FC07E003F007E0
FC07E007F007C0
FC07E007F00FC0
FC07E007E00FC0
FC07E007E01F80
FC07E00FE03F80
7C07E01FE07F00
7E07F03FE0FE00
7E07FCFFFFFC00
7E03FFFBFFF800
3F03FFF3FFF000
3F01FFE3FFC000
1F807F80FF0000
1FC00000000000
0FE00000000000
07F00000006000
07FC000001F000
03FE000007F000
00FFC0003FF800
007FFF0FFFE000
003FFFFFFFC000
000FFFFFFF0000
0003FFFFF80000
00007FFFE00000
00000060000000
ENDCHAR
STARTCHAR 0041
ENCODING 65
SWIDTH 612 0
DWIDTH 34 0
BBX 29 40 3 0
BITMAP
00020000
007FF000
01FFFC00
07FFFF00
0FFFFF80
1FFFFFC0
3FFFFFC0
3FFFFFE0
7FFFFFE0
7FFFFFF0
FFF07FF0
FFE03FF8
FFC01FF8
FFC01FF8
FF801FF8
FF800FF8
FF9FFFF8
FF9FFFF8
FF9FFFF8
FF9FFFF8
FF9FFFF8
FF9FFFF8
FF9FFFF8
FF9FFFF8
FF9FFFF8
FF9FFFF8
FF800FF8
FF800FF8
FF800FF8
FF800FF8
FF800FF8
FF800FF8
FF800FF8
FF800FF8
FF800FF8
FF800FF8
FF800FF8
FF800FF8
FF800FF8
FF800FF8
ENDCHAR
STARTCHAR 0042
ENCODING 66
SWIDTH 576 0
DWIDTH 32 0
BBX 29 40 3 0
BITMAP
00040000
00FFE000
03FFF800
0FFFFE00
1FFFFF00
3FFFFF00
3FFFFF80
7FFFFFC0
7FFFFFC0
FFE1FFC0
FFC0FFC0
FFC07FE0
FF807FE0
FF807FC0
FF807FC0
FF80FFC0
FF9FFF80
FF9FFF00
FF9FFE00
FF9FFE00
FF9FFF80
FF9FFFC0
FF9FFFE0
FF9FFFE0
FF80FFF0
FF803FF0
FF803FF0
FF801FF0
FF801FF8
FF803FF8
FF807FF0
FF9FFFF0
FF9FFFF0
FF9FFFF0
FF9FFFE0
FF9FFFC0
FF9FFF80
FF9FFF00
FF9FFE00
FF9FF000
ENDCHAR
STARTCHAR 0043
ENCODING 67
SWIDTH 504 0
DWIDTH 28 0
BBX 25 39 2 0
BITMAP
00003F80
0007FF80
003FFF80
00FFFF80
01FFFF80
03FFFF80
07FFFF80
0FFFFF80
1FFFFF80
3FFFE000
3FFE0000
7FF80000
7FF00000
FFE00000
FFE00000
FFC00000
FFC00000
FFC00000
FF800000
FF800000
FF800000
FFC00000
FFC00000
FFC00000
FFE00000
FFE00000
7FF00000
7FF80000
3FFE0000
3FFFC000
1FFFFF80
0FFFFF80
0FFFFF80
07FFFF80
01FFFF80
00FFFF80
003FFF80
000FFF80
00007F80
ENDCHAR
STARTCHAR 0044
ENCODING 68
SWIDTH 630 0
DWIDTH 35 0
BBX 31 39 3 0
BITMAP
FFFC0000
FFFFC000
FFFFF800
FFFFFC00
FFFFFF00
FFFFFF80
FFFFFFC0
FFFFFFE0
FFFFFFF0
FFC7FFF0
FFC0FFF8
FFC07FF8
FFC01FFC
FFC01FFC
FFC00FFE
FFC00FFE
FFC007FE
FFC007FE
FFC007FE
FFC007FE
FFC007FE
FFC007FE
FFC007FE
FFC007FE
FFC00FFE
FFC01FFC
FFC01FFC
FFC07FF8
FFC0FFF8
FFC7FFF0
FFDFFFF0
FFDFFFE0
FFDFFFC0
FFDFFF80
FFDFFF00
FFDFFE00
FFDFF800
FFDFE000
FFDF0000
ENDCHAR
STARTCHAR 0045
ENCODING 69
SWIDTH 522 0
DWIDTH 29 0
BBX 25 39 2 0
BITMAP
00003F80
0007FF80
003FFF80
00FFFF80
01FFFF80
03FFFF80
07FFFF80
0FFFFF80
1FFFFF80
3FFF8000
3FFE0000
7FF80000
7FF00000
FFE00000
FFE00000
FFFFFF80
FFFFFF80
FFFFFF80
FFFFFF80
FFFFFF80
FFFFFF80
FFFFFF80
FFFFFF80
FFFFFF80
FFC00000
FFE00000
7FF00000
7FF80000
3FFC0000
3FFF8000
1FFFFF80
0FFFFF80
0FFFFF80
07FFFF80
01FFFF80
00FFFF80
003FFF80
000FFF80
00007F80
ENDCHAR
STARTCHAR 0046
ENCODING 70
SWIDTH 450 0
DWIDTH 25 0
BBX 20 39 3 0
BITMAP
007FF0
03FFF0
0FFFF0
1FFFF0
3FFFF0
7FFFF0
7FFFF0
FFFFF0
FFFFF0
FFF000
FFC000
FFC000
FF8000
FF8000
FF8000
FF8000
FFFFF0
FFFFF0
FFFFF0
FFFFF0
FFFFF0
FFFFF0
FFFFF0
FFFFF0
FFFFF0
FF8000
FF8000
FF8000
FF8000
FF8000
FF8000
FF8000
FF8000
FF8000
FF8000
FF8000
FF8000
FF8000
FF8000
ENDCHAR
STARTCHAR 0047
ENCODING 71
SWIDTH 756 0
DWIDTH 42 0
BBX 39 41 2 -1
BITMAP
00003C0000
0007FFE000
001FFFF800
007FFFFE00
00FFFFFF80
03FFFFFFC0
07FFFFFFE0
0FFFFFFFC0
0FFFFFFF80
1FFFFFFF00
3FFF00FE00
3FFC003C00
7FF8001800
7FF0000000
FFE0000000
FFE0000000
FFC01FFFFE
FFC01FFFFE
FFC01FFFFE
FFC01FFFFE
FFC01FFFFE
FFC01FFFFE
FFC01FFFFE
FFC01FFFFE
FFC01FFFFE
FFE0000FFC
FFE0000FFC
7FF0001FFC
7FF8003FFC
3FFC007FF8
3FFF01FFF8
1FFFFFFFF0
1FFFFFFFE0
0FFFFFFFE0
07FFFFFFC0
03FFFFFF80
01FFFFFF00
007FFFFC00
003FFFF800
0007FFC000
00003E0000
ENDCHAR
STARTCHAR 0048
ENCODING 72
SWIDTH 630 0
DWIDTH 35 0
BBX 29 39 3 0
BITMAP
FFC00FF8
FFC00FF8
FFC00FF8
FFC00FF8
FFC00FF8
FFC00FF8
FFC00FF8
FFC00FF8
FFC00FF8
FFC00FF8
FFC00FF8
FFC00FF8
FFC00FF8
FFC00FF8
FFFFFFF8
FFFFFFF8
FFFFFFF8
FFFFFFF8
FFFFFFF8
FFFFFFF8
FFFFFFF8
FFFFFFF8
FFFFFFF8
FFC00FF8
FFC00FF8
FFC00FF8
FFC00FF8
FFC00FF8
FFC00FF8
FFC00FF8
FFC00FF8
FFC00FF8
FFC00FF8
FFC00FF8
FFC00FF8
FFC00FF8
FFC00FF8
FFC00FF8
FFC00FF8
ENDCHAR
STARTCHAR 0049
ENCODING 73
SWIDTH 270 0
DWIDTH 15 0
BBX 10 39 3 0
BITMAP
FFC0
FFC0
FFC0
FFC0
FFC0
FFC0
FFC0
FFC0
FFC0
FFC0
FFC0
FFC0
FFC0
FFC0
FFC0
FFC0
FFC0
FFC0
FFC0
FFC0
FFC0
FFC0
FFC0
FFC0
FFC0
FFC0
FFC0
FFC0
FFC0
FFC0
FFC0
FFC0
FFC0
FFC0
FFC0
FFC0
FFC0
FFC0
FFC0
ENDCHAR
STARTCHAR 004A
ENCODING 74
SWIDTH 414 0
DWIDTH 23 0
BBX 21 39 0 0
BITMAP
001FF8
001FF8
001FF8
001FF8
001FF8
001FF8
001FF8
001FF8
001FF8
001FF8
001FF8
001FF8
001FF8
001FF8
001FF8
001FF8
001FF8
001FF8
001FF8
001FF8
001FF8
001FF8
001FF8
001FF8
001FF8
001FF8
001FF8
001FF8
003FF8
007FF0
FFFFF0
FFFFF0
FFFFF0
FFFFE0
FFFFE0
FFFFC0
FFFF00
FFFE00
FFF000
ENDCHAR
STARTCHAR 004B
ENCODING 75
SWIDTH 594 0
DWIDTH 33 0
BBX 30 39 3 0
BITMAP
FFC00FFC
FFC01FFC
FFC01FF8
FFC03FF8
FFC03FF0
FFC07FF0
FFC07FE0
FFC0FFE0
FFC0FFC0
FFC1FFC0
FFC1FFC0
FFC3FF80
FFC7FF80
FFDFFF00
FFFFFE00
FFFFFC00
FFFFF800
FFFFFF00
FFFFFFC0
FFFFFFC0
FFFFFFE0
FFFFFFE0
FFFFFFF0
FFC0FFF0
FFC03FF0
FFC03FF0
FFC03FF0
FFC03FF0
FFC01FF0
FFC01FF0
FFC01FF0
FFC01FF0
FFC01FF0
FFC01FF0
FFC01FF0
FFC01FF0
FFC01FF0
FFC01FF0
FFC01FF0
ENDCHAR
STARTCHAR 004C
ENCODING 76
SWIDTH 432 0
DWIDTH 24 0
BBX 21 39 3 0
BITMAP
FF8000
FF8000
FF8000
FF8000
FF8000
FF8000
FF8000
FF8000
FF8000
FF8000
FF8000
FF8000
FF8000
FF8000
FF8000
FF8000
FF8000
FF8000
FF8000
FF8000
FF8000
FF8000
FF8000
FF8000
FF8000
FF8000
FF8000
FF8000
FFC000
FFE000
FFFFF8
FFFFF8
7FFFF8
7FFFF8
3FFFF8
1FFFF8
0FFFF8
07FFF8
00FFF8
ENDCHAR
STARTCHAR 004D
ENCODING 77
SWIDTH 828 0
DWIDTH 46 0
BBX 45 39 1 0
BITMAP
00FE0003F800
03FF0007FC00
03FF800FFE00
07FF801FFF00
07FFC01FFF00
0FFFC03FFF00
0FFFE03FFF00
0FFFE03FFF80
0FFFE03FFF80
0FFFE07F7F80
0FFFF07F7F80
1FEFF07F7F80
1FE7F07F7F80
1FE7F0FF7F80
1FE7F0FE7FC0
1FE7F8FE7FC0
1FE3F8FE3FC0
1FE3F9FE3FC0
3FE3F9FE3FC0
3FE3FDFC3FC0
3FE3FDFC3FC0
3FE1FDFC3FC0
3FE1FDFC3FE0
3FC1FFFC3FE0
3FC1FFF83FE0
3FC1FFF83FE0
7FC0FFF83FE0
7FC0FFF81FE0
7FC0FFF01FE0
7FC0FFF01FF0
7FC0FFF01FF0
7FC07FF01FF0
7FC07FF01FF0
FFC07FE01FF0
FF807FE01FF0
FF803FE01FF0
FF803FC01FF8
FF801FC01FF8
FF800F800FF8
ENDCHAR
STARTCHAR 004E
ENCODING 78
SWIDTH 648 0
DWIDTH 36 0
BBX 31 41 3 -1
BITMAP
0E000000
3F8007FE
7FE007FE
7FE007FE
FFF007FE
FFF807FE
FFF807FE
FFFC07FE
FFFC07FE
FFFE07FE
FFFE07FE
FFFF07FE
FFFF07FE
FFFF87FE
FFFFC3FE
FF7FC3FE
FF7FE3FE
FFBFE3FE
FFBFF3FE
FF9FF3FE
FF9FFBFE
FF8FFBFE
FF8FFFFE
FF87FFFE
FF83FFFE
FF83FFFE
FF81FFFE
FF81FFFE
FF80FFFE
FF80FFFE
FF807FFE
FF807FFE
FF803FFE
FF801FFE
FF801FFE
FF800FFE
FF800FFE
FF8007FC
FF8003FC
FF8001F8
00000060
ENDCHAR
STARTCHAR 004F
ENCODING 79
SWIDTH 756 0
DWIDTH 42 0
BBX 39 40 2 0
BITMAP
0007FFC000
001FFFF000
007FFFFC00
01FFFFFF00
03FFFFFF80
07FFFFFFC0
0FFFFFFFE0
1FFFFFFFE0
1FFFFFFFF0
3FFF83FFF8
3FFC007FF8
7FF8003FFC
7FF0001FFC
FFE0000FFE
FFE0000FFE
FFC00007FE
FFC00007FE
FFC00007FE
FF800007FE
FF800007FE
FF800007FE
FFC00007FE
FFC00007FE
FFC00007FE
FFE0000FFE
FFE0000FFE
7FF0001FFC
7FF8003FFC
3FFC007FF8
3FFF01FFF8
1FFFFFFFF0
1FFFFFFFF0
0FFFFFFFE0
07FFFFFFC0
03FFFFFF80
01FFFFFF00
007FFFFC00
003FFFF800
0007FFE000
0000380000
ENDCHAR
STARTCHAR 0050
ENCODING 80
SWIDTH 558 0
DWIDTH 31 0
BBX 28 40 3 0
BITMAP
00060000
00FFE000
03FFF800
0FFFFE00
1FFFFF00
3FFFFF80
3FFFFF80
7FFFFFC0
7FFFFFE0
FFFFFFE0
FFE0FFE0
FFC07FE0
FFC03FF0
FF803FF0
FF803FF0
FF807FF0
FF807FE0
FF80FFE0
FF9FFFE0
FF9FFFE0
FF9FFFC0
FF9FFF80
FF9FFF80
FF9FFF00
FF9FFE00
FF9FF800
FF9FE000
FF9C0000
FF800000
FF800000
FF800000
FF800000
FF800000
FF800000
FF800000
FF800000
FF800000
FF800000
FF800000
FF800000
ENDCHAR
STARTCHAR 0051
ENCODING 81
SWIDTH 756 0
DWIDTH 42 0
BBX 40 44 2 -4
BITMAP
0007FFC000
001FFFF000
007FFFFC00
01FFFFFE00
03FFFFFF80
07FFFFFFC0
0FFFFFFFE0
1FFFFFFFE0
1FFFFFFFF0
3FFF01FFF8
3FFC007FF8
7FF8003FFC
7FF0001FFC
FFE0000FFE
FFE0000FFE
FFC00007FE
FFC00007FE
FFC00007FE
FF800007FE
FF800003FF
FF800003FF
FFC00007FE
FFC00007FE
FFC00007FE
FFE1FF07FE
FFE1FF0FFE
7FF1FF1FFC
7FF9FF3FFC
7FF9FFFFFC
3FF9FFFFF8
1FF9FFFFF8
1FF9FFFFF0
0FF9FFFFE0
07F9FFFFC0
03F9FFFF80
01F9FFFF00
0079FFFE00
0039FFF800
0001FFC000
0001FF0000
0001FF0000
0001FF0000
0001FF0000
0001FF0000
ENDCHAR
STARTCHAR 0052
ENCODING 82
SWIDTH 576 0
DWIDTH 32 0
BBX 28 40 3 0
BITMAP
00040000
00FFE000
03FFF800
0FFFFE00
1FFFFF00
3FFFFF80
3FFFFFC0
7FFFFFC0
7FFFFFE0
FFF1FFE0
FFC0FFE0
FFC07FE0
FF807FE0
FF807FE0
FF807FE0
FF80FFC0
FF9FFFC0
FF9FFF80
FF9FFF00
FF9FFC00
FF9FFE00
FF9FFF80
FF9FFFC0
FF9FFFE0
FF9FFFE0
FF83FFE0
FF807FF0
FF807FF0
FF803FF0
FF803FF0
FF803FF0
FF803FF0
FF803FF0
FF803FF0
FF803FF0
FF803FF0
FF803FF0
FF803FF0
FF803FF0
FF803FF0
ENDCHAR
STARTCHAR 0053
ENCODING 83
SWIDTH 522 0
DWIDTH 29 0
BBX 26 39 2 0
BITMAP
00FFFF00
07FFFF00
0FFFFF00
1FFFFF00
3FFFFF00
7FFFFF00
7FFFFF00
FFFFFF00
FFFFFF00
FFE00000
FFC00000
FFC00000
FFE00000
FFF00000
7FFC0000
7FFE0000
3FFF8000
3FFFE000
1FFFF000
07FFFC00
03FFFE00
00FFFF00
007FFF00
001FFF80
0007FF80
0003FFC0
0001FFC0
0000FFC0
0001FFC0
0003FFC0
FFFFFFC0
FFFFFFC0
FFFFFF80
FFFFFF80
FFFFFF00
FFFFFE00
FFFFFC00
FFFFF800
FFFFC000
ENDCHAR
STARTCHAR 0054
ENCODING 84
SWIDTH 486 0
DWIDTH 27 0
BBX 26 39 1 0
BITMAP
FFFFFFC0
FFFFFFC0
FFFFFFC0
FFFFFFC0
FFFFFFC0
FFFFFFC0
FFFFFFC0
FFFFFFC0
FFFFFFC0
00FFC000
00FFC000
00FFC000
00FFC000
00FFC000
00FFC000
00FFC000
00FFC000
00FFC000
00FFC000
00FFC000
00FFC000
00FFC000
00FFC000
00FFC000
00FFC000
00FFC000
00FFC000
00FFC000
00FFC000
00FFC000
00FFC000
00FFC000
00FFC000
00FFC000
00FFC000
00FFC000
00FFC000
00FFC000
00FFC000
ENDCHAR
STARTCHAR 0055
ENCODING 85
SWIDTH 612 0
DWIDTH 34 0
BBX 29 40 3 -1
BITMAP
FF800FF8
FF800FF8
FF800FF8
FF800FF8
FF800FF8
FF800FF8
FF800FF8
FF800FF8
FF800FF8
FF800FF8
FF800FF8
FF800FF8
FF800FF8
FF800FF8
FF800FF8
FF800FF8
FF800FF8
FF800FF8
FF800FF8
FF800FF8
FF800FF8
FF800FF8
FF800FF8
FF800FF8
FF801FF8
FF801FF8
FFC01FF8
FFC01FF8
FFC03FF8
FFF07FF0
7FFFFFF0
7FFFFFF0
3FFFFFE0
3FFFFFC0
1FFFFFC0
0FFFFF80
07FFFF00
03FFFC00
00FFF800
000F0000
ENDCHAR
STARTCHAR 0056
ENCODING 86
SWIDTH 540 0
DWIDTH 30 0
BBX 33 40 -1 -1
BITMAP
FFC001FF80
FFC001FF00
7FC003FF00
7FE003FF00
7FE003FF00
7FE003FE00
3FE007FE00
3FF007FE00
3FF007FC00
1FF007FC00
1FF00FFC00
1FF80FFC00
1FF80FF800
0FF80FF800
0FF81FF800
0FFC1FF800
0FFC1FF000
07FC1FF000
07FC3FF000
07FE3FF000
07FE3FE000
03FE3FE000
03FE7FE000
03FF7FE000
03FF7FC000
01FF7FC000
01FF7FC000
01FFFFC000
01FFFF8000
00FFFF8000
00FFFF8000
00FFFF8000
00FFFF0000
007FFF0000
007FFF0000
003FFE0000
003FFC0000
001FFC0000
000FF00000
0001C00000
ENDCHAR
STARTCHAR 0057
ENCODING 87
SWIDTH 900 0
DWIDTH 50 0
BBX 45 40 3 -1
BITMAP
FF803FE00FF8
FF803FE00FF8
FF803FE00FF8
FF803FE00FF8
FF803FE00FF8
FF803FE00FF8
FF803FE00FF8
FF803FE00FF8
FF803FE00FF8
FF803FE00FF8
FF803FE00FF8
FF803FE00FF8
FF803FE00FF8
FF803FE00FF8
FF803FE00FF8
FF803FE00FF8
FF803FE00FF8
FF803FE00FF8
FF803FE00FF8
FF803FE00FF8
FF803FE00FF8
FF803FE00FF8
FF803FE00FF8
FF803FE00FF8
FF803FE00FF8
FF803FE00FF8
FF803FE00FF8
FF807FE01FF8
FFC07FF01FF8
FFE0FFF83FF8
7FFFFFFFFFF0
7FFFFFFFFFF0
7FFFFFFFFFE0
3FFFFFFFFFE0
1FFFFFFFFFC0
1FFFFFFFFF80
0FFFF9FFFF00
03FFF07FFE00
01FFC03FF800
001E00038000
ENDCHAR
STARTCHAR 0058
ENCODING 88
SWIDTH 630 0
DWIDTH 35 0
BBX 33 39 1 0
BITMAP
E000000380
FF00003F80
FFC001FF80
FFF007FF80
FFF80FFF80
FFFE1FFF80
FFFF3FFF80
FFFF7FFF80
FFFFFFFF80
3FFFFFFE00
03FFFFE000
00FFFF8000
007FFF0000
003FFE0000
003FFE0000
001FFC0000
001FFC0000
001FFC0000
000FFC0000
000FFC0000
000FFC0000
000FFC0000
001FFC0000
001FFC0000
001FFE0000
003FFE0000
007FFF0000
00FFFF8000
03FFFFE000
1FFFFFFC00
FFFFFFFF80
FFFFFFFF80
FFFF7FFF80
FFFE3FFF80
FFFC0FFF80
FFF007FF80
FFC001FF80
FF00007F80
F000000780
ENDCHAR
STARTCHAR 0059
ENCODING 89
SWIDTH 558 0
DWIDTH 31 0
BBX 27 39 2 0
BITMAP
FFC03FE0
FFC03FE0
FFC03FE0
FFC03FE0
FFC03FE0
FFC03FE0
FFC03FE0
FFC03FE0
FFC03FE0
FFC03FE0
FFC03FE0
FFC03FE0
FFC03FE0
FFC03FE0
7FC07FE0
7FE07FE0
7FE0FFE0
7FFFFFC0
3FFFFFC0
3FFFFFC0
1FFFFF80
1FFFFF00
0FFFFE00
07FFFC00
01FFF800
007FE000
007FE000
007FE000
007FE000
007FE000
007FE000
007FE000
007FE000
007FE000
007FE000
007FE000
007FE000
007FE000
007FE000
ENDCHAR
STARTCHAR 005A
ENCODING 90
SWIDTH 522 0
DWIDTH 29 0
BBX 28 39 1 0
BITMAP
3FFFFF00
3FFFFFC0
3FFFFFE0
3FFFFFE0
3FFFFFF0
3FFFFFF0
3FFFFFF0
3FFFFFF0
3FFFFFE0
0001FFE0
0001FFC0
0003FF80
0007FF80
000FFF00
000FFE00
001FFE00
003FFC00
003FF800
007FF000
00FFF000
01FFE000
01FFC000
03FF8000
07FF8000
0FFF0000
0FFE0000
1FFE0000
3FFC0000
7FF80000
7FF00000
FFFFFFF0
FFFFFFF0
FFFFFFF0
FFFFFFF0
FFFFFFF0
FFFFFFF0
7FFFFFF0
7FFFFFF0
1FFFFFF0
ENDCHAR
STARTCHAR 005B
ENCODING 91
SWIDTH 324 0
DWIDTH 18 0
BBX 11 51 5 -12
BITMAP
FFE0
FFE0
FFE0
FFE0
FE00
FE00
FE00
FE00
FE00
FE00
FE00
FE00
FE00
FE00
FE00
FE00
FE00
FE00
FE00
FE00
FE00
FE00
FE00
FE00
FE00
FE00
FE00
FE00
FE00
FE00
FE00
FE00
FE00
FE00
FE00
FE00
FE00
FE00
FE00
FE00
FE00
FE00
FE00
FE00
FE00
FE00
FE00
FE00
FFE0
FFE0
FFE0
ENDCHAR
STARTCHAR 005C
ENCODING 92
SWIDTH 270 0
DWIDTH 15 0
BBX 19 45 -2 -5
BITMAP
F80000
F80000
7C0000
7C0000
7C0000
3E0000
3E0000
3E0000
1F0000
1F0000
1F0000
0F8000
0F8000
0F8000
0F8000
07C000
07C000
07C000
03E000
03E000
03E000
01F000
01F000
01F000
00F800
00F800
00F800
007C00
007C00
007C00
003E00
003E00
003E00
001E00
001F00
001F00
001F00
000F80
000F80
000F80
0007C0
0007C0
0007C0
0003E0
0003E0
ENDCHAR
STARTCHAR 005D
ENCODING 93
SWIDTH 324 0
DWIDTH 18 0
BBX 12 51 2 -12
BITMAP
FFF0
FFF0
FFF0
FFF0
07F0
07F0
07F0
07F0
07F0
07F0
07F0
07F0
07F0
07F0
07F0
07F0
07F0
07F0
07F0
07F0
07F0
07F0
07F0
07F0
07F0
07F0
07F0
07F0
07F0
07F0
07F0
07F0
07F0
07F0
07F0
07F0
07F0
07F0
07F0
07F0
07F0
07F0
07F0
07F0
07F0
07F0
07F0
07F0
FFF0
FFF0
FFF0
ENDCHAR
STARTCHAR 005E
ENCODING 94
SWIDTH 990 0
DWIDTH 55 0
BBX 33 16 11 24
BITMAP
0007F80000
000FFC0000
001FFC0000
003FFE0000
007FFF0000
007FFF8000
00FFFFC000
01FF3FE000
03FE1FE000
07FC0FF000
0FF807F800
0FF003FC00
1FE001FE00
3FC000FF00
7F80007F00
FF00003F80
ENDCHAR
STARTCHAR 005F
ENCODING 95
SWIDTH 486 0
DWIDTH 27 0
BBX 28 6 0 -13
BITMAP
FFFFFFF0
FFFFFFF0
FFFFFFF0
FFFFFFF0
FFFFFFF0
FFFFFFF0
ENDCHAR
STARTCHAR 0060
ENCODING 96
SWIDTH 486 0
DWIDTH 27 0
BBX 12 10 6 31
BITMAP
FE00
7F00
3F00
1F80
1F80
0FC0
07C0
03E0
01E0
00F0
ENDCHAR
STARTCHAR 0061
ENCODING 97
SWIDTH 558 0
DWIDTH 31 0
BBX 28 28 1 0
BITMAP
003FC000
01FFF800
03FFFC00
07FFFF00
0FFFFF80
1FFFFF80
3FFFFFC0
3FFFFFE0
7FFFFFE0
7FE07FE0
7FC03FF0
FFC01FF0
FF801FF0
FF801FF0
FF801FF0
FF801FF0
FFC01FF0
7FC01FF0
7FE01FF0
7FF8DFF0
3FFFDFF0
3FFFDFF0
1FFFDFF0
1FFFDFF0
0FFFDFF0
07FFDFF0
01FFDFF0
007FDFF0
ENDCHAR
STARTCHAR 0062
ENCODING 98
SWIDTH 558 0
DWIDTH 31 0
BBX 28 39 2 0
BITMAP
FF800000
FF800000
FF800000
FF800000
FF800000
FF800000
FF800000
FF800000
FF800000
FF800000
FF800000
FFBFE000
FFBFF800
FFBFFE00
FFBFFF00
FFBFFF80
FFBFFF80
FFBFFFC0
FFBFFFE0
FFB1FFE0
FF807FE0
FF803FE0
FF801FF0
FF801FF0
FF801FF0
FF801FF0
FF801FF0
FF801FF0
7FC03FE0
7FE07FE0
7FF9FFE0
3FFFFFE0
3FFFFFC0
1FFFFF80
1FFFFF80
0FFFFF00
03FFFE00
01FFF800
007FE000
ENDCHAR
STARTCHAR 0063
ENCODING 99
SWIDTH 378 0
DWIDTH 21 0
BBX 20 28 1 0
BITMAP
0000F0
003FF0
01FFF0
03FFF0
0FFFF0
1FFFF0
1FFFF0
3FFFF0
7FFFF0
7FF800
7FE000
7FC000
FFC000
FF8000
FF8000
FF8000
7FC000
7FC000
7FF000
7FFE00
3FFFF0
3FFFF0
1FFFF0
0FFFF0
07FFF0
03FFF0
00FFF0
000FF0
ENDCHAR
STARTCHAR 0064
ENCODING 100
SWIDTH 558 0
DWIDTH 31 0
BBX 28 39 1 0
BITMAP
00001FF0
00001FF0
00001FF0
00001FF0
00001FF0
00001FF0
00001FF0
00001FF0
00001FF0
00001FF0
00001FF0
003FDFF0
00FFDFF0
03FFDFF0
07FFDFF0
0FFFDFF0
1FFFDFF0
3FFFDFF0
3FFFDFF0
7FFFDFF0
7FF01FF0
7FC01FF0
7FC01FF0
FF801FF0
FF801FF0
FF801FF0
FF801FF0
FFC01FF0
7FC01FF0
7FE03FE0
7FF8FFE0
3FFFFFE0
3FFFFFC0
1FFFFFC0
1FFFFF80
0FFFFF00
07FFFE00
01FFF800
007FF000
ENDCHAR
STARTCHAR 0065
ENCODING 101
SWIDTH 540 0
DWIDTH 30 0
BBX 29 28 1 0
BITMAP
001FC000
00FFF800
03FFFC00
07FFFF00
0FFFFF00
1FFFFF80
1FFFFFC0
3FF03FE0
7FE07FE0
7FC1FFC0
7F83FF80
7F8FFE00
FF9FFC00
FF9FF000
FF8FE000
FF8F8380
7F8707E0
7FC007F8
7FE00FF8
7FF03FF0
3FFFFFF0
3FFFFFE0
1FFFFFC0
0FFFFFC0
07FFFF80
03FFFE00
01FFFC00
007FF000
ENDCHAR
STARTCHAR 0066
ENCODING 102
SWIDTH 342 0
DWIDTH 19 0
BBX 16 39 3 0
BITMAP
00FF
07FF
1FFF
3FFF
7FFF
7FFF
FFFF
FFFF
FF80
FF00
FF00
FFFF
FFFF
FFFF
FFFF
FFFF
FFFF
FFFF
FFFF
FFFF
FF00
FF00
FF00
FF00
FF00
FF00
FF00
FF00
FF00
FF00
FF00
FF00
FF00
FF00
FF00
FF00
FF00
FF00
FF00
ENDCHAR
STARTCHAR 0067
ENCODING 103
SWIDTH 558 0
DWIDTH 31 0
BBX 28 40 1 -12
BITMAP
003FC000
00FFF800
03FFFC00
07FFFF00
0FFFFF80
1FFFFF80
3FFFFFC0
3FFFFFE0
7FFFFFE0
7FE07FE0
7FC03FF0
7FC01FF0
FF801FF0
FF801FF0
FF801FF0
FF801FF0
7FC01FF0
7FC01FF0
7FE01FF0
7FFCDFF0
3FFFDFF0
3FFFDFF0
1FFFDFF0
0FFFDFF0
07FFDFF0
03FFDFF0
01FFDFF0
003FDFF0
00001FF0
00001FF0
00003FF0
0E007FE0
0FFFFFE0
0FFFFFE0
0FFFFFC0
0FFFFF80
0FFFFF00
0FFFFE00
0FFFFC00
03FFF000
ENDCHAR
STARTCHAR 0068
ENCODING 104
SWIDTH 540 0
DWIDTH 30 0
BBX 25 39 3 0
BITMAP
FF000000
FF000000
FF000000
FF000000
FF000000
FF000000
FF000000
FF000000
FF000000
FF000000
FF000000
FF1FC000
FF7FF000
FFFFF800
FFFFFC00
FFFFFE00
FFFFFE00
FFFFFF00
FFFFFF00
FFE7FF00
FF81FF00
FF80FF80
FF00FF80
FF00FF80
FF00FF80
FF00FF80
FF00FF80
FF00FF80
FF00FF80
FF00FF80
FF00FF80
FF00FF80
FF00FF80
FF00FF80
FF00FF80
FF00FF80
FF00FF80
FF00FF80
FF00FF80
ENDCHAR
STARTCHAR 0069
ENCODING 105
SWIDTH 234 0
DWIDTH 13 0
BBX 10 40 2 0
BITMAP
1E00
7F80
7F80
FFC0
FFC0
FFC0
FFC0
FF80
7F80
1E00
0000
0000
7F80
7F80
7F80
7F80
7F80
7F80
7F80
7F80
7F80
7F80
7F80
7F80
7F80
7F80
7F80
7F80
7F80
7F80
7F80
7F80
7F80
7F80
7F80
7F80
7F80
7F80
7F80
7F80
ENDCHAR
STARTCHAR 006A
ENCODING 106
SWIDTH 234 0
DWIDTH 13 0
BBX 16 52 -4 -12
BITMAP
0078
01FE
01FE
03FF
03FF
03FF
03FF
01FE
01FE
0078
0000
0000
01FE
01FE
01FE
01FE
01FE
01FE
01FE
01FE
01FE
01FE
01FE
01FE
01FE
01FE
01FE
01FE
01FE
01FE
01FE
01FE
01FE
01FE
01FE
01FE
01FE
01FE
01FE
01FE
01FE
01FE
03FE
07FE
FFFE
FFFE
FFFC
FFFC
FFF8
FFF0
FFC0
FE00
ENDCHAR
STARTCHAR 006B
ENCODING 107
SWIDTH 504 0
DWIDTH 28 0
BBX 25 39 3 0
BITMAP
FF000000
FF000000
FF000000
FF000000
FF000000
FF000000
FF000000
FF000000
FF000000
FF000000
FF000000
FF00FF80
FF01FF00
FF01FF00
FF03FF00
FF03FE00
FF03FE00
FF07FC00
FF07FC00
FF0FFC00
FFFFF800
FFFFF000
FFFFE000
FFFFE000
FFFFF800
FFFFFC00
FFFFFE00
FFFFFE00
FF0FFF00
FF03FF00
FF01FF00
FF01FF00
FF01FF00
FF01FF00
FF01FF00
FF01FF00
FF01FF00
FF01FF00
FF01FF00
ENDCHAR
STARTCHAR 006C
ENCODING 108
SWIDTH 234 0
DWIDTH 13 0
BBX 8 39 3 0
BITMAP
FF
FF
FF
FF
FF
FF
FF
FF
FF
FF
FF
FF
FF
FF
FF
FF
FF
FF
FF
FF
FF
FF
FF
FF
FF
FF
FF
FF
FF
FF
FF
FF
FF
FF
FF
FF
FF
FF
FF
ENDCHAR
STARTCHAR 006D
ENCODING 109
SWIDTH 792 0
DWIDTH 44 0
BBX 40 28 2 0
BITMAP
00FF007F00
03FFC1FFC0
07FFE7FFF0
0FFFFFFFF8
1FFFFFFFFC
3FFFFFFFFC
3FFFFFFFFE
7FFFFFFFFE
7FE7FFE7FE
7FC1FF81FF
FF80FF81FF
FF80FF80FF
FF80FF00FF
FF80FF00FF
FF80FF00FF
FF80FF00FF
FF80FF00FF
FF80FF00FF
FF80FF00FF
FF80FF00FF
FF80FF00FF
FF80FF00FF
FF80FF00FF
FF80FF00FF
FF80FF00FF
FF80FF00FF
FF80FF00FF
FF80FF00FF
ENDCHAR
STARTCHAR 006E
ENCODING 110
SWIDTH 522 0
DWIDTH 29 0
BBX 25 28 2 0
BITMAP
007F8000
03FFE000
07FFF800
0FFFFC00
1FFFFE00
3FFFFE00
3FFFFF00
7FFFFF00
7FF3FF80
7FC0FF80
FF80FF80
FF807F80
FF807F80
FF807F80
FF807F80
FF807F80
FF807F80
FF807F80
FF807F80
FF807F80
FF807F80
FF807F80
FF807F80
FF807F80
FF807F80
FF807F80
FF807F80
FF807F80
ENDCHAR
STARTCHAR 006F
ENCODING 111
SWIDTH 540 0
DWIDTH 30 0
BBX 28 28 1 0
BITMAP
003FC000
00FFF800
03FFFC00
07FFFF00
0FFFFF80
1FFFFF80
1FFFFFC0
3FFFFFE0
3FFFFFE0
7FE07FE0
7FC03FF0
7FC01FF0
FF801FF0
FF801FF0
FF801FF0
FF801FF0
7FC01FF0
7FC03FF0
7FE07FF0
7FF8FFE0
3FFFFFE0
3FFFFFC0
1FFFFFC0
0FFFFF80
07FFFF00
03FFFE00
01FFF800
007FF000
ENDCHAR
STARTCHAR 0070
ENCODING 112
SWIDTH 558 0
DWIDTH 31 0
BBX 28 40 2 -12
BITMAP
003FC000
01FFF800
03FFFC00
07FFFE00
0FFFFF00
1FFFFF80
3FFFFFC0
3FFFFFC0
7FFFFFE0
7FE07FE0
7FC03FE0
FF803FF0
FF801FF0
FF801FF0
FF801FF0
FF801FF0
FF801FF0
FF803FF0
FF807FE0
FFB1FFE0
FFBFFFE0
FFBFFFC0
FFBFFFC0
FFBFFF80
FFBFFF00
FFBFFE00
FFBFF800
FFBFE000
FF800000
FF800000
FF800000
FF800000
FF800000
FF800000
FF800000
FF800000
FF800000
FF800000
FF800000
FF800000
ENDCHAR
STARTCHAR 0071
ENCODING 113
SWIDTH 558 0
DWIDTH 31 0
BBX 28 40 1 -12
BITMAP
003FC000
01FFF800
03FFFC00
07FFFF00
0FFFFF80
1FFFFF80
3FFFFFC0
3FFFFFE0
7FFFFFE0
7FE07FE0
7FC03FF0
FFC01FF0
FF801FF0
FF801FF0
FF801FF0
FF801FF0
FFC01FF0
7FC01FF0
7FE01FF0
7FF8DFF0
3FFFDFF0
3FFFDFF0
1FFFDFF0
1FFFDFF0
0FFFDFF0
07FFDFF0
01FFDFF0
007FDFF0
00001FF0
00001FF0
00001FF0
00001FF0
00001FF0
00001FF0
00001FF0
00001FF0
00001FF0
00001FF0
00001FF0
00001FF0
ENDCHAR
STARTCHAR 0072
ENCODING 114
SWIDTH 360 0
DWIDTH 20 0
BBX 17 28 3 0
BITMAP
FF0080
FF1F80
FF7F80
FFFF80
FFFF80
FFFF80
FFFF80
FFFF80
FFFF80
FFF000
FFC000
FF8000
FF8000
FF0000
FF0000
FF0000
FF0000
FF0000
FF0000
FF0000
FF0000
FF0000
FF0000
FF0000
FF0000
FF0000
FF0000
FF0000
ENDCHAR
STARTCHAR 0073
ENCODING 115
SWIDTH 432 0
DWIDTH 24 0
BBX 21 28 2 0
BITMAP
007FE0
0FFFE0
1FFFE0
3FFFE0
7FFFE0
7FFFE0
FFFFE0
FFFFE0
FF8000
FF8000
FFE000
7FF800
7FFE00
3FFF80
0FFFC0
07FFE0
01FFF0
007FF0
001FF8
001FF8
FFFFF8
FFFFF8
FFFFF0
FFFFF0
FFFFE0
FFFFE0
FFFF80
FFFE00
ENDCHAR
STARTCHAR 0074
ENCODING 116
SWIDTH 342 0
DWIDTH 19 0
BBX 16 34 2 0
BITMAP
FF80
FF80
FF80
FF80
FF80
FF80
FFFF
FFFF
FFFF
FFFF
FFFF
FFFF
FFFF
FFFF
FFFF
FF80
FF80
FF80
FF80
FF80
FF80
FF80
FF80
FF80
FF80
7FC0
7FFF
7FFF
7FFF
3FFF
1FFF
0FFF
07FF
00FF
ENDCHAR
STARTCHAR 0075
ENCODING 117
SWIDTH 522 0
DWIDTH 29 0
BBX 25 28 2 0
BITMAP
FF807F80
FF807F80
FF807F80
FF807F80
FF807F80
FF807F80
FF807F80
FF807F80
FF807F80
FF807F80
FF807F80
FF807F80
FF807F80
FF807F80
FF807F80
FF807F80
FF807F80
FF807F80
7FC0FF80
7FE1FF80
7FFFFF00
7FFFFF00
3FFFFF00
1FFFFE00
1FFFFC00
07FFF800
03FFF000
00FFC000
ENDCHAR
STARTCHAR 0076
ENCODING 118
SWIDTH 468 0
DWIDTH 26 0
BBX 28 28 -1 0
BITMAP
FF801FF0
7FC01FF0
7FC01FE0
7FC03FE0
3FC03FE0
3FE03FC0
3FE03FC0
1FE07FC0
1FE07FC0
1FF07F80
0FF0FF80
0FF0FF80
0FF8FF00
07F8FF00
07F9FF00
07F9FE00
03FDFE00
03FDFE00
03FFFC00
01FFFC00
01FFFC00
01FFF800
00FFF800
00FFF800
00FFF000
007FF000
003FE000
001FC000
ENDCHAR
STARTCHAR 0077
ENCODING 119
SWIDTH 792 0
DWIDTH 44 0
BBX 40 28 2 0
BITMAP
FF80FF80FF
FF80FF80FF
FF80FF80FF
FF80FF80FF
FF80FF80FF
FF80FF80FF
FF80FF80FF
FF80FF80FF
FF80FF80FF
FF80FF80FF
FF80FF80FF
FF80FF80FF
FF80FF80FF
FF80FF80FF
FF80FF80FF
FF80FF80FF
FF80FF80FF
FF80FF80FF
7F81FF81FF
7FC3FFC3FF
7FFFFFFFFE
7FFFFFFFFE
3FFFFFFFFC
1FFFFFFFFC
1FFFFFFFF8
0FFFF7FFF0
07FFC3FFE0
01FF80FF80
ENDCHAR
STARTCHAR 0078
ENCODING 120
SWIDTH 432 0
DWIDTH 24 0
BBX 24 28 0 0
BITMAP
C00000
FE003F
FF80FF
FFE3FF
FFF7FF
FFFFFF
FFFFFF
FFFFFF
FFFFFF
07FFF0
03FFC0
01FFC0
00FF80
00FF80
00FF80
00FF80
00FF80
01FFC0
03FFE0
3FFFFE
FFFFFF
FFFFFF
FFFFFF
FFF7FF
FFE7FF
FFC1FF
FF00FF
F8001F
ENDCHAR
STARTCHAR 0079
ENCODING 121
SWIDTH 522 0
DWIDTH 29 0
BBX 25 40 2 -12
BITMAP
FF807F80
FF807F80
FF807F80
FF807F80
FF807F80
FF807F80
FF807F80
FF807F80
FF807F80
FF807F80
FF807F80
FF807F80
FF807F80
FF807F80
FF807F80
FF807F80
FF807F80
FF807F80
FF80FF80
7FC1FF80
7FFFFF80
7FFFFF00
3FFFFF00
3FFFFE00
1FFFFC00
0FFFF800
03FFF000
01FFC000
00FF8000
00FF8000
00FF8000
00FF8000
00FF8000
00FF8000
00FF8000
00FF8000
00FF8000
00FF8000
00FF8000
00FF8000
ENDCHAR
STARTCHAR 007A
ENCODING 122
SWIDTH 450 0
DWIDTH 25 0
BBX 23 28 1 0
BITMAP
7FFF80
7FFFF8
7FFFFC
7FFFFE
7FFFFE
7FFFFE
7FFFFE
7FFFFE
001FFC
003FF8
007FF8
007FF0
00FFE0
01FFC0
03FF80
07FF00
0FFE00
1FFC00
3FF800
7FF000
7FFFFE
FFFFFE
FFFFFE
FFFFFE
FFFFFE
FFFFFE
7FFFFE
1FFFFE
ENDCHAR
STARTCHAR 007B
ENCODING 123
SWIDTH 486 0
DWIDTH 27 0
BBX 20 51 4 -11
BITMAP
000FF0
003FF0
00FFF0
00FFF0
01FFF0
01FFF0
01FFE0
01FE00
01FE00
01FE00
01FE00
01FE00
01FE00
01FE00
01FE00
01FE00
01FE00
01FE00
01FE00
03FE00
03FC00
07FC00
FFFC00
FFF800
FFF000
FF8000
FFF000
FFF800
FFFC00
07FC00
03FC00
03FE00
01FE00
01FE00
01FE00
01FE00
01FE00
01FE00
01FE00
01FE00
01FE00
01FE00
01FE00
01FE00
01FF80
01FFF0
01FFF0
00FFF0
00FFF0
007FF0
001FF0
ENDCHAR
STARTCHAR 007C
ENCODING 124
SWIDTH 486 0
DWIDTH 27 0
BBX 6 55 11 -13
BITMAP
FC
FC
FC
FC
FC
FC
FC
FC
FC
FC
FC
FC
FC
FC
FC
FC
FC
FC
FC
FC
FC
FC
FC
FC
FC
FC
FC
FC
FC
FC
FC
FC
FC
FC
FC
FC
FC
FC
FC
FC
FC
FC
FC
FC
FC
FC
FC
FC
FC
FC
FC
FC
FC
FC
FC
ENDCHAR
STARTCHAR 007D
ENCODING 125
SWIDTH 486 0
DWIDTH 27 0
BBX 20 51 4 -11
BITMAP
FF0000
FFC000
FFE000
FFF000
FFF000
FFF800
FFF800
0FF800
07F800
07F800
07F800
07F800
07F800
07F800
07F800
07F800
07F800
07F800
07F800
07F800
07FC00
03FE00
03FFF0
01FFF0
00FFF0
003FF0
00FFF0
01FFF0
03FFF0
03FE00
07FC00
07F800
07F800
07F800
07F800
07F800
07F800
07F800
07F800
07F800
07F800
07F800
07F800
0FF800
1FF800
FFF800
FFF800
FFF000
FFF000
FFE000
FF8000
ENDCHAR
STARTCHAR 007E
ENCODING 126
SWIDTH 828 0
DWIDTH 46 0
BBX 37 11 5 11
BITMAP
00F8000010
07FF800038
1FFFF000F8
7FFFFF07F8
FFFFFFFFF8
FFFFFFFFF8
FFFFFFFFF8
FC01FFFFE0
F0003FFF80
C00007FE00
8000000000
ENDCHAR
STARTCHAR 0080
ENCODING 128
SWIDTH 558 0
DWIDTH 31 0
BBX 30 39 0 0
BITMAP
000001FC
00003FFC
0001FFFC
0007FFFC
000FFFFC
003FFFFC
007FFFFC
007FFFFC
00FFFFFC
01FFF800
01FFC000
03FF8000
03FF0000
03FF0000
7FFFFFF0
7FFFFFE0
FFFFFFE0
07FE0000
07FC0000
07FC0000
07FC0000
7FFFFFC0
7FFFFFC0
FFFFFF80
07FE0000
03FF0000
03FF0000
03FF8000
01FFC000
01FFF000
00FFFFF0
00FFFFFC
007FFFFC
003FFFFC
001FFFFC
0007FFFC
0003FFFC
00007FFC
000007FC
ENDCHAR
STARTCHAR 00A0
ENCODING 160
SWIDTH 558 0
DWIDTH 31 0
BBX 0 0 0 0
BITMAP
ENDCHAR
STARTCHAR 00A1
ENCODING 161
SWIDTH 324 0
DWIDTH 18 0
BBX 11 39 4 1
BITMAP
3F00
7F80
FFC0
FFC0
FFE0
FFE0
FFC0
FFC0
7F80
3F00
0000
0000
0000
7FC0
7FC0
7FC0
7FC0
7FC0
FFC0
FFC0
FFC0
FFC0
FFC0
FFC0
FFC0
FFC0
FFC0
FFC0
FFC0
FFC0
FFC0
FFC0
FFC0
FFC0
FFC0
FFC0
FFC0
FFC0
FFC0
ENDCHAR
STARTCHAR 00A2
ENCODING 162
SWIDTH 558 0
DWIDTH 31 0
BBX 19 38 6 0
BITMAP
007E00
007E00
007E00
007E00
007E00
007E00
007E00
01FFE0
07FFE0
1FFFE0
1FFFE0
3FFFE0
7FFFE0
7FFFE0
7FC000
FF8000
FF0000
FF0000
FE0000
FE0000
FF0000
FF0000
FFC000
7FFFE0
7FFFE0
3FFFE0
3FFFE0
1FFFE0
0FFFE0
03FFE0
007E00
007E00
007E00
007E00
007E00
007E00
007E00
007E00
ENDCHAR
STARTCHAR 00A3
ENCODING 163
SWIDTH 558 0
DWIDTH 31 0
BBX 31 40 0 0
BITMAP
0000C000
000FFF00
001FFF00
007FFF00
007FFF00
00FFFF00
01FFFF00
01FFFF00
01FFFF00
03FFC100
03FF0000
03FF0000
03FE0000
03FE0000
03FE0000
3FFFE000
3FFFE000
3FFFE000
3FFFE000
3FFFE000
3FFFE000
3FFFE000
3FFFE000
03FE03FE
03FE03FE
03FE03FE
03FE03FE
07FE07FC
07FC07FC
0FFC0FFC
1FF83FFC
FFFFFFFC
FFFFFFF8
FFFFFFF8
FFFFFFF0
FFFFFFF0
FFFFFFE0
FFFFFFC0
FFFFFF00
FFFFF800
ENDCHAR
STARTCHAR 00A4
ENCODING 164
SWIDTH 558 0
DWIDTH 31 0
BBX 30 39 0 0
BITMAP
000001FC
00003FFC
0001FFFC
0007FFFC
000FFFFC
003FFFFC
007FFFFC
007FFFFC
00FFFFFC
01FFF800
01FFC000
03FF8000
03FF0000
03FF0000
7FFFFFF0
7FFFFFE0
FFFFFFE0
07FE0000
07FC0000
07FC0000
07FC0000
7FFFFFC0
7FFFFFC0
FFFFFF80
07FE0000
03FF0000
03FF0000
03FF8000
01FFC000
01FFF000
00FFFFF0
00FFFFFC
007FFFFC
003FFFFC
001FFFFC
0007FFFC
0003FFFC
00007FFC
000007FC
ENDCHAR
STARTCHAR 00A5
ENCODING 165
SWIDTH 576 0
DWIDTH 32 0
BBX 33 39 0 0
BITMAP
FF8000FF00
7FC001FF00
7FC001FF00
3FE003FE00
3FE003FE00
1FE003FC00
1FF007FC00
0FF007F800
0FF80FF800
07F80FF000
07F80FF000
FFFC1FFF80
FFFC1FFF80
FFFE3FFF80
FFFE3FFF80
01FE7FC000
00FF7F8000
00FF7F8000
FFFFFFFF80
FFFFFFFF80
FFFFFFFF80
FFFFFFFF80
FFFFFFFF80
001FFC0000
001FFC0000
000FF80000
000FF80000
000FF80000
000FF80000
000FF80000
000FF80000
000FF80000
000FF80000
000FF80000
000FF80000
000FF80000
000FF80000
000FF80000
000FF80000
ENDCHAR
STARTCHAR 00A6
ENCODING 166
SWIDTH 486 0
DWIDTH 27 0
BBX 6 49 11 -10
BITMAP
FC
FC
FC
FC
FC
FC
FC
FC
FC
FC
FC
FC
FC
FC
FC
FC
FC
FC
FC
FC
FC
00
00
00
00
00
00
00
FC
FC
FC
FC
FC
FC
FC
FC
FC
FC
FC
FC
FC
FC
FC
FC
FC
FC
FC
FC
FC
ENDCHAR
STARTCHAR 00A7
ENCODING 167
SWIDTH 522 0
DWIDTH 29 0
BBX 23 43 4 -4
BITMAP
01FFF8
0FFFF8
3FFFF8
7FFFF8
7FFFF8
FFFFF8
FFFFF8
FFFFF8
FFF800
FF8000
FF8000
FF8000
7FC000
7FF000
3FFC00
3FFF00
7FFFC0
FFFFF0
FFFFF8
FE1FFC
FE07FE
FF03FE
FF81FE
7FF1FE
7FFFFE
3FFFFE
0FFFFC
03FFF8
00FFF0
003FF8
000FFC
0003FE
0003FE
0003FE
FFFFFE
FFFFFE
FFFFFE
FFFFFE
FFFFFC
FFFFFC
FFFFF0
FFFFE0
FFFF00
ENDCHAR
STARTCHAR 00A8
ENCODING 168
SWIDTH 486 0
DWIDTH 27 0
BBX 16 7 6 32
BITMAP
781E
FC3F
FE7F
FE7F
FE7F
FC3F
781E
ENDCHAR
STARTCHAR 00A9
ENCODING 169
SWIDTH 828 0
DWIDTH 46 0
BBX 40 40 3 0
BITMAP
0003FFC000
000FFFF800
003FFFFE00
00FFE7FF00
01FC003F80
03F0000FC0
07C00003E0
0F800001F0
1F00FF00F8
1E03FFC07C
3E07FFF03C
3C0FFFF83E
781FC3F81E
781F80FC1E
703F00FC0F
F03F00FC0F
F07F00000F
F07E000007
F07E000007
F07E000007
F07E000007
F07E000007
F07F000007
F07F00FC0F
F03F00FC0F
703F00FC0F
783F81FC1E
781FF7F81E
3C0FFFF83E
3E07FFF03C
1E03FFC07C
1F00FF00F8
0F800001F0
07E00003E0
03F0000FC0
01FC003F80
00FFF7FF00
003FFFFC00
000FFFF000
0003FFC000
ENDCHAR
STARTCHAR 00AA
ENCODING 170
SWIDTH 414 0
DWIDTH 23 0
BBX 21 20 1 19
BITMAP
03FE00
0FFF00
1FFFC0
3FFFE0
7FFFE0
7FFFF0
FF07F0
FE03F8
FE03F8
FE03F8
FE03F8
FE03F8
FF03F8
7FDBF8
7FFBF8
3FFBF8
1FFBF8
0FFBF8
07FBF8
00F000
ENDCHAR
STARTCHAR 00AB
ENCODING 171
SWIDTH 540 0
DWIDTH 30 0
BBX 24 17 3 5
BITMAP
03F87F
03F07E
07E0FC
0FC1F8
1F83F0
3F87F0
3F07E0
7E0FC0
FE1FC0
7E0FE0
3F07E0
1F83F0
0FC1F8
0FE1FC
07E0FC
03F07E
01F83F
ENDCHAR
STARTCHAR 00AC
ENCODING 172
SWIDTH 828 0
DWIDTH 46 0
BBX 32 14 7 10
BITMAP
FFFFFFFF
FFFFFFFF
FFFFFFFF
FFFFFFFF
FFFFFFFF
FFFFFFFF
FFFFFFFF
0000003F
0000003F
0000003F
0000003F
0000003F
0000003F
0000003F
ENDCHAR
STARTCHAR 00AD
ENCODING 173
SWIDTH 324 0
DWIDTH 18 0
BBX 15 7 2 10
BITMAP
FFFE
FFFE
FFFE
FFFE
FFFE
FFFE
FFFE
ENDCHAR
STARTCHAR 00AE
ENCODING 174
SWIDTH 828 0
DWIDTH 46 0
BBX 40 40 3 0
BITMAP
0003FFC000
000FFFF800
003FFFFE00
00FFE7FF00
01FC003F80
03F0000FC0
07C00003E0
0F800001F0
1F0FF800F8
1E0FFFE07C
3C0FFFF03C
3C0FFFF83E
780FC7FC1E
780FC1FC1E
700FC0FC0F
F00FC0FC0F
F00FC0FC0F
F00FC1FC07
F00FFFF807
F00FFFF007
F00FFFC007
F00FFFC007
F00FCFC007
F00FCFE00F
F00FC7E00F
780FC7F00F
780FC3F01E
780FC3F81E
3C0FC1F83E
3E0FC1FC3C
1E0FC0FC7C
1F000000F8
0F800001F0
07E00003E0
03F0000FC0
01FC003F80
00FFF7FF00
003FFFFC00
000FFFF000
0003FFC000
ENDCHAR
STARTCHAR 00AF
ENCODING 175
SWIDTH 486 0
DWIDTH 27 0
BBX 16 5 6 33
BITMAP
FFFF
FFFF
FFFF
FFFF
FFFF
ENDCHAR
STARTCHAR 00B0
ENCODING 176
SWIDTH 324 0
DWIDTH 18 0
BBX 17 17 1 23
BITMAP
03C000
0FF800
3FFC00
7FFE00
7C3F00
F81F00
F00F00
F00F80
F00780
F00780
F00F00
F80F00
7C3F00
7FFE00
3FFC00
1FF800
07E000
ENDCHAR
STARTCHAR 00B1
ENCODING 177
SWIDTH 828 0
DWIDTH 46 0
BBX 32 34 7 0
BITMAP
0007E000
0007E000
0007E000
0007E000
0007E000
0007E000
0007E000
0007E000
0007E000
FFFFFFFF
FFFFFFFF
FFFFFFFF
FFFFFFFF
FFFFFFFF
FFFFFFFF
0007E000
0007E000
0007E000
0007E000
0007E000
0007E000
0007E000
0007E000
0007E000
00000000
00000000
00000000
00000000
FFFFFFFF
FFFFFFFF
FFFFFFFF
FFFFFFFF
FFFFFFFF
FFFFFFFF
ENDCHAR
STARTCHAR 00B2
ENCODING 178
SWIDTH 360 0
DWIDTH 20 0
BBX 17 23 2 16
BITMAP
0FF000
1FFC00
7FFE00
7FFF00
FFFF00
FC3F00
FC3F80
FC3F80
FC3F00
FE7F00
7CFE00
79FE00
33FC00
07F800
0FF000
1FE000
3FC000
7F0000
FFFF80
FFFF80
FFFF80
FFFF80
FFFF80
ENDCHAR
STARTCHAR 00B3
ENCODING 179
SWIDTH 360 0
DWIDTH 20 0
BBX 17 23 2 16
BITMAP
FFF800
FFFE00
FFFF00
FFFF00
FFFF00
007F00
00FE00
01FC00
07F800
0FE000
1FFC00
1FFE00
1FFF00
00FF80
001F80
001F80
001F80
003F80
FFFF80
FFFF00
FFFF00
FFFE00
FFF800
ENDCHAR
STARTCHAR 00B4
ENCODING 180
SWIDTH 486 0
DWIDTH 27 0
BBX 12 10 10 31
BITMAP
07F0
0FE0
0FC0
1F80
1F00
3F00
3E00
7C00
7800
F000
ENDCHAR
STARTCHAR 00B5
ENCODING 181
SWIDTH 630 0
DWIDTH 35 0
BBX 35 42 -1 -12
BITMAP
03FF007FE0
03FF007FE0
03FF007FE0
03FE007FE0
03FE007FE0
07FE007FC0
07FE007FC0
07FE00FFC0
07FE00FFC0
07FE00FFC0
07FC00FFC0
0FFC00FF80
0FFC00FF80
0FFC01FF80
0FFC01FF80
0FFC01FF80
0FFC01FF80
0FF801FF00
1FF803FF00
1FF803FF00
1FFC03FF00
1FFC07FF00
1FFE0FFF00
1FFFFFFE00
3FFFFFFE00
3FFFFFFE00
3FFFFFFE00
3FFFFFFE00
3FEFFBFE00
3FE7F3FE00
3FE0000000
7FE0000000
7FE0000000
7FE0000000
7FC0000000
7FC0000000
7FC0000000
FFC0000000
FFC0000000
FFC0000000
FFC0000000
FF80000000
ENDCHAR
STARTCHAR 00B6
ENCODING 182
SWIDTH 486 0
DWIDTH 27 0
BBX 26 40 1 0
BITMAP
03FFFFC0
0FFFFFC0
1FFFFFC0
3FFC3E00
7FFC3E00
FFFC3E00
FFFC3E00
FFFC3E00
FFFC3E00
FFFC3E00
FFFC3E00
FFFC3E00
FFFC3E00
7FFC3E00
7FFC3E00
3FFC3E00
1FFC3E00
07FC3E00
01FC3E00
003C3E00
003C3E00
003C3E00
003C3E00
003C3E00
003C3E00
003C3E00
003C3E00
003C3E00
003C3E00
003C3E00
003C3E00
003C3E00
003C3E00
003C3E00
003C3E00
003C3E00
003C3E00
003C3E00
003C3E00
003C3E00
ENDCHAR
STARTCHAR 00B7
ENCODING 183
SWIDTH 270 0
DWIDTH 15 0
BBX 11 11 2 14
BITMAP
1F80
3FC0
7FE0
FFE0
FFE0
FFE0
FFE0
7FE0
7FC0
3F80
0E00
ENDCHAR
STARTCHAR 00B8
ENCODING 184
SWIDTH 486 0
DWIDTH 27 0
BBX 14 16 8 -13
BITMAP
0380
0300
0700
0700
0700
0700
07F0
0FF8
0FFC
007C
007C
007C
F8FC
FFF8
FFF8
3FE0
ENDCHAR
STARTCHAR 00B9
ENCODING 185
SWIDTH 360 0
DWIDTH 20 0
BBX 10 23 5 16
BITMAP
FFC0
FFC0
FFC0
FFC0
FFC0
0FC0
0FC0
0FC0
0FC0
0FC0
0FC0
0FC0
0FC0
0FC0
0FC0
0FC0
0FC0
0FC0
0FC0
0FC0
0FC0
0FC0
0FC0
ENDCHAR
STARTCHAR 00BA
ENCODING 186
SWIDTH 396 0
DWIDTH 22 0
BBX 21 20 1 19
BITMAP
03FE00
07FF00
1FFFC0
3FFFE0
3FFFE0
7FFFF0
7F07F0
FE03F8
FE03F8
FE03F8
FE03F8
FE03F8
FF07F8
7FDFF0
7FFFF0
3FFFE0
1FFFC0
0FFF80
07FF00
00F800
ENDCHAR
STARTCHAR 00BB
ENCODING 187
SWIDTH 540 0
DWIDTH 30 0
BBX 24 17 3 5
BITMAP
FE1FC0
7E0FE0
3F07E0
1F83F0
0FC1F8
0FE1FC
07E0FE
03F07E
03F87F
03F07E
07E0FC
0FC1F8
1F83F8
3F87F0
3F07E0
7E0FC0
FC1F80
ENDCHAR
STARTCHAR 00BC
ENCODING 188
SWIDTH 864 0
DWIDTH 48 0
BBX 43 39 5 0
BITMAP
FF80000F8000
FF80001F8000
FF80001F0000
FF80003E0000
FF80007E0000
0F80007C0000
0F8000FC0000
0F8000F80000
0F8001F00000
0F8003F00000
0F8003E00000
0F8007E00000
0F8007C00000
0F800FC00000
0F800F800000
0F801F000000
0F803F000000
0F803E007D00
0F807E00FD00
0F807C01FB00
0F80FC01F300
0F80F803F700
0001F003E700
0003F007EF00
0003E00FDF00
0007E00F9F00
0007C01F9F00
000FC03F1F00
000F803E1F00
001F007E1F00
003F007FFFE0
003E007FFFE0
007E007FFFE0
007C003FFFE0
00FC0007FFE0
01F800001F00
01F000001F00
03F000001F00
03E000001F00
ENDCHAR
STARTCHAR 00BD
ENCODING 189
SWIDTH 864 0
DWIDTH 48 0
BBX 42 39 5 0
BITMAP
FF80000F8000
FF80001F8000
FF80001F0000
FF80003E0000
FF80007E0000
0F80007C0000
0F8000FC0000
0F8000F80000
0F8001F00000
0F8003F00000
0F8003E00000
0F8007E00000
0F8007C00000
0F800FC00000
0F800F800000
0F801F000000
0F803F000000
0F803E03F800
0F807E0FFE00
0F807C1FFF00
0F80FC1FFF80
0F80F83FFFC0
0001F03F0FC0
0003F03E0FC0
0003E03F0FC0
0007E03F9F80
0007C03F3F80
000FC01E7F00
000F800CFE00
001F0001FE00
003F0003F800
003E0007F000
007E000FE000
007C001FC000
00FC003FFFC0
01F8003FFFC0
01F0003FFFC0
03F0003FFFC0
03E0001FFFC0
ENDCHAR
STARTCHAR 00BE
ENCODING 190
SWIDTH 864 0
DWIDTH 48 0
BBX 46 39 2 0
BITMAP
FFF00001F000
FFFC0003F000
FFFE0003E000
FFFE0007C000
FFFE000FC000
00FE000F8000
01FC001F8000
03F0001F0000
0FE0003E0000
1FF0007E0000
1FFC007C0000
1FFE00FC0000
1FFF00F80000
003F01F80000
003F01F00000
003F03E00000
007F07E00000
FFFF07C00FA0
FFFE0FC01FA0
FFFE0F803F60
FFF81F803E60
FFE01F007EE0
00003E007CE0
00007E00FDE0
00007C01FBE0
0000FC01F3E0
0000F803F3E0
0001F807E3E0
0001F007C3E0
0003E00FC3E0
0007E00FFFFC
0007C00FFFFC
000FC00FFFFC
000F8007FFFC
001F8000FFFC
003F000003E0
003E000003E0
007E000003E0
007C000003E0
ENDCHAR
STARTCHAR 00BF
ENCODING 191
SWIDTH 504 0
DWIDTH 28 0
BBX 26 40 2 0
BITMAP
003F0000
007F8000
00FFC000
00FFC000
00FFE000
00FFE000
00FFC000
00FFC000
007F8000
003F0000
00040000
00000000
00000000
007FC000
007FC000
007FC000
01FFC000
07FFC000
1FFFC000
3FFFC000
3FFFC000
7FFFC000
7FFFC000
FFFFC000
FFE00000
FFC00000
FFC00000
FF804000
FFC07C00
FFC0FFC0
FFE1FF80
FFFFFF80
7FFFFF80
7FFFFF00
3FFFFF00
1FFFFE00
0FFFFC00
07FFF800
01FFE000
001E0000
ENDCHAR
STARTCHAR 00C0
ENCODING 192
SWIDTH 612 0
DWIDTH 34 0
BBX 29 53 3 0
BITMAP
03F80000
01FC0000
00FE0000
007E0000
003F0000
001F0000
001F8000
000F8000
0007C000
0003C000
0001E000
00000000
00000000
00020000
007FF000
01FFFC00
07FFFF00
0FFFFF80
1FFFFFC0
3FFFFFC0
3FFFFFE0
7FFFFFE0
7FFFFFF0
FFF07FF0
FFE03FF8
FFC01FF8
FFC01FF8
FF801FF8
FF800FF8
FF9FFFF8
FF9FFFF8
FF9FFFF8
FF9FFFF8
FF9FFFF8
FF9FFFF8
FF9FFFF8
FF9FFFF8
FF9FFFF8
FF9FFFF8
FF800FF8
FF800FF8
FF800FF8
FF800FF8
FF800FF8
FF800FF8
FF800FF8
FF800FF8
FF800FF8
FF800FF8
FF800FF8
FF800FF8
FF800FF8
FF800FF8
ENDCHAR
STARTCHAR 00C1
ENCODING 193
SWIDTH 612 0
DWIDTH 34 0
BBX 29 53 3 0
BITMAP
0001FC00
0001FC00
0003F800
0003F000
0007E000
0007C000
000F8000
000F0000
001F0000
001E0000
003C0000
00000000
00000000
00020000
007FF000
01FFFC00
07FFFF00
0FFFFF80
1FFFFFC0
3FFFFFC0
3FFFFFE0
7FFFFFE0
7FFFFFF0
FFF07FF0
FFE03FF8
FFC01FF8
FFC01FF8
FF801FF8
FF800FF8
FF9FFFF8
FF9FFFF8
FF9FFFF8
FF9FFFF8
FF9FFFF8
FF9FFFF8
FF9FFFF8
FF9FFFF8
FF9FFFF8
FF9FFFF8
FF800FF8
FF800FF8
FF800FF8
FF800FF8
FF800FF8
FF800FF8
FF800FF8
FF800FF8
FF800FF8
FF800FF8
FF800FF8
FF800FF8
FF800FF8
FF800FF8
ENDCHAR
STARTCHAR 00C2
ENCODING 194
SWIDTH 612 0
DWIDTH 34 0
BBX 29 51 3 0
BITMAP
001FC000
003FC000
003FE000
007FF000
007DF000
00F8F800
00F0F800
01F07C00
01E03C00
03C01E00
00000000
00020000
007FF000
01FFFC00
07FFFF00
0FFFFF80
1FFFFFC0
3FFFFFC0
3FFFFFE0
7FFFFFE0
7FFFFFF0
FFF07FF0
FFE03FF8
FFC01FF8
FFC01FF8
FF801FF8
FF800FF8
FF9FFFF8
FF9FFFF8
FF9FFFF8
FF9FFFF8
FF9FFFF8
FF9FFFF8
FF9FFFF8
FF9FFFF8
FF9FFFF8
FF9FFFF8
FF800FF8
FF800FF8
FF800FF8
FF800FF8
FF800FF8
FF800FF8
FF800FF8
FF800FF8
FF800FF8
FF800FF8
FF800FF8
FF800FF8
FF800FF8
FF800FF8
ENDCHAR
STARTCHAR 00C3
ENCODING 195
SWIDTH 612 0
DWIDTH 34 0
BBX 29 51 3 0
BITMAP
00000E00
007E1E00
00FFFC00
01FFFC00
01FFF800
03C7F000
03800000
00000000
00000000
00000000
00000000
00020000
007FF000
01FFFC00
07FFFF00
0FFFFF80
1FFFFFC0
3FFFFFC0
3FFFFFE0
7FFFFFE0
7FFFFFF0
FFF07FF0
FFE03FF8
FFC01FF8
FFC01FF8
FF801FF8
FF800FF8
FF9FFFF8
FF9FFFF8
FF9FFFF8
FF9FFFF8
FF9FFFF8
FF9FFFF8
FF9FFFF8
FF9FFFF8
FF9FFFF8
FF9FFFF8
FF800FF8
FF800FF8
FF800FF8
FF800FF8
FF800FF8
FF800FF8
FF800FF8
FF800FF8
FF800FF8
FF800FF8
FF800FF8
FF800FF8
FF800FF8
FF800FF8
ENDCHAR
STARTCHAR 00C4
ENCODING 196
SWIDTH 612 0
DWIDTH 34 0
BBX 29 51 3 0
BITMAP
00E07800
01F8FC00
03F8FE00
03F8FE00
03F8FE00
01F8FC00
00F07800
00000000
00000000
00000000
00000000
00020000
007FF000
01FFFC00
07FFFF00
0FFFFF80
1FFFFFC0
3FFFFFC0
3FFFFFE0
7FFFFFE0
7FFFFFF0
FFF07FF0
FFE03FF8
FFC01FF8
FFC01FF8
FF801FF8
FF800FF8
FF9FFFF8
FF9FFFF8
FF9FFFF8
FF9FFFF8
FF9FFFF8
FF9FFFF8
FF9FFFF8
FF9FFFF8
FF9FFFF8
FF9FFFF8
FF800FF8
FF800FF8
FF800FF8
FF800FF8
FF800FF8
FF800FF8
FF800FF8
FF800FF8
FF800FF8
FF800FF8
FF800FF8
FF800FF8
FF800FF8
FF800FF8
ENDCHAR
STARTCHAR 00C5
ENCODING 197
SWIDTH 612 0
DWIDTH 34 0
BBX 29 53 3 0
BITMAP
001FC000
003FE000
007FF000
00FDF800
00F07800
01E07800
01E03800
01E07800
00F07800
00F8F800
007FF000
007FE000
001FC000
00020000
007FF000
01FFFC00
07FFFF00
0FFFFF80
1FFFFFC0
3FFFFFC0
3FFFFFE0
7FFFFFE0
7FFFFFF0
FFF07FF0
FFE03FF8
FFC01FF8
FFC01FF8
FF801FF8
FF800FF8
FF9FFFF8
FF9FFFF8
FF9FFFF8
FF9FFFF8
FF9FFFF8
FF9FFFF8
FF9FFFF8
FF9FFFF8
FF9FFFF8
FF9FFFF8
FF800FF8
FF800FF8
FF800FF8
FF800FF8
FF800FF8
FF800FF8
FF800FF8
FF800FF8
FF800FF8
FF800FF8
FF800FF8
FF800FF8
FF800FF8
FF800FF8
ENDCHAR
STARTCHAR 00C6
ENCODING 198
SWIDTH 864 0
DWIDTH 48 0
BBX 43 39 3 0
BITMAP
007FE00007E0
01FFF800FFE0
07FFFE07FFE0
0FFFFF1FFFE0
1FFFFFBFFFE0
3FFFFFFFFFE0
3FFFFFFFFFE0
7FFFFFFFFFE0
7FFFFFFFFFE0
FFF07FFFE000
FFC03FFF8000
FFC01FFE0000
FFC01FFC0000
FF801FF80000
FF800FF80000
FF9FFFFFFFE0
FF9FFFFFFFE0
FF9FFFFFFFE0
FF9FFFFFFFE0
FF9FFFFFFFE0
FF9FFFFFFFE0
FF9FFFFFFFE0
FF9FFFFFFFE0
FF800FF00000
FF800FF80000
FF800FF80000
FF800FFC0000
FF800FFE0000
FF800FFF0000
FF800FFFE000
FF800FFFFFE0
FF800FFFFFE0
FF800FFFFFE0
FF800FFFFFE0
FF800FFFFFE0
FF800FFFFFE0
FF800FFFFFE0
FF800FF9FFE0
FF800FF81FE0
ENDCHAR
STARTCHAR 00C7
ENCODING 199
SWIDTH 504 0
DWIDTH 28 0
BBX 25 52 2 -13
BITMAP
00003F80
0007FF80
003FFF80
00FFFF80
01FFFF80
03FFFF80
07FFFF80
0FFFFF80
1FFFFF80
3FFFE000
3FFE0000
7FF80000
7FF00000
FFE00000
FFE00000
FFC00000
FFC00000
FFC00000
FF800000
FF800000
FF800000
FFC00000
FFC00000
FFC00000
FFE00000
FFE00000
7FF00000
7FF80000
3FFE0000
3FFFC000
1FFFFF80
0FFFFF80
0FFFFF80
07FFFF80
01FFFF80
00FFFF80
003FFF80
000FFF80
0003FF80
00030000
00070000
00078000
0007F800
0007FC00
0007FC00
00007C00
00003E00
00003E00
00FCFC00
00FFFC00
00FFF800
001FE000
ENDCHAR
STARTCHAR 00C8
ENCODING 200
SWIDTH 522 0
DWIDTH 29 0
BBX 25 53 2 0
BITMAP
00FE0000
007F0000
003F0000
001F8000
000F8000
000FC000
0007C000
0003E000
0001F000
0000F000
00007800
00000000
00000000
00000000
00003F80
0007FF80
003FFF80
00FFFF80
01FFFF80
03FFFF80
07FFFF80
0FFFFF80
1FFFFF80
3FFF8000
3FFE0000
7FF80000
7FF00000
FFE00000
FFE00000
FFFFFF80
FFFFFF80
FFFFFF80
FFFFFF80
FFFFFF80
FFFFFF80
FFFFFF80
FFFFFF80
FFFFFF80
FFC00000
FFE00000
7FF00000
7FF80000
3FFC0000
3FFF8000
1FFFFF80
0FFFFF80
0FFFFF80
07FFFF80
01FFFF80
00FFFF80
003FFF80
000FFF80
00007F80
ENDCHAR
STARTCHAR 00C9
ENCODING 201
SWIDTH 522 0
DWIDTH 29 0
BBX 25 53 2 0
BITMAP
00007F00
00007E00
0000FE00
0000FC00
0001F800
0001F000
0003E000
0007C000
00078000
000F8000
000F0000
00000000
00000000
00000000
00003F80
0007FF80
003FFF80
00FFFF80
01FFFF80
03FFFF80
07FFFF80
0FFFFF80
1FFFFF80
3FFF8000
3FFE0000
7FF80000
7FF00000
FFE00000
FFE00000
FFFFFF80
FFFFFF80
FFFFFF80
FFFFFF80
FFFFFF80
FFFFFF80
FFFFFF80
FFFFFF80
FFFFFF80
FFC00000
FFE00000
7FF00000
7FF80000
3FFC0000
3FFF8000
1FFFFF80
0FFFFF80
0FFFFF80
07FFFF80
01FFFF80
00FFFF80
003FFF80
000FFF80
00007F80
ENDCHAR
STARTCHAR 00CA
ENCODING 202
SWIDTH 522 0
DWIDTH 29 0
BBX 25 51 2 0
BITMAP
0007F000
000FF000
000FF800
001FF800
003F7C00
003E7C00
007C3E00
00781E00
00F80F00
00F00780
00000000
00000000
00003F80
0007FF80
003FFF80
00FFFF80
01FFFF80
03FFFF80
07FFFF80
0FFFFF80
1FFFFF80
3FFF8000
3FFE0000
7FF80000
7FF00000
FFE00000
FFE00000
FFFFFF80
FFFFFF80
FFFFFF80
FFFFFF80
FFFFFF80
FFFFFF80
FFFFFF80
FFFFFF80
FFFFFF80
FFC00000
FFE00000
7FF00000
7FF80000
3FFC0000
3FFF8000
1FFFFF80
0FFFFF80
0FFFFF80
07FFFF80
01FFFF80
00FFFF80
003FFF80
000FFF80
00007F80
ENDCHAR
STARTCHAR 00CB
ENCODING 203
SWIDTH 522 0
DWIDTH 29 0
BBX 25 51 2 0
BITMAP
00381E00
007C3F00
00FE3F00
00FE7F80
00FE3F00
00FE3F00
007C1E00
00000000
00000000
00000000
00000000
00000000
00003F80
0007FF80
003FFF80
00FFFF80
01FFFF80
03FFFF80
07FFFF80
0FFFFF80
1FFFFF80
3FFF8000
3FFE0000
7FF80000
7FF00000
FFE00000
FFE00000
FFFFFF80
FFFFFF80
FFFFFF80
FFFFFF80
FFFFFF80
FFFFFF80
FFFFFF80
FFFFFF80
FFFFFF80
FFC00000
FFE00000
7FF00000
7FF80000
3FFC0000
3FFF8000
1FFFFF80
0FFFFF80
0FFFFF80
07FFFF80
01FFFF80
00FFFF80
003FFF80
000FFF80
00007F80
ENDCHAR
STARTCHAR 00CC
ENCODING 204
SWIDTH 270 0
DWIDTH 15 0
BBX 13 53 0 0
BITMAP
FE00
7E00
3F00
3F00
1F80
0FC0
07C0
03E0
01E0
01F0
00F0
0000
0000
0000
1FF8
1FF8
1FF8
1FF8
1FF8
1FF8
1FF8
1FF8
1FF8
1FF8
1FF8
1FF8
1FF8
1FF8
1FF8
1FF8
1FF8
1FF8
1FF8
1FF8
1FF8
1FF8
1FF8
1FF8
1FF8
1FF8
1FF8
1FF8
1FF8
1FF8
1FF8
1FF8
1FF8
1FF8
1FF8
1FF8
1FF8
1FF8
1FF8
ENDCHAR
STARTCHAR 00CD
ENCODING 205
SWIDTH 270 0
DWIDTH 15 0
BBX 13 53 3 0
BITMAP
03F8
07F0
07E0
0FC0
0F80
1F80
1F00
3E00
3C00
7800
F000
0000
0000
0000
FFC0
FFC0
FFC0
FFC0
FFC0
FFC0
FFC0
FFC0
FFC0
FFC0
FFC0
FFC0
FFC0
FFC0
FFC0
FFC0
FFC0
FFC0
FFC0
FFC0
FFC0
FFC0
FFC0
FFC0
FFC0
FFC0
FFC0
FFC0
FFC0
FFC0
FFC0
FFC0
FFC0
FFC0
FFC0
FFC0
FFC0
FFC0
FFC0
ENDCHAR
STARTCHAR 00CE
ENCODING 206
SWIDTH 270 0
DWIDTH 15 0
BBX 17 53 -1 0
BITMAP
03F000
07F800
07F800
0FFC00
1FFC00
1F3E00
3E3E00
3E1F00
7C0F00
780780
F00380
000000
000000
000000
0FFC00
0FFC00
0FFC00
0FFC00
0FFC00
0FFC00
0FFC00
0FFC00
0FFC00
0FFC00
0FFC00
0FFC00
0FFC00
0FFC00
0FFC00
0FFC00
0FFC00
0FFC00
0FFC00
0FFC00
0FFC00
0FFC00
0FFC00
0FFC00
0FFC00
0FFC00
0FFC00
0FFC00
0FFC00
0FFC00
0FFC00
0FFC00
0FFC00
0FFC00
0FFC00
0FFC00
0FFC00
0FFC00
0FFC00
ENDCHAR
STARTCHAR 00CF
ENCODING 207
SWIDTH 270 0
DWIDTH 15 0
BBX 16 51 0 0
BITMAP
781C
FC3E
FC7F
FE7F
FE7F
FC3F
781E
0000
0000
0000
0000
0000
1FF8
1FF8
1FF8
1FF8
1FF8
1FF8
1FF8
1FF8
1FF8
1FF8
1FF8
1FF8
1FF8
1FF8
1FF8
1FF8
1FF8
1FF8
1FF8
1FF8
1FF8
1FF8
1FF8
1FF8
1FF8
1FF8
1FF8
1FF8
1FF8
1FF8
1FF8
1FF8
1FF8
1FF8
1FF8
1FF8
1FF8
1FF8
1FF8
ENDCHAR
STARTCHAR 00D0
ENCODING 208
SWIDTH 630 0
DWIDTH 35 0
BBX 34 39 0 0
BITMAP
1FFF800000
1FFFFC0000
1FFFFF0000
1FFFFFC000
1FFFFFE000
1FFFFFF000
1FFFFFF800
1FFFFFFC00
1FFFFFFE00
1FF8FFFF00
1FF81FFF00
1FF807FF80
1FF803FF80
1FF801FF80
1FF801FFC0
1FF800FFC0
FFFF80FFC0
FFFF80FFC0
FFFF80FFC0
FFFF80FFC0
FFFF80FFC0
FFFF80FFC0
1FF800FFC0
1FF800FFC0
1FF801FFC0
1FF801FF80
1FF803FF80
1FF807FF80
1FF81FFF00
1FF8FFFF00
1FFBFFFE00
1FFBFFFC00
1FFBFFF800
1FFBFFF000
1FFBFFE000
1FFBFFC000
1FFBFF0000
1FFBFC0000
1FFBE00000
ENDCHAR
STARTCHAR 00D1
ENCODING 209
SWIDTH 648 0
DWIDTH 36 0
BBX 31 52 3 -1
BITMAP
00000700
003F0F00
007FFE00
00FFFE00
00FFFC00
01E3F800
01C00000
00000000
00000000
00000000
00000000
0E000000
3F8007FE
7FE007FE
7FE007FE
FFF007FE
FFF807FE
FFF807FE
FFFC07FE
FFFC07FE
FFFE07FE
FFFE07FE
FFFF07FE
FFFF07FE
FFFF87FE
FFFFC3FE
FF7FC3FE
FF7FE3FE
FFBFE3FE
FFBFF3FE
FF9FF3FE
FF9FFBFE
FF8FFBFE
FF8FFFFE
FF87FFFE
FF83FFFE
FF83FFFE
FF81FFFE
FF81FFFE
FF80FFFE
FF80FFFE
FF807FFE
FF807FFE
FF803FFE
FF801FFE
FF801FFE
FF800FFE
FF800FFE
FF8007FC
FF8003FC
FF8001F8
00000060
ENDCHAR
STARTCHAR 00D2
ENCODING 210
SWIDTH 756 0
DWIDTH 42 0
BBX 39 54 2 -1
BITMAP
000FE00000
000FE00000
0007F00000
0003F00000
0001F80000
0000F80000
00007C0000
00007C0000
00003E0000
00001E0000
00000F0000
0000000000
0000000000
0000000000
0007FFC000
001FFFF000
007FFFFC00
01FFFFFF00
03FFFFFF80
07FFFFFFC0
0FFFFFFFE0
1FFFFFFFE0
1FFFFFFFF0
3FFF83FFF8
3FFC007FF8
7FF8003FFC
7FF0001FFC
FFE0000FFE
FFE0000FFE
FFC00007FE
FFC00007FE
FFC00007FE
FF800007FE
FF800007FE
FF800007FE
FFC00007FE
FFC00007FE
FFC00007FE
FFE0000FFE
FFE0000FFE
7FF0001FFC
7FF8003FFC
3FFC007FF8
3FFF01FFF8
1FFFFFFFF0
1FFFFFFFF0
0FFFFFFFE0
07FFFFFFC0
03FFFFFF80
01FFFFFF00
007FFFFC00
003FFFF800
0007FFE000
0000380000
ENDCHAR
STARTCHAR 00D3
ENCODING 211
SWIDTH 756 0
DWIDTH 42 0
BBX 39 54 2 -1
BITMAP
00000FE000
00000FE000
00001FC000
00001F8000
00003F0000
00003E0000
00007C0000
00007C0000
0000F80000
0000F00000
0001E00000
0000000000
0000000000
0000000000
0007FFC000
001FFFF000
007FFFFC00
01FFFFFF00
03FFFFFF80
07FFFFFFC0
0FFFFFFFE0
1FFFFFFFE0
1FFFFFFFF0
3FFF83FFF8
3FFC007FF8
7FF8003FFC
7FF0001FFC
FFE0000FFE
FFE0000FFE
FFC00007FE
FFC00007FE
FFC00007FE
FF800007FE
FF800007FE
FF800007FE
FFC00007FE
FFC00007FE
FFC00007FE
FFE0000FFE
FFE0000FFE
7FF0001FFC
7FF8003FFC
3FFC007FF8
3FFF01FFF8
1FFFFFFFF0
1FFFFFFFF0
0FFFFFFFE0
07FFFFFFC0
03FFFFFF80
01FFFFFF00
007FFFFC00
003FFFF800
0007FFE000
0000380000
ENDCHAR
STARTCHAR 00D4
ENCODING 212
SWIDTH 756 0
DWIDTH 42 0
BBX 39 52 2 -1
BITMAP
0000FE0000
0001FF0000
0001FF0000
0003FF8000
0003EF8000
0007C7C000
000787C000
000F83E000
000F01E000
001E00F000
0000000000
0000000000
0007FFC000
001FFFF000
007FFFFC00
01FFFFFF00
03FFFFFF80
07FFFFFFC0
0FFFFFFFE0
1FFFFFFFE0
1FFFFFFFF0
3FFF83FFF8
3FFC007FF8
7FF8003FFC
7FF0001FFC
FFE0000FFE
FFE0000FFE
FFC00007FE
FFC00007FE
FFC00007FE
FF800007FE
FF800007FE
FF800007FE
FFC00007FE
FFC00007FE
FFC00007FE
FFE0000FFE
FFE0000FFE
7FF0001FFC
7FF8003FFC
3FFC007FF8
3FFF01FFF8
1FFFFFFFF0
1FFFFFFFF0
0FFFFFFFE0
07FFFFFFC0
03FFFFFF80
01FFFFFF00
007FFFFC00
003FFFF800
0007FFE000
0000380000
ENDCHAR
STARTCHAR 00D5
ENCODING 213
SWIDTH 756 0
DWIDTH 42 0
BBX 39 52 2 -1
BITMAP
0000007000
0003F0F000
0007FFE000
000FFFE000
000FFFC000
001E3F8000
001C000000
0000000000
0000000000
0000000000
0000000000
0000000000
0007FFC000
001FFFF000
007FFFFC00
01FFFFFF00
03FFFFFF80
07FFFFFFC0
0FFFFFFFE0
1FFFFFFFE0
1FFFFFFFF0
3FFF83FFF8
3FFC007FF8
7FF8003FFC
7FF0001FFC
FFE0000FFE
FFE0000FFE
FFC00007FE
FFC00007FE
FFC00007FE
FF800007FE
FF800007FE
FF800007FE
FFC00007FE
FFC00007FE
FFC00007FE
FFE0000FFE
FFE0000FFE
7FF0001FFC
7FF8003FFC
3FFC007FF8
3FFF01FFF8
1FFFFFFFF0
1FFFFFFFF0
0FFFFFFFE0
07FFFFFFC0
03FFFFFF80
01FFFFFF00
007FFFFC00
003FFFF800
0007FFE000
0000380000
ENDCHAR
STARTCHAR 00D6
ENCODING 214
SWIDTH 756 0
DWIDTH 42 0
BBX 39 52 2 -1
BITMAP
000781C000
000FC7E000
001FC7F000
001FC7F000
001FC7F000
000FC7E000
000783C000
0000000000
0000000000
0000000000
0000000000
0000000000
0007FFC000
001FFFF000
007FFFFC00
01FFFFFF00
03FFFFFF80
07FFFFFFC0
0FFFFFFFE0
1FFFFFFFE0
1FFFFFFFF0
3FFF83FFF8
3FFC007FF8
7FF8003FFC
7FF0001FFC
FFE0000FFE
FFE0000FFE
FFC00007FE
FFC00007FE
FFC00007FE
FF800007FE
FF800007FE
FF800007FE
FFC00007FE
FFC00007FE
FFC00007FE
FFE0000FFE
FFE0000FFE
7FF0001FFC
7FF8003FFC
3FFC007FF8
3FFF01FFF8
1FFFFFFFF0
1FFFFFFFF0
0FFFFFFFE0
07FFFFFFC0
03FFFFFF80
01FFFFFF00
007FFFFC00
003FFFF800
0007FFE000
0000380000
ENDCHAR
STARTCHAR 00D7
ENCODING 215
SWIDTH 828 0
DWIDTH 46 0
BBX 33 33 7 0
BITMAP
0800000800
1C00001C00
3E00003E00
7F00007F00
FF8000FF80
7FC001FF00
3FE003FE00
1FF007FC00
0FF80FF800
07FC1FF000
03FE3FE000
01FF7FC000
00FFFF8000
007FFF0000
003FFE0000
001FFC0000
000FF80000
001FFC0000
003FFE0000
007FFF0000
00FFFF8000
01FF7FC000
03FE3FE000
07FC1FF000
0FF80FF800
1FF007FC00
3FE003FE00
7FC001FF00
FF8000FF80
7F00007F00
3E00003E00
1C00001C00
0800000800
ENDCHAR
STARTCHAR 00D8
ENCODING 216
SWIDTH 756 0
DWIDTH 42 0
BBX 39 43 2 -3
BITMAP
0000000030
0000100078
0007FFC0FC
001FFFF0FE
007FFFFDFC
01FFFFFFF8
03FFFFFFF0
07FFFFFFE0
0FFFFFFFE0
1FFFFFFFE0
1FFFFFFFF0
3FFF01FFF8
3FFC00FFF8
7FF801FFFC
7FF003FFFC
FFE007FFFC
FFC00FE7FE
FFC01FC7FE
FFC01F87FE
FF803F83FE
FF807F03FE
FF80FE03FE
FF81FC03FE
FF83F803FE
FFC7F007FE
FFCFE007FE
FFDFC007FE
FFFF800FFE
7FFF801FFC
7FFF003FFC
3FFE007FF8
3FFF01FFF8
1FFFFFFFF0
1FFFFFFFF0
0FFFFFFFE0
1FFFFFFFC0
3FFFFFFF80
3FFFFFFF00
7F7FFFFC00
FE3FFFF800
FC07FFE000
78007C0000
3800000000
ENDCHAR
STARTCHAR 00D9
ENCODING 217
SWIDTH 612 0
DWIDTH 34 0
BBX 29 54 3 -1
BITMAP
03F80000
01FC0000
00FE0000
007E0000
003F0000
001F0000
001F8000
000F8000
0007C000
0003C000
0001E000
00000000
00000000
00000000
FF800FF8
FF800FF8
FF800FF8
FF800FF8
FF800FF8
FF800FF8
FF800FF8
FF800FF8
FF800FF8
FF800FF8
FF800FF8
FF800FF8
FF800FF8
FF800FF8
FF800FF8
FF800FF8
FF800FF8
FF800FF8
FF800FF8
FF800FF8
FF800FF8
FF800FF8
FF800FF8
FF800FF8
FF801FF8
FF801FF8
FFC01FF8
FFC01FF8
FFC03FF8
FFF07FF0
7FFFFFF0
7FFFFFF0
3FFFFFE0
3FFFFFC0
1FFFFFC0
0FFFFF80
07FFFF00
03FFFC00
00FFF800
000F0000
ENDCHAR
STARTCHAR 00DA
ENCODING 218
SWIDTH 612 0
DWIDTH 34 0
BBX 29 54 3 -1
BITMAP
0001FC00
0001FC00
0003F800
0003F000
0007E000
0007C000
000F8000
000F0000
001F0000
001E0000
003C0000
00000000
00000000
00000000
FF800FF8
FF800FF8
FF800FF8
FF800FF8
FF800FF8
FF800FF8
FF800FF8
FF800FF8
FF800FF8
FF800FF8
FF800FF8
FF800FF8
FF800FF8
FF800FF8
FF800FF8
FF800FF8
FF800FF8
FF800FF8
FF800FF8
FF800FF8
FF800FF8
FF800FF8
FF800FF8
FF800FF8
FF801FF8
FF801FF8
FFC01FF8
FFC01FF8
FFC03FF8
FFF07FF0
7FFFFFF0
7FFFFFF0
3FFFFFE0
3FFFFFC0
1FFFFFC0
0FFFFF80
07FFFF00
03FFFC00
00FFF800
000F0000
ENDCHAR
STARTCHAR 00DB
ENCODING 219
SWIDTH 612 0
DWIDTH 34 0
BBX 29 54 3 -1
BITMAP
001FC000
001FC000
003FE000
003FE000
007FF000
00FDF000
00F8F800
01F07800
01E07C00
03C03C00
03C01E00
00000000
00000000
00000000
FF800FF8
FF800FF8
FF800FF8
FF800FF8
FF800FF8
FF800FF8
FF800FF8
FF800FF8
FF800FF8
FF800FF8
FF800FF8
FF800FF8
FF800FF8
FF800FF8
FF800FF8
FF800FF8
FF800FF8
FF800FF8
FF800FF8
FF800FF8
FF800FF8
FF800FF8
FF800FF8
FF800FF8
FF801FF8
FF801FF8
FFC01FF8
FFC01FF8
FFC03FF8
FFF07FF0
7FFFFFF0
7FFFFFF0
3FFFFFE0
3FFFFFC0
1FFFFFC0
0FFFFF80
07FFFF00
03FFFC00
00FFF800
000F0000
ENDCHAR
STARTCHAR 00DC
ENCODING 220
SWIDTH 612 0
DWIDTH 34 0
BBX 29 52 3 -1
BITMAP
00E07800
01F8FC00
03F8FE00
03F8FE00
03F8FE00
01F8FC00
00F07800
00000000
00000000
00000000
00000000
00000000
FF800FF8
FF800FF8
FF800FF8
FF800FF8
FF800FF8
FF800FF8
FF800FF8
FF800FF8
FF800FF8
FF800FF8
FF800FF8
FF800FF8
FF800FF8
FF800FF8
FF800FF8
FF800FF8
FF800FF8
FF800FF8
FF800FF8
FF800FF8
FF800FF8
FF800FF8
FF800FF8
FF800FF8
FF801FF8
FF801FF8
FFC01FF8
FFC01FF8
FFC03FF8
FFF07FF0
7FFFFFF0
7FFFFFF0
3FFFFFE0
3FFFFFC0
1FFFFFC0
0FFFFF80
07FFFF00
03FFFC00
00FFF800
000F0000
ENDCHAR
STARTCHAR 00DD
ENCODING 221
SWIDTH 558 0
DWIDTH 31 0
BBX 27 53 2 0
BITMAP
0001FC00
0003F800
0003F000
0007E000
0007C000
000FC000
000F8000
001F0000
001E0000
003C0000
00780000
00000000
00000000
00000000
FFC03FE0
FFC03FE0
FFC03FE0
FFC03FE0
FFC03FE0
FFC03FE0
FFC03FE0
FFC03FE0
FFC03FE0
FFC03FE0
FFC03FE0
FFC03FE0
FFC03FE0
FFC03FE0
7FC07FE0
7FE07FE0
7FE0FFE0
7FFFFFC0
3FFFFFC0
3FFFFFC0
1FFFFF80
1FFFFF00
0FFFFE00
07FFFC00
01FFF800
007FE000
007FE000
007FE000
007FE000
007FE000
007FE000
007FE000
007FE000
007FE000
007FE000
007FE000
007FE000
007FE000
007FE000
ENDCHAR
STARTCHAR 00DE
ENCODING 222
SWIDTH 558 0
DWIDTH 31 0
BBX 28 40 3 0
BITMAP
FF800000
FF800000
FF800000
FF800000
FF800000
FF800000
FFFFE000
FFFFF800
FFFFFC00
FFFFFF00
FFFFFF00
FFFFFF80
FFFFFFC0
FFFFFFC0
FFFFFFE0
FFE0FFE0
FFC07FE0
FFC07FE0
FF803FF0
FF803FF0
FF803FF0
FF807FE0
FF80FFE0
FF87FFE0
FF9FFFE0
FF9FFFC0
FF9FFFC0
FF9FFF80
FF9FFF00
FF9FFE00
FF9FF800
FF9FE000
FF9F0000
FF800000
FF800000
FF800000
FF800000
FF800000
FF800000
FF800000
ENDCHAR
STARTCHAR 00DF
ENCODING 223
SWIDTH 594 0
DWIDTH 33 0
BBX 32 39 0 0
BITMAP
007FE000
01FFF800
03FFFE00
07FFFF00
07FFFF80
0FFFFF80
0FFFFFC0
1FF8FFC0
1FF07FC0
1FF07FC0
1FF07FC0
FFF07F80
FFF0FF80
FFF0FF00
FFF1FE00
FFF1FF00
FFF3FF80
FFF3FFC0
FFF1FFE0
FFF0FFF0
1FF07FF8
1FF01FFC
1FF00FFC
1FF007FE
1FF003FE
1FF003FE
1FF001FF
1FF001FF
1FF001FF
1FF003FF
1FF007FE
1FF3FFFE
1FF3FFFE
1FF3FFFC
1FF3FFFC
1FF3FFF8
1FF3FFE0
1FF3FFC0
1FF3FE00
ENDCHAR
STARTCHAR 00E0
ENCODING 224
SWIDTH 558 0
DWIDTH 31 0
BBX 28 41 1 0
BITMAP
01FC0000
00FC0000
00FE0000
007E0000
003F0000
001F0000
000F8000
00078000
0007C000
0003C000
00000000
00000000
00000000
003FC000
01FFF800
03FFFC00
07FFFF00
0FFFFF80
1FFFFF80
3FFFFFC0
3FFFFFE0
7FFFFFE0
7FE07FE0
7FC03FF0
FFC01FF0
FF801FF0
FF801FF0
FF801FF0
FF801FF0
FFC01FF0
7FC01FF0
7FE01FF0
7FF8DFF0
3FFFDFF0
3FFFDFF0
1FFFDFF0
1FFFDFF0
0FFFDFF0
07FFDFF0
01FFDFF0
007FDFF0
ENDCHAR
STARTCHAR 00E1
ENCODING 225
SWIDTH 558 0
DWIDTH 31 0
BBX 28 41 1 0
BITMAP
0001FC00
0001FC00
0003F800
0003F000
0007E000
0007C000
000F8000
000F8000
001F0000
001E0000
00000000
00000000
00000000
003FC000
01FFF800
03FFFC00
07FFFF00
0FFFFF80
1FFFFF80
3FFFFFC0
3FFFFFE0
7FFFFFE0
7FE07FE0
7FC03FF0
FFC01FF0
FF801FF0
FF801FF0
FF801FF0
FF801FF0
FFC01FF0
7FC01FF0
7FE01FF0
7FF8DFF0
3FFFDFF0
3FFFDFF0
1FFFDFF0
1FFFDFF0
0FFFDFF0
07FFDFF0
01FFDFF0
007FDFF0
ENDCHAR
STARTCHAR 00E2
ENCODING 226
SWIDTH 558 0
DWIDTH 31 0
BBX 28 41 1 0
BITMAP
001FC000
001FC000
003FE000
003FE000
007FF000
007DF800
00F8F800
00F07C00
01E03C00
01E01E00
00000000
00000000
00000000
003FC000
01FFF800
03FFFC00
07FFFF00
0FFFFF80
1FFFFF80
3FFFFFC0
3FFFFFE0
7FFFFFE0
7FE07FE0
7FC03FF0
FFC01FF0
FF801FF0
FF801FF0
FF801FF0
FF801FF0
FFC01FF0
7FC01FF0
7FE01FF0
7FF8DFF0
3FFFDFF0
3FFFDFF0
1FFFDFF0
1FFFDFF0
0FFFDFF0
07FFDFF0
01FFDFF0
007FDFF0
ENDCHAR
STARTCHAR 00E3
ENCODING 227
SWIDTH 558 0
DWIDTH 31 0
BBX 28 39 1 0
BITMAP
00000E00
007E1E00
00FFFC00
01FFFC00
01FFF800
03C3F000
03800000
00000000
00000000
00000000
00000000
003FC000
01FFF800
03FFFC00
07FFFF00
0FFFFF80
1FFFFF80
3FFFFFC0
3FFFFFE0
7FFFFFE0
7FE07FE0
7FC03FF0
FFC01FF0
FF801FF0
FF801FF0
FF801FF0
FF801FF0
FFC01FF0
7FC01FF0
7FE01FF0
7FF8DFF0
3FFFDFF0
3FFFDFF0
1FFFDFF0
1FFFDFF0
0FFFDFF0
07FFDFF0
01FFDFF0
007FDFF0
ENDCHAR
STARTCHAR 00E4
ENCODING 228
SWIDTH 558 0
DWIDTH 31 0
BBX 28 39 1 0
BITMAP
00F07800
01F8FC00
03F8FE00
03F8FE00
03F8FE00
01F8FC00
00F07800
00000000
00000000
00000000
00000000
003FC000
01FFF800
03FFFC00
07FFFF00
0FFFFF80
1FFFFF80
3FFFFFC0
3FFFFFE0
7FFFFFE0
7FE07FE0
7FC03FF0
FFC01FF0
FF801FF0
FF801FF0
FF801FF0
FF801FF0
FFC01FF0
7FC01FF0
7FE01FF0
7FF8DFF0
3FFFDFF0
3FFFDFF0
1FFFDFF0
1FFFDFF0
0FFFDFF0
07FFDFF0
01FFDFF0
007FDFF0
ENDCHAR
STARTCHAR 00E5
ENCODING 229
SWIDTH 558 0
DWIDTH 31 0
BBX 28 44 1 0
BITMAP
000FE000
003FF000
007FF800
007FFC00
00F87C00
00F03C00
00F01C00
00F01C00
00F03C00
00F87C00
007FFC00
003FF800
001FF000
000FC000
00000000
00000000
003FC000
01FFF800
03FFFC00
07FFFF00
0FFFFF80
1FFFFF80
3FFFFFC0
3FFFFFE0
7FFFFFE0
7FE07FE0
7FC03FF0
FFC01FF0
FF801FF0
FF801FF0
FF801FF0
FF801FF0
FFC01FF0
7FC01FF0
7FE01FF0
7FF8DFF0
3FFFDFF0
3FFFDFF0
1FFFDFF0
1FFFDFF0
0FFFDFF0
07FFDFF0
01FFDFF0
007FDFF0
ENDCHAR
STARTCHAR 00E6
ENCODING 230
SWIDTH 828 0
DWIDTH 46 0
BBX 45 28 1 0
BITMAP
01FF001FE000
1FFFC07FFC00
7FFFF1FFFE00
7FFFFBFFFF00
3FFFFFFFFF80
3FFFFFFFFFC0
1FFFFFFFFFE0
1C01FFF83FE0
0001FFE01FF0
0003FFC07FF0
007FFFC1FFF8
01FFFF87FFE0
07FFFF8FFF80
1FFFFF8FFE00
3FFFFF87F800
7FF87F87E000
FFC07F830100
FF80FFC00380
FF00FFC007E0
FF00FFE01FF0
FF01FFFC7FF8
FFCFFFFFFFF0
FFFFFFFFFFE0
FFFFFFFFFFC0
7FFFF7FFFF80
3FFFE3FFFF00
1FFF80FFFE00
0FFE003FF000
ENDCHAR
STARTCHAR 00E7
ENCODING 231
SWIDTH 378 0
DWIDTH 21 0
BBX 20 41 1 -13
BITMAP
0000F0
003FF0
01FFF0
03FFF0
0FFFF0
1FFFF0
1FFFF0
3FFFF0
7FFFF0
7FF800
7FE000
7FC000
FFC000
FF8000
FF8000
FF8000
7FC000
7FC000
7FF000
7FFE00
3FFFF0
3FFFF0
1FFFF0
0FFFF0
07FFF0
03FFF0
00FFF0
001FF0
001800
003800
003C00
003FC0
003FE0
003FE0
0001E0
0001F0
0001F0
07E7E0
07FFE0
07FFC0
00FF00
ENDCHAR
STARTCHAR 00E8
ENCODING 232
SWIDTH 540 0
DWIDTH 30 0
BBX 29 41 1 0
BITMAP
01F80000
01FC0000
00FE0000
007E0000
003F0000
001F0000
000F8000
000F8000
0007C000
0003C000
00000000
00000000
00000000
001FC000
00FFF800
03FFFC00
07FFFF00
0FFFFF00
1FFFFF80
1FFFFFC0
3FF03FE0
7FE07FE0
7FC1FFC0
7F83FF80
7F8FFE00
FF9FFC00
FF9FF000
FF8FE000
FF8F8380
7F8707E0
7FC007F8
7FE00FF8
7FF03FF0
3FFFFFF0
3FFFFFE0
1FFFFFC0
0FFFFFC0
07FFFF80
03FFFE00
01FFFC00
007FF000
ENDCHAR
STARTCHAR 00E9
ENCODING 233
SWIDTH 540 0
DWIDTH 30 0
BBX 29 41 1 0
BITMAP
0001FC00
0001F800
0003F800
0003F000
0007E000
0007C000
000F8000
000F0000
001E0000
003E0000
00000000
00000000
00000000
001FC000
00FFF800
03FFFC00
07FFFF00
0FFFFF00
1FFFFF80
1FFFFFC0
3FF03FE0
7FE07FE0
7FC1FFC0
7F83FF80
7F8FFE00
FF9FFC00
FF9FF000
FF8FE000
FF8F8380
7F8707E0
7FC007F8
7FE00FF8
7FF03FF0
3FFFFFF0
3FFFFFE0
1FFFFFC0
0FFFFFC0
07FFFF80
03FFFE00
01FFFC00
007FF000
ENDCHAR
STARTCHAR 00EA
ENCODING 234
SWIDTH 540 0
DWIDTH 30 0
BBX 29 41 1 0
BITMAP
001FC000
001FC000
003FE000
007FE000
007FF000
00FDF000
00F8F800
01F07800
01E03C00
03C03C00
00000000
00000000
00000000
001FC000
00FFF800
03FFFC00
07FFFF00
0FFFFF00
1FFFFF80
1FFFFFC0
3FF03FE0
7FE07FE0
7FC1FFC0
7F83FF80
7F8FFE00
FF9FFC00
FF9FF000
FF8FE000
FF8F8380
7F8707E0
7FC007F8
7FE00FF8
7FF03FF0
3FFFFFF0
3FFFFFE0
1FFFFFC0
0FFFFFC0
07FFFF80
03FFFE00
01FFFC00
007FF000
ENDCHAR
STARTCHAR 00EB
ENCODING 235
SWIDTH 540 0
DWIDTH 30 0
BBX 29 39 1 0
BITMAP
00F07800
01F8FC00
03F8FE00
03F8FE00
03F8FE00
01F8FC00
00F07800
00000000
00000000
00000000
00000000
001FC000
00FFF800
03FFFC00
07FFFF00
0FFFFF00
1FFFFF80
1FFFFFC0
3FF03FE0
7FE07FE0
7FC1FFC0
7F83FF80
7F8FFE00
FF9FFC00
FF9FF000
FF8FE000
FF8F8380
7F8707E0
7FC007F8
7FE00FF8
7FF03FF0
3FFFFFF0
3FFFFFE0
1FFFFFC0
0FFFFFC0
07FFFF80
03FFFE00
01FFFC00
007FF000
ENDCHAR
STARTCHAR 00EC
ENCODING 236
SWIDTH 234 0
DWIDTH 13 0
BBX 12 41 -1 0
BITMAP
FE00
7F00
3F00
1F80
1F80
0FC0
07C0
03E0
01E0
00F0
0000
0000
0000
0FF0
0FF0
0FF0
0FF0
0FF0
0FF0
0FF0
0FF0
0FF0
0FF0
0FF0
0FF0
0FF0
0FF0
0FF0
0FF0
0FF0
0FF0
0FF0
0FF0
0FF0
0FF0
0FF0
0FF0
0FF0
0FF0
0FF0
0FF0
ENDCHAR
STARTCHAR 00ED
ENCODING 237
SWIDTH 234 0
DWIDTH 13 0
BBX 12 41 3 0
BITMAP
07F0
0FE0
0FC0
1F80
1F00
3F00
3E00
7C00
7800
F000
0000
0000
0000
FF00
FF00
FF00
FF00
FF00
FF00
FF00
FF00
FF00
FF00
FF00
FF00
FF00
FF00
FF00
FF00
FF00
FF00
FF00
FF00
FF00
FF00
FF00
FF00
FF00
FF00
FF00
FF00
ENDCHAR
STARTCHAR 00EE
ENCODING 238
SWIDTH 234 0
DWIDTH 13 0
BBX 16 41 -1 0
BITMAP
07E0
0FF0
0FF0
1FF8
1FF8
3E7C
7C3C
7C3E
F81E
F00F
0000
0000
0000
0FF0
0FF0
0FF0
0FF0
0FF0
0FF0
0FF0
0FF0
0FF0
0FF0
0FF0
0FF0
0FF0
0FF0
0FF0
0FF0
0FF0
0FF0
0FF0
0FF0
0FF0
0FF0
0FF0
0FF0
0FF0
0FF0
0FF0
0FF0
ENDCHAR
STARTCHAR 00EF
ENCODING 239
SWIDTH 234 0
DWIDTH 13 0
BBX 16 39 -1 0
BITMAP
781E
FC3F
FE7F
FE7F
FE7F
FC3F
781E
0000
0000
0000
0000
0FF0
0FF0
0FF0
0FF0
0FF0
0FF0
0FF0
0FF0
0FF0
0FF0
0FF0
0FF0
0FF0
0FF0
0FF0
0FF0
0FF0
0FF0
0FF0
0FF0
0FF0
0FF0
0FF0
0FF0
0FF0
0FF0
0FF0
0FF0
ENDCHAR
STARTCHAR 00F0
ENCODING 240
SWIDTH 522 0
DWIDTH 29 0
BBX 27 40 1 -1
BITMAP
03FC0000
01FE0800
01FF7C00
00FFFC00
00FFFC00
007FFC00
03FFE000
07FFE000
07FFF000
07DFF000
020FF800
000FFC00
0007FC00
0073FE00
03FBFF00
07F9FF00
0FFDFF80
1FFCFF80
3FFE7FC0
3FFF7FC0
7FF03FE0
7FE03FE0
7FC01FE0
7F801FE0
FF801FE0
FF801FE0
FF801FE0
FF801FE0
7FC03FE0
7FC03FE0
7FF0FFC0
3FFFFFC0
3FFFFFC0
1FFFFF80
1FFFFF00
0FFFFE00
07FFFC00
01FFF800
00FFE000
000E0000
ENDCHAR
STARTCHAR 00F1
ENCODING 241
SWIDTH 522 0
DWIDTH 29 0
BBX 25 39 2 0
BITMAP
00003800
01FC7800
03FFF800
07FFF000
07FFF000
070FC000
0F000000
00000000
00000000
00000000
00000000
007F8000
03FFE000
07FFF800
0FFFFC00
1FFFFE00
3FFFFE00
3FFFFF00
7FFFFF00
7FF3FF80
7FC0FF80
FF80FF80
FF807F80
FF807F80
FF807F80
FF807F80
FF807F80
FF807F80
FF807F80
FF807F80
FF807F80
FF807F80
FF807F80
FF807F80
FF807F80
FF807F80
FF807F80
FF807F80
FF807F80
ENDCHAR
STARTCHAR 00F2
ENCODING 242
SWIDTH 540 0
DWIDTH 30 0
BBX 28 41 1 0
BITMAP
03F80000
01FC0000
00FE0000
007E0000
003F0000
001F0000
000F8000
000F8000
0007C000
0003C000
00000000
00000000
00000000
003FC000
00FFF800
03FFFC00
07FFFF00
0FFFFF80
1FFFFF80
1FFFFFC0
3FFFFFE0
3FFFFFE0
7FE07FE0
7FC03FF0
7FC01FF0
FF801FF0
FF801FF0
FF801FF0
FF801FF0
7FC01FF0
7FC03FF0
7FE07FF0
7FF8FFE0
3FFFFFE0
3FFFFFC0
1FFFFFC0
0FFFFF80
07FFFF00
03FFFE00
01FFF800
007FF000
ENDCHAR
STARTCHAR 00F3
ENCODING 243
SWIDTH 540 0
DWIDTH 30 0
BBX 28 41 1 0
BITMAP
0001FC00
0001F800
0003F800
0003F000
0007E000
0007C000
000F8000
001F0000
001E0000
003E0000
00000000
00000000
00000000
003FC000
00FFF800
03FFFC00
07FFFF00
0FFFFF80
1FFFFF80
1FFFFFC0
3FFFFFE0
3FFFFFE0
7FE07FE0
7FC03FF0
7FC01FF0
FF801FF0
FF801FF0
FF801FF0
FF801FF0
7FC01FF0
7FC03FF0
7FE07FF0
7FF8FFE0
3FFFFFE0
3FFFFFC0
1FFFFFC0
0FFFFF80
07FFFF00
03FFFE00
01FFF800
007FF000
ENDCHAR
STARTCHAR 00F4
ENCODING 244
SWIDTH 540 0
DWIDTH 30 0
BBX 28 41 1 0
BITMAP
001FC000
003FC000
003FE000
007FE000
007FF000
00FDF000
00F8F800
01F07800
01E03C00
03C03C00
00000000
00000000
00000000
003FC000
00FFF800
03FFFC00
07FFFF00
0FFFFF80
1FFFFF80
1FFFFFC0
3FFFFFE0
3FFFFFE0
7FE07FE0
7FC03FF0
7FC01FF0
FF801FF0
FF801FF0
FF801FF0
FF801FF0
7FC01FF0
7FC03FF0
7FE07FF0
7FF8FFE0
3FFFFFE0
3FFFFFC0
1FFFFFC0
0FFFFF80
07FFFF00
03FFFE00
01FFF800
007FF000
ENDCHAR
STARTCHAR 00F5
ENCODING 245
SWIDTH 540 0
DWIDTH 30 0
BBX 28 39 1 0
BITMAP
00000E00
007E1C00
00FFFC00
01FFFC00
03FFF800
03C3F000
03800000
00000000
00000000
00000000
00000000
003FC000
00FFF800
03FFFC00
07FFFF00
0FFFFF80
1FFFFF80
1FFFFFC0
3FFFFFE0
3FFFFFE0
7FE07FE0
7FC03FF0
7FC01FF0
FF801FF0
FF801FF0
FF801FF0
FF801FF0
7FC01FF0
7FC03FF0
7FE07FF0
7FF8FFE0
3FFFFFE0
3FFFFFC0
1FFFFFC0
0FFFFF80
07FFFF00
03FFFE00
01FFF800
007FF000
ENDCHAR
STARTCHAR 00F6
ENCODING 246
SWIDTH 540 0
DWIDTH 30 0
BBX 28 39 1 0
BITMAP
00F07800
01F8FC00
03F8FC00
03F8FE00
03F8FC00
01F8FC00
00E07800
00000000
00000000
00000000
00000000
003FC000
00FFF800
03FFFC00
07FFFF00
0FFFFF80
1FFFFF80
1FFFFFC0
3FFFFFE0
3FFFFFE0
7FE07FE0
7FC03FF0
7FC01FF0
FF801FF0
FF801FF0
FF801FF0
FF801FF0
7FC01FF0
7FC03FF0
7FE07FF0
7FF8FFE0
3FFFFFE0
3FFFFFC0
1FFFFFC0
0FFFFF80
07FFFF00
03FFFE00
01FFF800
007FF000
ENDCHAR
STARTCHAR 00F7
ENCODING 247
SWIDTH 828 0
DWIDTH 46 0
BBX 32 31 7 1
BITMAP
0003C000
0007F000
000FF000
000FF800
000FF800
000FF800
000FF000
0007E000
0003C000
00000000
00000000
00000000
FFFFFFFF
FFFFFFFF
FFFFFFFF
FFFFFFFF
FFFFFFFF
FFFFFFFF
FFFFFFFF
00000000
00000000
00000000
0003C000
0007F000
000FF000
000FF800
000FF800
000FF800
000FF000
0007E000
0003C000
ENDCHAR
STARTCHAR 00F8
ENCODING 248
SWIDTH 540 0
DWIDTH 30 0
BBX 28 33 1 -3
BITMAP
000000C0
000001E0
003FC3F0
00FFFFF0
03FFFFE0
07FFFFC0
0FFFFFC0
1FFFFF80
1FFFFFC0
3FFFFFE0
3FF0FFE0
7FE1FFE0
7FC3FFF0
7F83FFF0
7F87CFF0
FF8FCFF0
FF9F8FF0
FFBF0FF0
7FBE1FF0
7FFC1FF0
7FFC3FF0
7FF87FE0
3FFFFFE0
3FFFFFC0
1FFFFFC0
1FFFFF80
3FFFFF00
3FFFFE00
7FFFFC00
FE7FF000
7C000000
38000000
10000000
ENDCHAR
STARTCHAR 00F9
ENCODING 249
SWIDTH 522 0
DWIDTH 29 0
BBX 25 41 2 0
BITMAP
07F00000
03F80000
01F80000
00FC0000
00FC0000
007E0000
003E0000
001F0000
000F0000
00078000
00000000
00000000
00000000
FF807F80
FF807F80
FF807F80
FF807F80
FF807F80
FF807F80
FF807F80
FF807F80
FF807F80
FF807F80
FF807F80
FF807F80
FF807F80
FF807F80
FF807F80
FF807F80
FF807F80
FF807F80
7FC0FF80
7FE1FF80
7FFFFF00
7FFFFF00
3FFFFF00
1FFFFE00
1FFFFC00
07FFF800
03FFF000
00FFC000
ENDCHAR
STARTCHAR 00FA
ENCODING 250
SWIDTH 522 0
DWIDTH 29 0
BBX 25 41 2 0
BITMAP
0003F800
0007F000
0007E000
000FC000
000F8000
001F8000
001F0000
003E0000
003C0000
00780000
00000000
00000000
00000000
FF807F80
FF807F80
FF807F80
FF807F80
FF807F80
FF807F80
FF807F80
FF807F80
FF807F80
FF807F80
FF807F80
FF807F80
FF807F80
FF807F80
FF807F80
FF807F80
FF807F80
FF807F80
7FC0FF80
7FE1FF80
7FFFFF00
7FFFFF00
3FFFFF00
1FFFFE00
1FFFFC00
07FFF800
03FFF000
00FFC000
ENDCHAR
STARTCHAR 00FB
ENCODING 251
SWIDTH 522 0
DWIDTH 29 0
BBX 25 41 2 0
BITMAP
003F0000
007F8000
007F8000
00FFC000
01FFC000
01F3E000
03E3E000
03C1F000
07C0F000
07807800
00000000
00000000
00000000
FF807F80
FF807F80
FF807F80
FF807F80
FF807F80
FF807F80
FF807F80
FF807F80
FF807F80
FF807F80
FF807F80
FF807F80
FF807F80
FF807F80
FF807F80
FF807F80
FF807F80
FF807F80
7FC0FF80
7FE1FF80
7FFFFF00
7FFFFF00
3FFFFF00
1FFFFE00
1FFFFC00
07FFF800
03FFF000
00FFC000
ENDCHAR
STARTCHAR 00FC
ENCODING 252
SWIDTH 522 0
DWIDTH 29 0
BBX 25 39 2 0
BITMAP
03C0F000
07E1F800
07F3F800
07F3F800
07F3F800
07E1F800
03C0F000
00000000
00000000
00000000
00000000
FF807F80
FF807F80
FF807F80
FF807F80
FF807F80
FF807F80
FF807F80
FF807F80
FF807F80
FF807F80
FF807F80
FF807F80
FF807F80
FF807F80
FF807F80
FF807F80
FF807F80
FF807F80
7FC0FF80
7FE1FF80
7FFFFF00
7FFFFF00
3FFFFF00
1FFFFE00
1FFFFC00
07FFF800
03FFF000
00FFC000
ENDCHAR
STARTCHAR 00FD
ENCODING 253
SWIDTH 522 0
DWIDTH 29 0
BBX 25 53 2 -12
BITMAP
0003F800
0007F000
0007E000
000FC000
000F8000
001F8000
001F0000
003E0000
003C0000
00780000
00000000
00000000
00000000
FF807F80
FF807F80
FF807F80
FF807F80
FF807F80
FF807F80
FF807F80
FF807F80
FF807F80
FF807F80
FF807F80
FF807F80
FF807F80
FF807F80
FF807F80
FF807F80
FF807F80
FF807F80
FF80FF80
7FC1FF80
7FFFFF80
7FFFFF00
3FFFFF00
3FFFFE00
1FFFFC00
0FFFF800
03FFF000
01FFC000
00FF8000
00FF8000
00FF8000
00FF8000
00FF8000
00FF8000
00FF8000
00FF8000
00FF8000
00FF8000
00FF8000
00FF8000
ENDCHAR
STARTCHAR 00FE
ENCODING 254
SWIDTH 558 0
DWIDTH 31 0
BBX 28 51 2 -12
BITMAP
FF800000
FF800000
FF800000
FF800000
FF800000
FF800000
FF800000
FF800000
FF800000
FF800000
FF800000
FFBFC000
FFFFF800
FFFFFC00
FFFFFE00
FFFFFF00
FFFFFF80
FFFFFFC0
FFFFFFC0
FFFFFFE0
FFE07FE0
FFC03FE0
FF803FF0
FF801FF0
FF801FF0
FF801FF0
FF801FF0
FF801FF0
FF803FF0
FF807FE0
FFB1FFE0
FFBFFFE0
FFBFFFC0
FFBFFFC0
FFBFFF80
FFBFFF00
FFBFFE00
FFBFF800
FFBFE000
FF800000
FF800000
FF800000
FF800000
FF800000
FF800000
FF800000
FF800000
FF800000
FF800000
FF800000
FF800000
ENDCHAR
STARTCHAR 00FF
ENCODING 255
SWIDTH 522 0
DWIDTH 29 0
BBX 25 51 2 -12
BITMAP
03C0F000
07E1F800
07F3F800
07F3F800
07F3F800
07E1F800
03C0F000
00000000
00000000
00000000
00000000
FF807F80
FF807F80
FF807F80
FF807F80
FF807F80
FF807F80
FF807F80
FF807F80
FF807F80
FF807F80
FF807F80
FF807F80
FF807F80
FF807F80
FF807F80
FF807F80
FF807F80
FF807F80
FF80FF80
7FC1FF80
7FFFFF80
7FFFFF00
3FFFFF00
3FFFFE00
1FFFFC00
0FFFF800
03FFF000
01FFC000
00FF8000
00FF8000
00FF8000
00FF8000
00FF8000
00FF8000
00FF8000
00FF8000
00FF8000
00FF8000
00FF8000
00FF8000
ENDCHAR
STARTCHAR 0102
ENCODING 258
SWIDTH 612 0
DWIDTH 34 0
BBX 29 50 3 0
BITMAP
03801E00
03C01E00
03C03C00
01F07C00
01FFFC00
00FFF800
007FF000
001FC000
00000000
00000000
00020000
007FF000
01FFFC00
07FFFF00
0FFFFF80
1FFFFFC0
3FFFFFC0
3FFFFFE0
7FFFFFE0
7FFFFFF0
FFF07FF0
FFE03FF8
FFC01FF8
FFC01FF8
FF801FF8
FF800FF8
FF9FFFF8
FF9FFFF8
FF9FFFF8
FF9FFFF8
FF9FFFF8
FF9FFFF8
FF9FFFF8
FF9FFFF8
FF9FFFF8
FF9FFFF8
FF800FF8
FF800FF8
FF800FF8
FF800FF8
FF800FF8
FF800FF8
FF800FF8
FF800FF8
FF800FF8
FF800FF8
FF800FF8
FF800FF8
FF800FF8
FF800FF8
ENDCHAR
STARTCHAR 0103
ENCODING 259
SWIDTH 558 0
DWIDTH 31 0
BBX 28 40 1 0
BITMAP
03C00E00
03C01E00
01C01E00
01E03C00
01FFFC00
00FFF800
007FF800
003FE000
00020000
00000000
00000000
00000000
003FC000
01FFF800
03FFFC00
07FFFF00
0FFFFF80
1FFFFF80
3FFFFFC0
3FFFFFE0
7FFFFFE0
7FE07FE0
7FC03FF0
FFC01FF0
FF801FF0
FF801FF0
FF801FF0
FF801FF0
FFC01FF0
7FC01FF0
7FE01FF0
7FF8DFF0
3FFFDFF0
3FFFDFF0
1FFFDFF0
1FFFDFF0
0FFFDFF0
07FFDFF0
01FFDFF0
007FDFF0
ENDCHAR
STARTCHAR 0106
ENCODING 262
SWIDTH 504 0
DWIDTH 28 0
BBX 25 53 2 0
BITMAP
00007F00
00007E00
0000FE00
0000FC00
0001F800
0001F000
0003E000
0003C000
0007C000
000F8000
000F0000
00000000
00000000
00000000
00003F80
0007FF80
003FFF80
00FFFF80
01FFFF80
03FFFF80
07FFFF80
0FFFFF80
1FFFFF80
3FFFE000
3FFE0000
7FF80000
7FF00000
FFE00000
FFE00000
FFC00000
FFC00000
FFC00000
FF800000
FF800000
FF800000
FFC00000
FFC00000
FFC00000
FFE00000
FFE00000
7FF00000
7FF80000
3FFE0000
3FFFC000
1FFFFF80
0FFFFF80
0FFFFF80
07FFFF80
01FFFF80
00FFFF80
003FFF80
000FFF80
00007F80
ENDCHAR
STARTCHAR 0107
ENCODING 263
SWIDTH 378 0
DWIDTH 21 0
BBX 21 41 1 0
BITMAP
0003F8
0007F0
0007E0
000FC0
000F80
001F80
001F00
003E00
003C00
007800
000000
000000
000000
0000F0
003FF0
01FFF0
03FFF0
0FFFF0
1FFFF0
1FFFF0
3FFFF0
7FFFF0
7FF800
7FE000
7FC000
FFC000
FF8000
FF8000
FF8000
7FC000
7FC000
7FF000
7FFE00
3FFFF0
3FFFF0
1FFFF0
0FFFF0
07FFF0
03FFF0
00FFF0
000FF0
ENDCHAR
STARTCHAR 010C
ENCODING 268
SWIDTH 504 0
DWIDTH 28 0
BBX 25 53 2 0
BITMAP
00F00780
00F00F00
00781F00
007C1E00
003E3E00
003F7C00
001FFC00
001FF800
000FF800
0007F000
0007F000
00000000
00000000
00000000
00003F80
0007FF80
003FFF80
00FFFF80
01FFFF80
03FFFF80
07FFFF80
0FFFFF80
1FFFFF80
3FFFE000
3FFE0000
7FF80000
7FF00000
FFE00000
FFE00000
FFC00000
FFC00000
FFC00000
FF800000
FF800000
FF800000
FFC00000
FFC00000
FFC00000
FFE00000
FFE00000
7FF00000
7FF80000
3FFE0000
3FFFC000
1FFFFF80
0FFFFF80
0FFFFF80
07FFFF80
01FFFF80
00FFFF80
003FFF80
000FFF80
00007F80
ENDCHAR
STARTCHAR 010D
ENCODING 269
SWIDTH 378 0
DWIDTH 21 0
BBX 21 41 1 0
BITMAP
0F0038
078078
07C0F0
03E1F0
01F3E0
01F3E0
00FFC0
00FFC0
007F80
007F80
000000
000000
000000
0000F0
003FF0
01FFF0
03FFF0
0FFFF0
1FFFF0
1FFFF0
3FFFF0
7FFFF0
7FF800
7FE000
7FC000
FFC000
FF8000
FF8000
FF8000
7FC000
7FC000
7FF000
7FFE00
3FFFF0
3FFFF0
1FFFF0
0FFFF0
07FFF0
03FFF0
00FFF0
000FF0
ENDCHAR
STARTCHAR 0110
ENCODING 272
SWIDTH 630 0
DWIDTH 35 0
BBX 34 39 0 0
BITMAP
1FFF800000
1FFFFC0000
1FFFFF0000
1FFFFFC000
1FFFFFE000
1FFFFFF000
1FFFFFF800
1FFFFFFC00
1FFFFFFE00
1FF8FFFF00
1FF81FFF00
1FF807FF80
1FF803FF80
1FF801FF80
1FF801FFC0
1FF800FFC0
FFFF80FFC0
FFFF80FFC0
FFFF80FFC0
FFFF80FFC0
FFFF80FFC0
FFFF80FFC0
1FF800FFC0
1FF800FFC0
1FF801FFC0
1FF801FF80
1FF803FF80
1FF807FF80
1FF81FFF00
1FF8FFFF00
1FFBFFFE00
1FFBFFFC00
1FFBFFF800
1FFBFFF000
1FFBFFE000
1FFBFFC000
1FFBFF0000
1FFBFC0000
1FFBE00000
ENDCHAR
STARTCHAR 0111
ENCODING 273
SWIDTH 558 0
DWIDTH 31 0
BBX 30 39 1 0
BITMAP
00001FF0
00001FF0
00001FF0
0007FFFC
0007FFFC
0007FFFC
0007FFFC
0007FFFC
00001FF0
00001FF0
00001FF0
003FDFF0
00FFDFF0
03FFDFF0
07FFDFF0
0FFFDFF0
1FFFDFF0
3FFFDFF0
3FFFDFF0
7FFFDFF0
7FF01FF0
7FC01FF0
7FC01FF0
FF801FF0
FF801FF0
FF801FF0
FF801FF0
FFC01FF0
7FC01FF0
7FE03FE0
7FF8FFE0
3FFFFFE0
3FFFFFC0
1FFFFFC0
1FFFFF80
0FFFFF00
07FFFE00
01FFFC00
007FF000
ENDCHAR
STARTCHAR 011E
ENCODING 286
SWIDTH 756 0
DWIDTH 42 0
BBX 39 53 2 -1
BITMAP
001C00F000
001E00F000
001E00F000
000F01E000
000FFFE000
0007FFC000
0007FFC000
0001FF0000
0000780000
0000000000
0000000000
0000000000
00003C0000
0007FFE000
001FFFF800
007FFFFE00
00FFFFFF80
03FFFFFFC0
07FFFFFFE0
0FFFFFFFC0
0FFFFFFF80
1FFFFFFF00
3FFF00FE00
3FFC003C00
7FF8001800
7FF0000000
FFE0000000
FFE0000000
FFC01FFFFE
FFC01FFFFE
FFC01FFFFE
FFC01FFFFE
FFC01FFFFE
FFC01FFFFE
FFC01FFFFE
FFC01FFFFE
FFC01FFFFE
FFE0000FFC
FFE0000FFC
7FF0001FFC
7FF8003FFC
3FFC007FF8
3FFF01FFF8
1FFFFFFFF0
1FFFFFFFE0
0FFFFFFFE0
07FFFFFFC0
03FFFFFF80
01FFFFFF00
007FFFFC00
003FFFF800
0007FFC000
00003E0000
ENDCHAR
STARTCHAR 011F
ENCODING 287
SWIDTH 558 0
DWIDTH 31 0
BBX 28 52 1 -12
BITMAP
03C00E00
03C01E00
01C01E00
01E03C00
01FFFC00
00FFF800
007FF800
003FE000
00020000
00000000
00000000
00000000
003FC000
00FFF800
03FFFC00
07FFFF00
0FFFFF80
1FFFFF80
3FFFFFC0
3FFFFFE0
7FFFFFE0
7FE07FE0
7FC03FF0
7FC01FF0
FF801FF0
FF801FF0
FF801FF0
FF801FF0
7FC01FF0
7FC01FF0
7FE01FF0
7FFCDFF0
3FFFDFF0
3FFFDFF0
1FFFDFF0
0FFFDFF0
07FFDFF0
03FFDFF0
01FFDFF0
003FDFF0
00001FF0
00001FF0
00003FF0
0E007FE0
0FFFFFE0
0FFFFFE0
0FFFFFC0
0FFFFF80
0FFFFF00
0FFFFE00
0FFFFC00
03FFF000
ENDCHAR
STARTCHAR 0128
ENCODING 296
SWIDTH 270 0
DWIDTH 15 0
BBX 17 51 -1 0
BITMAP
000380
1F8380
3FFF80
3FFF00
7FFF00
70FE00
F00000
000000
000000
000000
000000
000000
0FFC00
0FFC00
0FFC00
0FFC00
0FFC00
0FFC00
0FFC00
0FFC00
0FFC00
0FFC00
0FFC00
0FFC00
0FFC00
0FFC00
0FFC00
0FFC00
0FFC00
0FFC00
0FFC00
0FFC00
0FFC00
0FFC00
0FFC00
0FFC00
0FFC00
0FFC00
0FFC00
0FFC00
0FFC00
0FFC00
0FFC00
0FFC00
0FFC00
0FFC00
0FFC00
0FFC00
0FFC00
0FFC00
0FFC00
ENDCHAR
STARTCHAR 0129
ENCODING 297
SWIDTH 234 0
DWIDTH 13 0
BBX 17 39 -1 0
BITMAP
000380
1F8700
7FFF00
7FFE00
FFFE00
F1FC00
E00000
000000
000000
000000
000000
0FF000
0FF000
0FF000
0FF000
0FF000
0FF000
0FF000
0FF000
0FF000
0FF000
0FF000
0FF000
0FF000
0FF000
0FF000
0FF000
0FF000
0FF000
0FF000
0FF000
0FF000
0FF000
0FF000
0FF000
0FF000
0FF000
0FF000
0FF000
ENDCHAR
STARTCHAR 0130
ENCODING 304
SWIDTH 270 0
DWIDTH 15 0
BBX 10 51 3 0
BITMAP
3E00
3F00
7F00
7F00
3F00
3F00
0C00
0000
0000
0000
0000
0000
FFC0
FFC0
FFC0
FFC0
FFC0
FFC0
FFC0
FFC0
FFC0
FFC0
FFC0
FFC0
FFC0
FFC0
FFC0
FFC0
FFC0
FFC0
FFC0
FFC0
FFC0
FFC0
FFC0
FFC0
FFC0
FFC0
FFC0
FFC0
FFC0
FFC0
FFC0
FFC0
FFC0
FFC0
FFC0
FFC0
FFC0
FFC0
FFC0
ENDCHAR
STARTCHAR 0131
ENCODING 305
SWIDTH 234 0
DWIDTH 13 0
BBX 8 28 3 0
BITMAP
FF
FF
FF
FF
FF
FF
FF
FF
FF
FF
FF
FF
FF
FF
FF
FF
FF
FF
FF
FF
FF
FF
FF
FF
FF
FF
FF
FF
ENDCHAR
STARTCHAR 0141
ENCODING 321
SWIDTH 432 0
DWIDTH 24 0
BBX 24 39 0 0
BITMAP
1FF800
1FF800
1FF800
1FF800
1FF800
1FF800
1FF800
1FF800
1FF800
1FF840
1FF8C0
1FFBC0
1FFFC0
1FFFC0
1FFFC0
1FFFC0
1FFF80
1FFF00
3FFE00
7FF800
FFF800
FFF800
FFF800
FFF800
FFF800
DFF800
9FF800
1FF800
1FF800
1FFE00
0FFFFF
0FFFFF
0FFFFF
07FFFF
07FFFF
03FFFF
01FFFF
007FFF
000FFF
ENDCHAR
STARTCHAR 0142
ENCODING 322
SWIDTH 270 0
DWIDTH 15 0
BBX 15 39 0 0
BITMAP
1FF0
1FF0
1FF0
1FF0
1FF0
1FF0
1FF0
1FF0
1FF0
1FF0
1FF0
1FF0
1FF6
1FFE
1FFE
1FFE
1FFE
1FFE
1FF8
3FF0
FFF0
FFF0
FFF0
FFF0
FFF0
9FF0
1FF0
1FF0
1FF0
1FF0
1FF0
1FF0
1FF0
1FF0
1FF0
1FF0
1FF0
1FF0
1FF0
ENDCHAR
STARTCHAR 0152
ENCODING 338
SWIDTH 1044 0
DWIDTH 58 0
BBX 53 41 2 -1
BITMAP
00001000000000
0007FF800001F8
001FFFF0003FF8
007FFFF801FFF8
01FFFFFE07FFF8
03FFFFFF0FFFF8
07FFFFFF9FFFF8
0FFFFFFFFFFFF8
1FFFFFFFFFFFF8
1FFFFFFFFFFFF8
3FFF83FFFFFC00
3FFC007FFFE000
7FF8003FFF8000
7FF0001FFF0000
FFE0000FFF0000
FFE0000FFE0000
FFC00007FFFFF8
FFC00007FFFFF8
FFC00007FFFFF8
FF800007FFFFF8
FF800007FFFFF8
FF800007FFFFF8
FFC00007FFFFF8
FFC00007FFFFF8
FFC00007FFFFF8
FFE0000FFE0000
FFE0000FFE0000
7FF0001FFF0000
7FF8003FFF8000
3FFC007FFFE000
3FFF01FFFFFC00
1FFFFFFFFFFFF8
1FFFFFFFFFFFF8
0FFFFFFFFFFFF8
07FFFFFF9FFFF8
03FFFFFF0FFFF8
01FFFFFE07FFF8
007FFFFC01FFF8
003FFFF0003FF8
0007FFC00007F8
0000F800000000
ENDCHAR
STARTCHAR 0153
ENCODING 339
SWIDTH 882 0
DWIDTH 49 0
BBX 48 28 1 0
BITMAP
003FC007F800
00FFF01FFF00
03FFFC3FFF80
07FFFEFFFFC0
0FFFFFFFFFE0
1FFFFFFFFFF0
1FFFFFFFFFF8
3FFFFFFE0FFC
3FFFFFF80FFC
7FE07FF83FF8
7FC03FF07FF0
7FC01FF1FFC0
FF801FF3FF80
FF801FF3FE00
FF801FF1FC00
FF801FF1F060
7FC01FF0E0FC
7FC03FF800FF
7FE07FFC01FF
7FF8FFFE07FE
3FFFFFFFFFFE
3FFFFFFFFFFC
1FFFFFFFFFF8
0FFFFFFFFFF0
07FFFFFFFFF0
03FFFC7FFFC0
01FFF83FFF80
007FE00FFE00
ENDCHAR
STARTCHAR 015E
ENCODING 350
SWIDTH 522 0
DWIDTH 29 0
BBX 26 52 2 -13
BITMAP
00FFFF00
07FFFF00
0FFFFF00
1FFFFF00
3FFFFF00
7FFFFF00
7FFFFF00
FFFFFF00
FFFFFF00
FFE00000
FFC00000
FFC00000
FFE00000
FFF00000
7FFC0000
7FFE0000
3FFF8000
3FFFE000
1FFFF000
07FFFC00
03FFFE00
00FFFF00
007FFF00
001FFF80
0007FF80
0003FFC0
0001FFC0
0000FFC0
0001FFC0
0003FFC0
FFFFFFC0
FFFFFFC0
FFFFFF80
FFFFFF80
FFFFFF00
FFFFFE00
FFFFFC00
FFFFF800
FFFFC000
000E0000
000E0000
000E0000
000FE000
001FF000
001FF800
0000F800
0000F800
0000F800
01F9F800
01FFF000
01FFF000
007FC000
ENDCHAR
STARTCHAR 015F
ENCODING 351
SWIDTH 432 0
DWIDTH 24 0
BBX 21 41 2 -13
BITMAP
007FE0
0FFFE0
1FFFE0
3FFFE0
7FFFE0
7FFFE0
FFFFE0
FFFFE0
FF8000
FF8000
FFE000
7FF800
7FFE00
3FFF80
0FFFC0
07FFE0
01FFF0
007FF0
001FF8
001FF8
FFFFF8
FFFFF8
FFFFF0
FFFFF0
FFFFE0
FFFFE0
FFFF80
FFFE00
007000
007000
007000
007F00
007F80
00FFC0
0007C0
0003C0
0007C0
0FCFC0
0FFFC0
0FFF80
01FE00
ENDCHAR
STARTCHAR 0160
ENCODING 352
SWIDTH 522 0
DWIDTH 29 0
BBX 26 53 2 0
BITMAP
0F003C00
07807800
07C0F000
03E1F000
01E3E000
01F3E000
00FFC000
00FFC000
007F8000
007F8000
003F0000
00000000
00000000
00000000
00FFFF00
07FFFF00
0FFFFF00
1FFFFF00
3FFFFF00
7FFFFF00
7FFFFF00
FFFFFF00
FFFFFF00
FFE00000
FFC00000
FFC00000
FFE00000
FFF00000
7FFC0000
7FFE0000
3FFF8000
3FFFE000
1FFFF000
07FFFC00
03FFFE00
00FFFF00
007FFF00
001FFF80
0007FF80
0003FFC0
0001FFC0
0000FFC0
0001FFC0
0003FFC0
FFFFFFC0
FFFFFFC0
FFFFFF80
FFFFFF80
FFFFFF00
FFFFFE00
FFFFFC00
FFFFF800
FFFFC000
ENDCHAR
STARTCHAR 0161
ENCODING 353
SWIDTH 432 0
DWIDTH 24 0
BBX 21 41 2 0
BITMAP
3C01E0
3C03C0
1E07C0
1F0F80
0F8F80
0FDF00
07FF00
07FE00
03FC00
03FC00
000000
000000
000000
007FE0
0FFFE0
1FFFE0
3FFFE0
7FFFE0
7FFFE0
FFFFE0
FFFFE0
FF8000
FF8000
FFE000
7FF800
7FFE00
3FFF80
0FFFC0
07FFE0
01FFF0
007FF0
001FF8
001FF8
FFFFF8
FFFFF8
FFFFF0
FFFFF0
FFFFE0
FFFFE0
FFFF80
FFFE00
ENDCHAR
STARTCHAR 0168
ENCODING 360
SWIDTH 612 0
DWIDTH 34 0
BBX 29 52 3 -1
BITMAP
00000E00
007C1C00
00FFFC00
01FFF800
03FFF800
03C7F000
03800000
00000000
00000000
00000000
00000000
00000000
FF800FF8
FF800FF8
FF800FF8
FF800FF8
FF800FF8
FF800FF8
FF800FF8
FF800FF8
FF800FF8
FF800FF8
FF800FF8
FF800FF8
FF800FF8
FF800FF8
FF800FF8
FF800FF8
FF800FF8
FF800FF8
FF800FF8
FF800FF8
FF800FF8
FF800FF8
FF800FF8
FF800FF8
FF801FF8
FF801FF8
FFC01FF8
FFC01FF8
FFC03FF8
FFF07FF0
7FFFFFF0
7FFFFFF0
3FFFFFE0
3FFFFFC0
1FFFFFC0
0FFFFF80
07FFFF00
03FFFC00
00FFF800
000F0000
ENDCHAR
STARTCHAR 0169
ENCODING 361
SWIDTH 522 0
DWIDTH 29 0
BBX 25 39 2 0
BITMAP
00003800
01FC3800
03FFF800
03FFF000
07FFF000
070FE000
07000000
00000000
00000000
00000000
00000000
FF807F80
FF807F80
FF807F80
FF807F80
FF807F80
FF807F80
FF807F80
FF807F80
FF807F80
FF807F80
FF807F80
FF807F80
FF807F80
FF807F80
FF807F80
FF807F80
FF807F80
FF807F80
7FC0FF80
7FE1FF80
7FFFFF00
7FFFFF00
3FFFFF00
1FFFFE00
1FFFFC00
07FFF800
03FFF000
00FFC000
ENDCHAR
STARTCHAR 0178
ENCODING 376
SWIDTH 558 0
DWIDTH 31 0
BBX 27 51 2 0
BITMAP
01E07000
03F0F800
03F1FC00
03F9FC00
03F9FC00
03F0FC00
01E07800
00000000
00000000
00000000
00000000
00000000
FFC03FE0
FFC03FE0
FFC03FE0
FFC03FE0
FFC03FE0
FFC03FE0
FFC03FE0
FFC03FE0
FFC03FE0
FFC03FE0
FFC03FE0
FFC03FE0
FFC03FE0
FFC03FE0
7FC07FE0
7FE07FE0
7FE0FFE0
7FFFFFC0
3FFFFFC0
3FFFFFC0
1FFFFF80
1FFFFF00
0FFFFE00
07FFFC00
01FFF800
007FE000
007FE000
007FE000
007FE000
007FE000
007FE000
007FE000
007FE000
007FE000
007FE000
007FE000
007FE000
007FE000
007FE000
ENDCHAR
STARTCHAR 017D
ENCODING 381
SWIDTH 522 0
DWIDTH 29 0
BBX 28 53 1 0
BITMAP
07803C00
03C03C00
03E07800
01E0F800
01F1F000
00FBF000
00FFE000
007FE000
007FC000
003FC000
001F8000
00000000
00000000
00000000
3FFFFF00
3FFFFFC0
3FFFFFE0
3FFFFFE0
3FFFFFF0
3FFFFFF0
3FFFFFF0
3FFFFFF0
3FFFFFE0
0001FFE0
0001FFC0
0003FF80
0007FF80
000FFF00
000FFE00
001FFE00
003FFC00
003FF800
007FF000
00FFF000
01FFE000
01FFC000
03FF8000
07FF8000
0FFF0000
0FFE0000
1FFE0000
3FFC0000
7FF80000
7FF00000
FFFFFFF0
FFFFFFF0
FFFFFFF0
FFFFFFF0
FFFFFFF0
FFFFFFF0
7FFFFFF0
7FFFFFF0
1FFFFFF0
ENDCHAR
STARTCHAR 017E
ENCODING 382
SWIDTH 450 0
DWIDTH 25 0
BBX 23 41 1 0
BITMAP
1E00F0
0F01F0
0F81E0
0783C0
07C7C0
03EF80
03FF80
01FF00
01FF00
00FE00
000000
000000
000000
7FFF80
7FFFF8
7FFFFC
7FFFFE
7FFFFE
7FFFFE
7FFFFE
7FFFFE
001FFC
003FF8
007FF8
007FF0
00FFE0
01FFC0
03FF80
07FF00
0FFE00
1FFC00
3FF800
7FF000
7FFFFE
FFFFFE
FFFFFE
FFFFFE
FFFFFE
FFFFFE
7FFFFE
1FFFFE
ENDCHAR
STARTCHAR 0192
ENCODING 402
SWIDTH 558 0
DWIDTH 31 0
BBX 28 51 1 -12
BITMAP
00003FF0
0000FFF0
0001FFF0
0003FFF0
0007FFF0
0007FFF0
000FFFF0
000FFFF0
000FFC00
000FF800
001FF800
001FF800
001FF000
001FF000
1FFFFFE0
1FFFFFE0
1FFFFFE0
1FFFFFE0
1FFFFFE0
1FFFFFE0
1FFFFFE0
1FFFFFE0
1FFFFFE0
003FE000
003FE000
007FE000
007FC000
007FC000
007FC000
007FC000
007FC000
007FC000
00FFC000
00FFC000
00FF8000
00FF8000
00FF8000
00FF8000
00FF8000
00FF8000
01FF8000
01FF0000
01FF0000
FFFF0000
FFFF0000
FFFE0000
FFFE0000
FFFC0000
FFF80000
FFF00000
FF800000
ENDCHAR
STARTCHAR 01A0
ENCODING 416
SWIDTH 756 0
DWIDTH 42 0
BBX 40 43 2 -1
BITMAP
000000007F
000000007F
00000000FE
0007FFC0FE
001FFFF1FC
007FFFFDFC
01FFFFFFF8
03FFFFFFF8
07FFFFFFF0
0FFFFFFFF0
1FFFFFFFE0
1FFFFFFFF0
3FFF83FFF8
3FFC007FF8
7FF8003FFC
7FF0001FFC
FFE0000FFE
FFE0000FFE
FFC00007FE
FFC00007FE
FFC00007FE
FF800007FE
FF800007FE
FF800007FE
FFC00007FE
FFC00007FE
FFC00007FE
FFE0000FFE
FFE0000FFE
7FF0001FFC
7FF8003FFC
3FFC007FF8
3FFF01FFF8
1FFFFFFFF0
1FFFFFFFF0
0FFFFFFFE0
07FFFFFFC0
03FFFFFF80
01FFFFFF00
007FFFFC00
003FFFF800
0007FFE000
0000380000
ENDCHAR
STARTCHAR 01A1
ENCODING 417
SWIDTH 540 0
DWIDTH 30 0
BBX 31 32 1 0
BITMAP
000000FE
000001FE
000001FC
000001FC
003FC3F8
00FFFBF8
03FFFFF0
07FFFFF0
0FFFFFE0
1FFFFFE0
1FFFFFC0
3FFFFFE0
3FFFFFE0
7FE07FE0
7FC03FF0
7FC01FF0
FF801FF0
FF801FF0
FF801FF0
FF801FF0
7FC01FF0
7FC03FF0
7FE07FF0
7FF8FFE0
3FFFFFE0
3FFFFFC0
1FFFFFC0
0FFFFF80
07FFFF00
03FFFE00
01FFF800
007FF000
ENDCHAR
STARTCHAR 01AF
ENCODING 431
SWIDTH 666 0
DWIDTH 37 0
BBX 37 43 3 -1
BITMAP
00000007F8
00000007F0
0000000FF0
FF800FFFE0
FF800FFFE0
FF800FFFC0
FF800FFFC0
FF800FFF80
FF800FFF80
FF800FFF00
FF800FFF00
FF800FFE00
FF800FF800
FF800FF800
FF800FF800
FF800FF800
FF800FF800
FF800FF800
FF800FF800
FF800FF800
FF800FF800
FF800FF800
FF800FF800
FF800FF800
FF800FF800
FF800FF800
FF800FF800
FF801FF800
FF801FF800
FFC01FF800
FFC01FF800
FFC03FF800
FFF07FF000
7FFFFFF000
7FFFFFF000
3FFFFFE000
3FFFFFC000
1FFFFFC000
0FFFFF8000
07FFFF0000
03FFFC0000
00FFF80000
000F000000
ENDCHAR
STARTCHAR 01B0
ENCODING 432
SWIDTH 558 0
DWIDTH 31 0
BBX 32 32 2 0
BITMAP
0000007F
0000007F
000000FE
000000FE
FF807FFC
FF807FFC
FF807FF8
FF807FF8
FF807FF0
FF807FF0
FF807FE0
FF807FE0
FF807F80
FF807F80
FF807F80
FF807F80
FF807F80
FF807F80
FF807F80
FF807F80
FF807F80
FF807F80
7FC0FF80
7FE1FF80
7FFFFF00
7FFFFF00
3FFFFF00
1FFFFE00
1FFFFC00
07FFF800
03FFF000
00FFC000
ENDCHAR
STARTCHAR 02C6
ENCODING 710
SWIDTH 486 0
DWIDTH 27 0
BBX 16 10 6 31
BITMAP
07E0
0FF0
0FF0
1FF8
3FF8
3E7C
7C7C
783E
F81E
F00F
ENDCHAR
STARTCHAR 02C7
ENCODING 711
SWIDTH 486 0
DWIDTH 27 0
BBX 17 10 5 31
BITMAP
F00380
780780
7C0F00
3E1F00
1E3E00
1F7E00
0FFC00
0FFC00
07F800
07F800
ENDCHAR
STARTCHAR 02C9
ENCODING 713
SWIDTH 486 0
DWIDTH 27 0
BBX 16 5 6 33
BITMAP
FFFF
FFFF
FFFF
FFFF
FFFF
ENDCHAR
STARTCHAR 02D8
ENCODING 728
SWIDTH 486 0
DWIDTH 27 0
BBX 16 9 6 31
BITMAP
E007
E007
F00F
F81F
FFFE
7FFE
3FFC
1FF0
0380
ENDCHAR
STARTCHAR 02D9
ENCODING 729
SWIDTH 486 0
DWIDTH 27 0
BBX 7 7 10 32
BITMAP
08
7C
7E
FE
FE
7E
7E
ENDCHAR
STARTCHAR 02DA
ENCODING 730
SWIDTH 486 0
DWIDTH 27 0
BBX 14 14 7 31
BITMAP
0FC0
3FE0
7FF0
7FF8
F87C
F03C
F03C
F03C
F03C
F07C
FFF8
7FF8
3FF0
1FE0
ENDCHAR
STARTCHAR 02DB
ENCODING 731
SWIDTH 486 0
DWIDTH 27 0
BBX 10 12 9 -12
BITMAP
0600
0C00
3C00
3800
7800
7800
F800
FC00
FFC0
7FC0
7FC0
3FC0
ENDCHAR
STARTCHAR 02DC
ENCODING 732
SWIDTH 486 0
DWIDTH 27 0
BBX 17 7 5 32
BITMAP
000380
1FC780
3FFF80
7FFF00
7FFF00
70FC00
F00000
ENDCHAR
STARTCHAR 02DD
ENCODING 733
SWIDTH 486 0
DWIDTH 27 0
BBX 17 10 8 31
BITMAP
1F9F80
1F1F80
3E3F00
3E3E00
3C3C00
7C7C00
787800
70F000
F0E000
E1E000
ENDCHAR
STARTCHAR 0394
ENCODING 916
SWIDTH 702 0
DWIDTH 39 0
BBX 40 40 0 0
BITMAP
0003FF8000
0003FFC000
0003FFC000
0007FFE000
0007FFE000
0007FFE000
000FFFF000
000FFFF000
001FFFF000
001FFFF800
001FFFF800
003FFFFC00
003FEFFC00
003FE7FC00
007FE7FE00
007FC7FE00
007FC3FE00
00FFC3FF00
00FF83FF00
01FF81FF00
01FF81FF80
01FF01FF80
03FF00FFC0
03FF00FFC0
03FE00FFC0
07FE007FE0
07FE007FE0
07FC007FE0
0FFC003FF0
0FFC003FF0
1FF8003FF0
1FF8001FF8
1FFFFFFFF8
3FFFFFFFFC
3FFFFFFFFC
3FFFFFFFFC
7FFFFFFFFE
7FFFFFFFFE
FFFFFFFFFE
FFFFFFFFFF
ENDCHAR
STARTCHAR 03A9
ENCODING 937
SWIDTH 792 0
DWIDTH 44 0
BBX 42 41 1 0
BITMAP
0000FFC00000
0007FFFC0000
001FFFFF0000
007FFFFF8000
00FFFFFFE000
01FFFFFFF000
03FFFFFFF800
07FFFFFFFC00
0FFFFFFFFC00
0FFF807FFE00
1FFF001FFE00
1FFE000FFF00
1FFC0007FF00
3FF80007FF00
3FF80003FF00
3FF80003FF00
3FF00003FF80
3FF00003FF80
3FF00003FF80
3FF00003FF80
3FF00003FF80
3FF00003FF00
3FF00003FF00
1FF80003FF00
1FF80003FF00
1FF80007FE00
0FFC0007FE00
0FFC000FFC00
07FE000FFC00
03FF001FF800
01FF003FF000
00FF807FE000
007F807FC000
FFFF807FFFC0
FFFF807FFFC0
FFFF807FFFC0
FFFF807FFFC0
FFFF807FFFC0
FFFF807FFFC0
FFFF807FFFC0
FFFF807FFFC0
ENDCHAR
STARTCHAR 03BC
ENCODING 956
SWIDTH 630 0
DWIDTH 35 0
BBX 35 42 -1 -12
BITMAP
03FF007FE0
03FF007FE0
03FF007FE0
03FE007FE0
03FE007FE0
07FE007FC0
07FE007FC0
07FE00FFC0
07FE00FFC0
07FE00FFC0
07FC00FFC0
0FFC00FF80
0FFC00FF80
0FFC01FF80
0FFC01FF80
0FFC01FF80
0FFC01FF80
0FF801FF00
1FF803FF00
1FF803FF00
1FFC03FF00
1FFC07FF00
1FFE0FFF00
1FFFFFFE00
3FFFFFFE00
3FFFFFFE00
3FFFFFFE00
3FFFFFFE00
3FEFFBFE00
3FE7F3FE00
3FE0000000
7FE0000000
7FE0000000
7FE0000000
7FC0000000
7FC0000000
7FC0000000
FFC0000000
FFC0000000
FFC0000000
FFC0000000
FF80000000
ENDCHAR
STARTCHAR 03C0
ENCODING 960
SWIDTH 738 0
DWIDTH 41 0
BBX 42 30 0 0
BITMAP
003FFFFFFFC0
07FFFFFFFFC0
0FFFFFFFFF80
1FFFFFFFFF80
3FFFFFFFFF80
7FFFFFFFFF80
7FFFFFFFFF80
7F3FF03FF000
FE3FF03FF000
FE3FE03FE000
003FE03FE000
007FE07FE000
007FE07FE000
007FE07FE000
007FE07FE000
007FC07FC000
007FC07FC000
00FFC0FFC000
00FFC0FFC000
00FFC0FFC000
00FFC0FFC000
00FFC0FFC000
00FF80FF8000
00FF81FF8000
01FF81FF8000
01FF81FF8000
01FF81FF8000
01FF81FF8000
01FF01FF0000
01FF01FF0000
ENDCHAR
STARTCHAR 1EA0
ENCODING 7840
SWIDTH 612 0
DWIDTH 34 0
BBX 29 55 3 -15
BITMAP
00020000
007FF000
01FFFC00
07FFFF00
0FFFFF80
1FFFFFC0
3FFFFFC0
3FFFFFE0
7FFFFFE0
7FFFFFF0
FFF07FF0
FFE03FF8
FFC01FF8
FFC01FF8
FF801FF8
FF800FF8
FF9FFFF8
FF9FFFF8
FF9FFFF8
FF9FFFF8
FF9FFFF8
FF9FFFF8
FF9FFFF8
FF9FFFF8
FF9FFFF8
FF9FFFF8
FF800FF8
FF800FF8
FF800FF8
FF800FF8
FF800FF8
FF800FF8
FF800FF8
FF800FF8
FF800FF8
FF800FF8
FF800FF8
FF800FF8
FF800FF8
FF800FF8
00000000
00000000
00000000
00000000
001FC000
003FE000
007FE000
007FF000
007FF000
007FF000
007FF000
007FE000
003FE000
001FC000
00020000
ENDCHAR
STARTCHAR 1EA1
ENCODING 7841
SWIDTH 558 0
DWIDTH 31 0
BBX 28 43 1 -15
BITMAP
003FC000
01FFF800
03FFFC00
07FFFF00
0FFFFF80
1FFFFF80
3FFFFFC0
3FFFFFE0
7FFFFFE0
7FE07FE0
7FC03FF0
FFC01FF0
FF801FF0
FF801FF0
FF801FF0
FF801FF0
FFC01FF0
7FC01FF0
7FE01FF0
7FF8DFF0
3FFFDFF0
3FFFDFF0
1FFFDFF0
1FFFDFF0
0FFFDFF0
07FFDFF0
01FFDFF0
007FDFF0
00000000
00000000
00000000
00000000
001FC000
003FE000
003FF000
007FF000
007FF000
007FF000
007FF000
003FF000
003FE000
001FC000
00020000
ENDCHAR
STARTCHAR 1EA2
ENCODING 7842
SWIDTH 612 0
DWIDTH 34 0
BBX 29 53 3 0
BITMAP
000FC000
001FE000
003FF000
0078F000
00787000
00007000
0000F000
0007F000
0007E000
00078000
00070000
00070000
00000000
00020000
007FF000
01FFFC00
07FFFF00
0FFFFF80
1FFFFFC0
3FFFFFC0
3FFFFFE0
7FFFFFE0
7FFFFFF0
FFF07FF0
FFE03FF8
FFC01FF8
FFC01FF8
FF801FF8
FF800FF8
FF9FFFF8
FF9FFFF8
FF9FFFF8
FF9FFFF8
FF9FFFF8
FF9FFFF8
FF9FFFF8
FF9FFFF8
FF9FFFF8
FF9FFFF8
FF800FF8
FF800FF8
FF800FF8
FF800FF8
FF800FF8
FF800FF8
FF800FF8
FF800FF8
FF800FF8
FF800FF8
FF800FF8
FF800FF8
FF800FF8
FF800FF8
ENDCHAR
STARTCHAR 1EA3
ENCODING 7843
SWIDTH 558 0
DWIDTH 31 0
BBX 28 43 1 0
BITMAP
00030000
001FC000
003FE000
003FF000
0078F000
00787000
00007000
0001F000
0007E000
0007E000
00078000
00070000
00070000
00000000
00000000
003FC000
01FFF800
03FFFC00
07FFFF00
0FFFFF80
1FFFFF80
3FFFFFC0
3FFFFFE0
7FFFFFE0
7FE07FE0
7FC03FF0
FFC01FF0
FF801FF0
FF801FF0
FF801FF0
FF801FF0
FFC01FF0
7FC01FF0
7FE01FF0
7FF8DFF0
3FFFDFF0
3FFFDFF0
1FFFDFF0
1FFFDFF0
0FFFDFF0
07FFDFF0
01FFDFF0
007FDFF0
ENDCHAR
STARTCHAR 1EA4
ENCODING 7844
SWIDTH 612 0
DWIDTH 34 0
BBX 29 62 3 0
BITMAP
000FE000
000FC000
001F8000
001F8000
003F0000
003E0000
007C0000
00780000
00F00000
00E00000
00000000
001FC000
003FC000
003FE000
007FF000
007DF000
00F8F800
00F0F800
01F07C00
01E03C00
03C01E00
00000000
00020000
007FF000
01FFFC00
07FFFF00
0FFFFF80
1FFFFFC0
3FFFFFC0
3FFFFFE0
7FFFFFE0
7FFFFFF0
FFF07FF0
FFE03FF8
FFC01FF8
FFC01FF8
FF801FF8
FF800FF8
FF9FFFF8
FF9FFFF8
FF9FFFF8
FF9FFFF8
FF9FFFF8
FF9FFFF8
FF9FFFF8
FF9FFFF8
FF9FFFF8
FF9FFFF8
FF800FF8
FF800FF8
FF800FF8
FF800FF8
FF800FF8
FF800FF8
FF800FF8
FF800FF8
FF800FF8
FF800FF8
FF800FF8
FF800FF8
FF800FF8
FF800FF8
ENDCHAR
STARTCHAR 1EA5
ENCODING 7845
SWIDTH 558 0
DWIDTH 31 0
BBX 28 52 1 0
BITMAP
0007F000
000FE000
000FC000
001F8000
001F0000
003E0000
003E0000
007C0000
00F80000
00F00000
00000000
001FC000
001FC000
003FE000
003FE000
007FF000
007DF800
00F8F800
00F07C00
01E03C00
01E01E00
00000000
00000000
00000000
003FC000
01FFF800
03FFFC00
07FFFF00
0FFFFF80
1FFFFF80
3FFFFFC0
3FFFFFE0
7FFFFFE0
7FE07FE0
7FC03FF0
FFC01FF0
FF801FF0
FF801FF0
FF801FF0
FF801FF0
FFC01FF0
7FC01FF0
7FE01FF0
7FF8DFF0
3FFFDFF0
3FFFDFF0
1FFFDFF0
1FFFDFF0
0FFFDFF0
07FFDFF0
01FFDFF0
007FDFF0
ENDCHAR
STARTCHAR 1EA6
ENCODING 7846
SWIDTH 612 0
DWIDTH 34 0
BBX 29 62 3 0
BITMAP
003F8000
001F8000
001FC000
000FC000
0007E000
0003E000
0001F000
0000F000
0000F800
00007800
00000000
001FC000
003FC000
003FE000
007FF000
007DF000
00F8F800
00F0F800
01F07C00
01E03C00
03C01E00
00000000
00020000
007FF000
01FFFC00
07FFFF00
0FFFFF80
1FFFFFC0
3FFFFFC0
3FFFFFE0
7FFFFFE0
7FFFFFF0
FFF07FF0
FFE03FF8
FFC01FF8
FFC01FF8
FF801FF8
FF800FF8
FF9FFFF8
FF9FFFF8
FF9FFFF8
FF9FFFF8
FF9FFFF8
FF9FFFF8
FF9FFFF8
FF9FFFF8
FF9FFFF8
FF9FFFF8
FF800FF8
FF800FF8
FF800FF8
FF800FF8
FF800FF8
FF800FF8
FF800FF8
FF800FF8
FF800FF8
FF800FF8
FF800FF8
FF800FF8
FF800FF8
FF800FF8
ENDCHAR
STARTCHAR 1EA7
ENCODING 7847
SWIDTH 558 0
DWIDTH 31 0
BBX 28 52 1 0
BITMAP
003F0000
003F8000
001FC000
000FC000
0007E000
0003E000
0001F000
0001F000
0000F800
00007800
00000000
001FC000
001FC000
003FE000
003FE000
007FF000
007DF800
00F8F800
00F07C00
01E03C00
01E01E00
00000000
00000000
00000000
003FC000
01FFF800
03FFFC00
07FFFF00
0FFFFF80
1FFFFF80
3FFFFFC0
3FFFFFE0
7FFFFFE0
7FE07FE0
7FC03FF0
FFC01FF0
FF801FF0
FF801FF0
FF801FF0
FF801FF0
FFC01FF0
7FC01FF0
7FE01FF0
7FF8DFF0
3FFFDFF0
3FFFDFF0
1FFFDFF0
1FFFDFF0
0FFFDFF0
07FFDFF0
01FFDFF0
007FDFF0
ENDCHAR
STARTCHAR 1EA8
ENCODING 7848
SWIDTH 612 0
DWIDTH 34 0
BBX 29 62 3 1
BITMAP
00001F80
00003FC0
00007FE0
0000F1E0
0000F0E0
000000E0
000001E0
00000FE0
00000FC0
00000F00
00000E00
001FCE00
003FC000
003FE000
007FF000
007DF000
00F8F800
00F0F800
01F07C00
01E03C00
03C01E00
00000000
00020000
007FF000
01FFFC00
07FFFF00
0FFFFF80
1FFFFFC0
3FFFFFC0
3FFFFFE0
7FFFFFE0
7FFFFFF0
FFF07FF0
FFE03FF8
FFC01FF8
FFC01FF8
FF801FF8
FF800FF8
FF9FFFF8
FF9FFFF8
FF9FFFF8
FF9FFFF8
FF9FFFF8
FF9FFFF8
FF9FFFF8
FF9FFFF8
FF9FFFF8
FF9FFFF8
FF800FF8
FF800FF8
FF800FF8
FF800FF8
FF800FF8
FF800FF8
FF800FF8
FF800FF8
FF800FF8
FF800FF8
FF800FF8
FF800FF8
FF800FF8
FF800FF8
ENDCHAR
STARTCHAR 1EA9
ENCODING 7849
SWIDTH 558 0
DWIDTH 31 0
BBX 28 52 1 0
BITMAP
00000F00
00003FC0
00007FE0
00007FE0
000070F0
000030F0
000000F0
000003E0
00000FE0
00000F80
00000E00
001FCE00
001FC000
003FE000
003FE000
007FF000
007DF800
00F8F800
00F07C00
01E03C00
01E01E00
00000000
00000000
00000000
003FC000
01FFF800
03FFFC00
07FFFF00
0FFFFF80
1FFFFF80
3FFFFFC0
3FFFFFE0
7FFFFFE0
7FE07FE0
7FC03FF0
FFC01FF0
FF801FF0
FF801FF0
FF801FF0
FF801FF0
FFC01FF0
7FC01FF0
7FE01FF0
7FF8DFF0
3FFFDFF0
3FFFDFF0
1FFFDFF0
1FFFDFF0
0FFFDFF0
07FFDFF0
01FFDFF0
007FDFF0
ENDCHAR
STARTCHAR 1EAA
ENCODING 7850
SWIDTH 612 0
DWIDTH 34 0
BBX 29 60 3 0
BITMAP
00000700
003F8700
007FFF00
007FFE00
00FFFE00
00E1FC00
00E00000
00000000
00000000
001FC000
003FC000
003FE000
007FF000
007DF000
00F8F800
00F0F800
01F07C00
01E03C00
03C01E00
00000000
00020000
007FF000
01FFFC00
07FFFF00
0FFFFF80
1FFFFFC0
3FFFFFC0
3FFFFFE0
7FFFFFE0
7FFFFFF0
FFF07FF0
FFE03FF8
FFC01FF8
FFC01FF8
FF801FF8
FF800FF8
FF9FFFF8
FF9FFFF8
FF9FFFF8
FF9FFFF8
FF9FFFF8
FF9FFFF8
FF9FFFF8
FF9FFFF8
FF9FFFF8
FF9FFFF8
FF800FF8
FF800FF8
FF800FF8
FF800FF8
FF800FF8
FF800FF8
FF800FF8
FF800FF8
FF800FF8
FF800FF8
FF800FF8
FF800FF8
FF800FF8
FF800FF8
ENDCHAR
STARTCHAR 1EAB
ENCODING 7851
SWIDTH 558 0
DWIDTH 31 0
BBX 28 50 1 0
BITMAP
00000380
000E0780
003FEF00
007FFF00
007FFE00
00FFFC00
00E07800
00E00000
00000000
001FC000
001FC000
003FE000
003FE000
007FF000
007DF800
00F8F800
00F07C00
01E03C00
01E01E00
00000000
00000000
00000000
003FC000
01FFF800
03FFFC00
07FFFF00
0FFFFF80
1FFFFF80
3FFFFFC0
3FFFFFE0
7FFFFFE0
7FE07FE0
7FC03FF0
FFC01FF0
FF801FF0
FF801FF0
FF801FF0
FF801FF0
FFC01FF0
7FC01FF0
7FE01FF0
7FF8DFF0
3FFFDFF0
3FFFDFF0
1FFFDFF0
1FFFDFF0
0FFFDFF0
07FFDFF0
01FFDFF0
007FDFF0
ENDCHAR
STARTCHAR 1EAC
ENCODING 7852
SWIDTH 612 0
DWIDTH 34 0
BBX 29 66 3 -15
BITMAP
001FC000
003FC000
003FE000
007FF000
007DF000
00F8F800
00F0F800
01F07C00
01E03C00
03C01E00
00000000
00020000
007FF000
01FFFC00
07FFFF00
0FFFFF80
1FFFFFC0
3FFFFFC0
3FFFFFE0
7FFFFFE0
7FFFFFF0
FFF07FF0
FFE03FF8
FFC01FF8
FFC01FF8
FF801FF8
FF800FF8
FF9FFFF8
FF9FFFF8
FF9FFFF8
FF9FFFF8
FF9FFFF8
FF9FFFF8
FF9FFFF8
FF9FFFF8
FF9FFFF8
FF9FFFF8
FF800FF8
FF800FF8
FF800FF8
FF800FF8
FF800FF8
FF800FF8
FF800FF8
FF800FF8
FF800FF8
FF800FF8
FF800FF8
FF800FF8
FF800FF8
FF800FF8
00000000
00000000
00000000
00000000
001FC000
003FE000
007FE000
007FF000
007FF000
007FF000
007FF000
007FE000
003FE000
001FC000
00020000
ENDCHAR
STARTCHAR 1EAD
ENCODING 7853
SWIDTH 558 0
DWIDTH 31 0
BBX 28 56 1 -15
BITMAP
001FC000
001FC000
003FE000
003FE000
007FF000
007DF800
00F8F800
00F07C00
01E03C00
01E01E00
00000000
00000000
00000000
003FC000
01FFF800
03FFFC00
07FFFF00
0FFFFF80
1FFFFF80
3FFFFFC0
3FFFFFE0
7FFFFFE0
7FE07FE0
7FC03FF0
FFC01FF0
FF801FF0
FF801FF0
FF801FF0
FF801FF0
FFC01FF0
7FC01FF0
7FE01FF0
7FF8DFF0
3FFFDFF0
3FFFDFF0
1FFFDFF0
1FFFDFF0
0FFFDFF0
07FFDFF0
01FFDFF0
007FDFF0
00000000
00000000
00000000
00000000
001FC000
003FE000
003FF000
007FF000
007FF000
007FF000
007FF000
003FF000
003FE000
001FC000
00020000
ENDCHAR
STARTCHAR 1EAE
ENCODING 7854
SWIDTH 612 0
DWIDTH 34 0
BBX 29 62 3 0
BITMAP
0001FC00
0003F800
0003F000
0007E000
0007C000
000FC000
000F8000
001F0000
001E0000
003C0000
00000000
00000000
03801E00
03C01E00
03C03C00
01F07C00
01FFFC00
00FFF800
007FF000
001FC000
00000000
00000000
00020000
007FF000
01FFFC00
07FFFF00
0FFFFF80
1FFFFFC0
3FFFFFC0
3FFFFFE0
7FFFFFE0
7FFFFFF0
FFF07FF0
FFE03FF8
FFC01FF8
FFC01FF8
FF801FF8
FF800FF8
FF9FFFF8
FF9FFFF8
FF9FFFF8
FF9FFFF8
FF9FFFF8
FF9FFFF8
FF9FFFF8
FF9FFFF8
FF9FFFF8
FF9FFFF8
FF800FF8
FF800FF8
FF800FF8
FF800FF8
FF800FF8
FF800FF8
FF800FF8
FF800FF8
FF800FF8
FF800FF8
FF800FF8
FF800FF8
FF800FF8
FF800FF8
ENDCHAR
STARTCHAR 1EAF
ENCODING 7855
SWIDTH 558 0
DWIDTH 31 0
BBX 28 52 1 0
BITMAP
0001FC00
0001FC00
0003F800
0003F000
0007E000
0007C000
000F8000
000F8000
001F0000
001E0000
00000000
00000000
03C00E00
03C01E00
01C01E00
01E03C00
01FFFC00
00FFF800
007FF800
003FE000
00020000
00000000
00000000
00000000
003FC000
01FFF800
03FFFC00
07FFFF00
0FFFFF80
1FFFFF80
3FFFFFC0
3FFFFFE0
7FFFFFE0
7FE07FE0
7FC03FF0
FFC01FF0
FF801FF0
FF801FF0
FF801FF0
FF801FF0
FFC01FF0
7FC01FF0
7FE01FF0
7FF8DFF0
3FFFDFF0
3FFFDFF0
1FFFDFF0
1FFFDFF0
0FFFDFF0
07FFDFF0
01FFDFF0
007FDFF0
ENDCHAR
STARTCHAR 1EB0
ENCODING 7856
SWIDTH 612 0
DWIDTH 34 0
BBX 29 62 3 0
BITMAP
01FC0000
00FC0000
007E0000
007E0000
003F0000
001F0000
000F8000
00078000
0003C000
0001E000
00000000
00000000
03801E00
03C01E00
03C03C00
01F07C00
01FFFC00
00FFF800
007FF000
001FC000
00000000
00000000
00020000
007FF000
01FFFC00
07FFFF00
0FFFFF80
1FFFFFC0
3FFFFFC0
3FFFFFE0
7FFFFFE0
7FFFFFF0
FFF07FF0
FFE03FF8
FFC01FF8
FFC01FF8
FF801FF8
FF800FF8
FF9FFFF8
FF9FFFF8
FF9FFFF8
FF9FFFF8
FF9FFFF8
FF9FFFF8
FF9FFFF8
FF9FFFF8
FF9FFFF8
FF9FFFF8
FF800FF8
FF800FF8
FF800FF8
FF800FF8
FF800FF8
FF800FF8
FF800FF8
FF800FF8
FF800FF8
FF800FF8
FF800FF8
FF800FF8
FF800FF8
FF800FF8
ENDCHAR
STARTCHAR 1EB1
ENCODING 7857
SWIDTH 558 0
DWIDTH 31 0
BBX 28 52 1 0
BITMAP
01FC0000
00FC0000
00FE0000
007E0000
003F0000
001F0000
000F8000
00078000
0003C000
0003E000
00000000
00000000
03C00E00
03C01E00
01C01E00
01E03C00
01FFFC00
00FFF800
007FF800
003FE000
00020000
00000000
00000000
00000000
003FC000
01FFF800
03FFFC00
07FFFF00
0FFFFF80
1FFFFF80
3FFFFFC0
3FFFFFE0
7FFFFFE0
7FE07FE0
7FC03FF0
FFC01FF0
FF801FF0
FF801FF0
FF801FF0
FF801FF0
FFC01FF0
7FC01FF0
7FE01FF0
7FF8DFF0
3FFFDFF0
3FFFDFF0
1FFFDFF0
1FFFDFF0
0FFFDFF0
07FFDFF0
01FFDFF0
007FDFF0
ENDCHAR
STARTCHAR 1EB2
ENCODING 7858
SWIDTH 612 0
DWIDTH 34 0
BBX 29 62 3 0
BITMAP
000FC000
003FE000
003FE000
0078F000
0070F000
0000F000
0000F000
0007E000
0007E000
00078000
00070000
00070000
03801E00
03C01E00
03C03C00
01F07C00
01FFFC00
00FFF800
007FF000
001FC000
00000000
00000000
00020000
007FF000
01FFFC00
07FFFF00
0FFFFF80
1FFFFFC0
3FFFFFC0
3FFFFFE0
7FFFFFE0
7FFFFFF0
FFF07FF0
FFE03FF8
FFC01FF8
FFC01FF8
FF801FF8
FF800FF8
FF9FFFF8
FF9FFFF8
FF9FFFF8
FF9FFFF8
FF9FFFF8
FF9FFFF8
FF9FFFF8
FF9FFFF8
FF9FFFF8
FF9FFFF8
FF800FF8
FF800FF8
FF800FF8
FF800FF8
FF800FF8
FF800FF8
FF800FF8
FF800FF8
FF800FF8
FF800FF8
FF800FF8
FF800FF8
FF800FF8
FF800FF8
ENDCHAR
STARTCHAR 1EB3
ENCODING 7859
SWIDTH 558 0
DWIDTH 31 0
BBX 28 52 1 0
BITMAP
00078000
001FC000
003FE000
003DF000
00787000
00387000
0000F000
0003F000
0007E000
0007C000
00070000
00070000
03C00E00
03C01E00
01C01E00
01E03C00
01FFFC00
00FFF800
007FF800
003FE000
00020000
00000000
00000000
00000000
003FC000
01FFF800
03FFFC00
07FFFF00
0FFFFF80
1FFFFF80
3FFFFFC0
3FFFFFE0
7FFFFFE0
7FE07FE0
7FC03FF0
FFC01FF0
FF801FF0
FF801FF0
FF801FF0
FF801FF0
FFC01FF0
7FC01FF0
7FE01FF0
7FF8DFF0
3FFFDFF0
3FFFDFF0
1FFFDFF0
1FFFDFF0
0FFFDFF0
07FFDFF0
01FFDFF0
007FDFF0
ENDCHAR
STARTCHAR 1EB4
ENCODING 7860
SWIDTH 612 0
DWIDTH 34 0
BBX 29 60 3 0
BITMAP
00000E00
007E0E00
00FFFE00
01FFFC00
01FFF800
01C3F800
03800000
00000000
00000000
00000000
03801E00
03C01E00
03C03C00
01F07C00
01FFFC00
00FFF800
007FF000
001FC000
00000000
00000000
00020000
007FF000
01FFFC00
07FFFF00
0FFFFF80
1FFFFFC0
3FFFFFC0
3FFFFFE0
7FFFFFE0
7FFFFFF0
FFF07FF0
FFE03FF8
FFC01FF8
FFC01FF8
FF801FF8
FF800FF8
FF9FFFF8
FF9FFFF8
FF9FFFF8
FF9FFFF8
FF9FFFF8
FF9FFFF8
FF9FFFF8
FF9FFFF8
FF9FFFF8
FF9FFFF8
FF800FF8
FF800FF8
FF800FF8
FF800FF8
FF800FF8
FF800FF8
FF800FF8
FF800FF8
FF800FF8
FF800FF8
FF800FF8
FF800FF8
FF800FF8
FF800FF8
ENDCHAR
STARTCHAR 1EB5
ENCODING 7861
SWIDTH 558 0
DWIDTH 31 0
BBX 28 50 1 0
BITMAP
00000700
003C0E00
007FDE00
00FFFE00
01FFFC00
01FFF800
01C0F000
03800000
00000000
00000000
03C00E00
03C01E00
01C01E00
01E03C00
01FFFC00
00FFF800
007FF800
003FE000
00020000
00000000
00000000
00000000
003FC000
01FFF800
03FFFC00
07FFFF00
0FFFFF80
1FFFFF80
3FFFFFC0
3FFFFFE0
7FFFFFE0
7FE07FE0
7FC03FF0
FFC01FF0
FF801FF0
FF801FF0
FF801FF0
FF801FF0
FFC01FF0
7FC01FF0
7FE01FF0
7FF8DFF0
3FFFDFF0
3FFFDFF0
1FFFDFF0
1FFFDFF0
0FFFDFF0
07FFDFF0
01FFDFF0
007FDFF0
ENDCHAR
STARTCHAR 1EB6
ENCODING 7862
SWIDTH 612 0
DWIDTH 34 0
BBX 29 65 3 -15
BITMAP
03801E00
03C01E00
03C03C00
01F07C00
01FFFC00
00FFF800
007FF000
001FC000
00000000
00000000
00020000
007FF000
01FFFC00
07FFFF00
0FFFFF80
1FFFFFC0
3FFFFFC0
3FFFFFE0
7FFFFFE0
7FFFFFF0
FFF07FF0
FFE03FF8
FFC01FF8
FFC01FF8
FF801FF8
FF800FF8
FF9FFFF8
FF9FFFF8
FF9FFFF8
FF9FFFF8
FF9FFFF8
FF9FFFF8
FF9FFFF8
FF9FFFF8
FF9FFFF8
FF9FFFF8
FF800FF8
FF800FF8
FF800FF8
FF800FF8
FF800FF8
FF800FF8
FF800FF8
FF800FF8
FF800FF8
FF800FF8
FF800FF8
FF800FF8
FF800FF8
FF800FF8
00000000
00000000
00000000
00000000
001FC000
003FE000
007FE000
007FF000
007FF000
007FF000
007FF000
007FE000
003FE000
001FC000
00020000
ENDCHAR
STARTCHAR 1EB7
ENCODING 7863
SWIDTH 558 0
DWIDTH 31 0
BBX 28 55 1 -15
BITMAP
03C00E00
03C01E00
01C01E00
01E03C00
01FFFC00
00FFF800
007FF800
003FE000
00020000
00000000
00000000
00000000
003FC000
01FFF800
03FFFC00
07FFFF00
0FFFFF80
1FFFFF80
3FFFFFC0
3FFFFFE0
7FFFFFE0
7FE07FE0
7FC03FF0
FFC01FF0
FF801FF0
FF801FF0
FF801FF0
FF801FF0
FFC01FF0
7FC01FF0
7FE01FF0
7FF8DFF0
3FFFDFF0
3FFFDFF0
1FFFDFF0
1FFFDFF0
0FFFDFF0
07FFDFF0
01FFDFF0
007FDFF0
00000000
00000000
00000000
00000000
001FC000
003FE000
003FF000
007FF000
007FF000
007FF000
007FF000
003FF000
003FE000
001FC000
00020000
ENDCHAR
STARTCHAR 1EB8
ENCODING 7864
SWIDTH 522 0
DWIDTH 29 0
BBX 25 54 2 -15
BITMAP
00003F80
0007FF80
003FFF80
00FFFF80
01FFFF80
03FFFF80
07FFFF80
0FFFFF80
1FFFFF80
3FFF8000
3FFE0000
7FF80000
7FF00000
FFE00000
FFE00000
FFFFFF80
FFFFFF80
FFFFFF80
FFFFFF80
FFFFFF80
FFFFFF80
FFFFFF80
FFFFFF80
FFFFFF80
FFC00000
FFE00000
7FF00000
7FF80000
3FFC0000
3FFF8000
1FFFFF80
0FFFFF80
0FFFFF80
07FFFF80
01FFFF80
00FFFF80
003FFF80
000FFF80
00007F80
00000000
00000000
00000000
00000000
0007E000
000FF800
001FF800
001FFC00
001FFC00
001FFC00
001FFC00
001FF800
000FF800
0007F000
00018000
ENDCHAR
STARTCHAR 1EB9
ENCODING 7865
SWIDTH 540 0
DWIDTH 30 0
BBX 29 43 1 -15
BITMAP
001FC000
00FFF800
03FFFC00
07FFFF00
0FFFFF00
1FFFFF80
1FFFFFC0
3FF03FE0
7FE07FE0
7FC1FFC0
7F83FF80
7F8FFE00
FF9FFC00
FF9FF000
FF8FE000
FF8F8380
7F8707E0
7FC007F8
7FE00FF8
7FF03FF0
3FFFFFF0
3FFFFFE0
1FFFFFC0
0FFFFFC0
07FFFF80
03FFFE00
01FFFC00
007FF000
00000000
00000000
00000000
00000000
001F8000
003FE000
007FE000
007FF000
007FF000
007FF000
007FF000
007FE000
003FE000
001FC000
00060000
ENDCHAR
STARTCHAR 1EBA
ENCODING 7866
SWIDTH 522 0
DWIDTH 29 0
BBX 25 53 2 0
BITMAP
0000FC00
0001FE00
0003FF00
0003C780
00038780
00000780
00000F80
00003F00
00003E00
00003C00
00003000
00003000
00000000
00000000
00003F80
0007FF80
003FFF80
00FFFF80
01FFFF80
03FFFF80
07FFFF80
0FFFFF80
1FFFFF80
3FFF8000
3FFE0000
7FF80000
7FF00000
FFE00000
FFE00000
FFFFFF80
FFFFFF80
FFFFFF80
FFFFFF80
FFFFFF80
FFFFFF80
FFFFFF80
FFFFFF80
FFFFFF80
FFC00000
FFE00000
7FF00000
7FF80000
3FFC0000
3FFF8000
1FFFFF80
0FFFFF80
0FFFFF80
07FFFF80
01FFFF80
00FFFF80
003FFF80
000FFF80
00007F80
ENDCHAR
STARTCHAR 1EBB
ENCODING 7867
SWIDTH 540 0
DWIDTH 30 0
BBX 29 43 1 0
BITMAP
00030000
001FC000
003FE000
003FF000
0078F000
00787000
00007000
0001F000
0007E000
0007E000
00078000
00070000
00070000
00000000
00000000
001FC000
00FFF800
03FFFC00
07FFFF00
0FFFFF00
1FFFFF80
1FFFFFC0
3FF03FE0
7FE07FE0
7FC1FFC0
7F83FF80
7F8FFE00
FF9FFC00
FF9FF000
FF8FE000
FF8F8380
7F8707E0
7FC007F8
7FE00FF8
7FF03FF0
3FFFFFF0
3FFFFFE0
1FFFFFC0
0FFFFFC0
07FFFF80
03FFFE00
01FFFC00
007FF000
ENDCHAR
STARTCHAR 1EBC
ENCODING 7868
SWIDTH 522 0
DWIDTH 29 0
BBX 25 51 2 0
BITMAP
00000380
001F8780
003FFF00
007FFF00
007FFE00
00F1FC00
00E00000
00000000
00000000
00000000
00000000
00000000
00003F80
0007FF80
003FFF80
00FFFF80
01FFFF80
03FFFF80
07FFFF80
0FFFFF80
1FFFFF80
3FFF8000
3FFE0000
7FF80000
7FF00000
FFE00000
FFE00000
FFFFFF80
FFFFFF80
FFFFFF80
FFFFFF80
FFFFFF80
FFFFFF80
FFFFFF80
FFFFFF80
FFFFFF80
FFC00000
FFE00000
7FF00000
7FF80000
3FFC0000
3FFF8000
1FFFFF80
0FFFFF80
0FFFFF80
07FFFF80
01FFFF80
00FFFF80
003FFF80
000FFF80
00007F80
ENDCHAR
STARTCHAR 1EBD
ENCODING 7869
SWIDTH 540 0
DWIDTH 30 0
BBX 29 39 1 0
BITMAP
00001C00
00FE1C00
01FFFC00
01FFF800
03FFF800
0387F000
03800000
00000000
00000000
00000000
00000000
001FC000
00FFF800
03FFFC00
07FFFF00
0FFFFF00
1FFFFF80
1FFFFFC0
3FF03FE0
7FE07FE0
7FC1FFC0
7F83FF80
7F8FFE00
FF9FFC00
FF9FF000
FF8FE000
FF8F8380
7F8707E0
7FC007F8
7FE00FF8
7FF03FF0
3FFFFFF0
3FFFFFE0
1FFFFFC0
0FFFFFC0
07FFFF80
03FFFE00
01FFFC00
007FF000
ENDCHAR
STARTCHAR 1EBE
ENCODING 7870
SWIDTH 522 0
DWIDTH 29 0
BBX 25 62 2 0
BITMAP
0003F800
0003F000
0007E000
0007C000
000FC000
001F8000
001F0000
003E0000
003C0000
00780000
00000000
0007F000
000FF000
000FF800
001FF800
003F7C00
003E7C00
007C3E00
00781E00
00F80F00
00F00780
00000000
00000000
00003F80
0007FF80
003FFF80
00FFFF80
01FFFF80
03FFFF80
07FFFF80
0FFFFF80
1FFFFF80
3FFF8000
3FFE0000
7FF80000
7FF00000
FFE00000
FFE00000
FFFFFF80
FFFFFF80
FFFFFF80
FFFFFF80
FFFFFF80
FFFFFF80
FFFFFF80
FFFFFF80
FFFFFF80
FFC00000
FFE00000
7FF00000
7FF80000
3FFC0000
3FFF8000
1FFFFF80
0FFFFF80
0FFFFF80
07FFFF80
01FFFF80
00FFFF80
003FFF80
000FFF80
00007F80
ENDCHAR
STARTCHAR 1EBF
ENCODING 7871
SWIDTH 540 0
DWIDTH 30 0
BBX 29 52 1 0
BITMAP
0007E000
000FE000
001FC000
001F8000
003F0000
003E0000
007C0000
007C0000
00F80000
00F00000
00000000
001FC000
001FC000
003FE000
007FE000
007FF000
00FDF000
00F8F800
01F07800
01E03C00
03C03C00
00000000
00000000
00000000
001FC000
00FFF800
03FFFC00
07FFFF00
0FFFFF00
1FFFFF80
1FFFFFC0
3FF03FE0
7FE07FE0
7FC1FFC0
7F83FF80
7F8FFE00
FF9FFC00
FF9FF000
FF8FE000
FF8F8380
7F8707E0
7FC007F8
7FE00FF8
7FF03FF0
3FFFFFF0
3FFFFFE0
1FFFFFC0
0FFFFFC0
07FFFF80
03FFFE00
01FFFC00
007FF000
ENDCHAR
STARTCHAR 1EC0
ENCODING 7872
SWIDTH 522 0
DWIDTH 29 0
BBX 25 62 2 0
BITMAP
001FC000
000FE000
0007E000
0003F000
0001F000
0000F800
00007C00
00007C00
00003E00
00001E00
00000000
0007F000
000FF000
000FF800
001FF800
003F7C00
003E7C00
007C3E00
00781E00
00F80F00
00F00780
00000000
00000000
00003F80
0007FF80
003FFF80
00FFFF80
01FFFF80
03FFFF80
07FFFF80
0FFFFF80
1FFFFF80
3FFF8000
3FFE0000
7FF80000
7FF00000
FFE00000
FFE00000
FFFFFF80
FFFFFF80
FFFFFF80
FFFFFF80
FFFFFF80
FFFFFF80
FFFFFF80
FFFFFF80
FFFFFF80
FFC00000
FFE00000
7FF00000
7FF80000
3FFC0000
3FFF8000
1FFFFF80
0FFFFF80
0FFFFF80
07FFFF80
01FFFF80
00FFFF80
003FFF80
000FFF80
00007F80
ENDCHAR
STARTCHAR 1EC1
ENCODING 7873
SWIDTH 540 0
DWIDTH 30 0
BBX 29 52 1 0
BITMAP
007F0000
003F8000
001F8000
000FC000
0007C000
0003E000
0003E000
0001F000
0000F000
00007800
00000000
001FC000
001FC000
003FE000
007FE000
007FF000
00FDF000
00F8F800
01F07800
01E03C00
03C03C00
00000000
00000000
00000000
001FC000
00FFF800
03FFFC00
07FFFF00
0FFFFF00
1FFFFF80
1FFFFFC0
3FF03FE0
7FE07FE0
7FC1FFC0
7F83FF80
7F8FFE00
FF9FFC00
FF9FF000
FF8FE000
FF8F8380
7F8707E0
7FC007F8
7FE00FF8
7FF03FF0
3FFFFFF0
3FFFFFE0
1FFFFFC0
0FFFFFC0
07FFFF80
03FFFE00
01FFFC00
007FF000
ENDCHAR
STARTCHAR 1EC2
ENCODING 7874
SWIDTH 522 0
DWIDTH 29 0
BBX 29 63 2 0
BITMAP
00000100
000007E0
00001FF0
00001FF8
00003C78
00003C38
00000038
00000078
000003F8
000003F0
000003C0
00000380
0007F380
000FF000
000FF800
001FF800
003F7C00
003E7C00
007C3E00
00781E00
00F80F00
00F00780
00000000
00000000
00003F80
0007FF80
003FFF80
00FFFF80
01FFFF80
03FFFF80
07FFFF80
0FFFFF80
1FFFFF80
3FFF8000
3FFE0000
7FF80000
7FF00000
FFE00000
FFE00000
FFFFFF80
FFFFFF80
FFFFFF80
FFFFFF80
FFFFFF80
FFFFFF80
FFFFFF80
FFFFFF80
FFFFFF80
FFC00000
FFE00000
7FF00000
7FF80000
3FFC0000
3FFF8000
1FFFFF80
0FFFFF80
0FFFFF80
07FFFF80
01FFFF80
00FFFF80
003FFF80
000FFF80
00007F80
ENDCHAR
STARTCHAR 1EC3
ENCODING 7875
SWIDTH 540 0
DWIDTH 30 0
BBX 29 52 1 0
BITMAP
00000F00
00003FC0
00007FC0
00007BE0
0000F0E0
000070E0
000000E0
000003E0
00000FC0
00000F80
00000E00
001FCE00
001FC000
003FE000
007FE000
007FF000
00FDF000
00F8F800
01F07800
01E03C00
03C03C00
00000000
00000000
00000000
001FC000
00FFF800
03FFFC00
07FFFF00
0FFFFF00
1FFFFF80
1FFFFFC0
3FF03FE0
7FE07FE0
7FC1FFC0
7F83FF80
7F8FFE00
FF9FFC00
FF9FF000
FF8FE000
FF8F8380
7F8707E0
7FC007F8
7FE00FF8
7FF03FF0
3FFFFFF0
3FFFFFE0
1FFFFFC0
0FFFFFC0
07FFFF80
03FFFE00
01FFFC00
007FF000
ENDCHAR
STARTCHAR 1EC4
ENCODING 7876
SWIDTH 522 0
DWIDTH 29 0
BBX 26 60 2 0
BITMAP
000001C0
000FC3C0
001FFFC0
003FFF80
003FFF00
00387E00
00700000
00000000
00000000
0007F000
000FF000
000FF800
001FF800
003F7C00
003E7C00
007C3E00
00781E00
00F80F00
00F00780
00000000
00000000
00003F80
0007FF80
003FFF80
00FFFF80
01FFFF80
03FFFF80
07FFFF80
0FFFFF80
1FFFFF80
3FFF8000
3FFE0000
7FF80000
7FF00000
FFE00000
FFE00000
FFFFFF80
FFFFFF80
FFFFFF80
FFFFFF80
FFFFFF80
FFFFFF80
FFFFFF80
FFFFFF80
FFFFFF80
FFC00000
FFE00000
7FF00000
7FF80000
3FFC0000
3FFF8000
1FFFFF80
0FFFFF80
0FFFFF80
07FFFF80
01FFFF80
00FFFF80
003FFF80
000FFF80
00007F80
ENDCHAR
STARTCHAR 1EC5
ENCODING 7877
SWIDTH 540 0
DWIDTH 30 0
BBX 29 50 1 0
BITMAP
00000380
001E0700
003FEF00
007FFF00
00FFFE00
00FFFC00
00E07800
01C00000
00000000
001FC000
001FC000
003FE000
007FE000
007FF000
00FDF000
00F8F800
01F07800
01E03C00
03C03C00
00000000
00000000
00000000
001FC000
00FFF800
03FFFC00
07FFFF00
0FFFFF00
1FFFFF80
1FFFFFC0
3FF03FE0
7FE07FE0
7FC1FFC0
7F83FF80
7F8FFE00
FF9FFC00
FF9FF000
FF8FE000
FF8F8380
7F8707E0
7FC007F8
7FE00FF8
7FF03FF0
3FFFFFF0
3FFFFFE0
1FFFFFC0
0FFFFFC0
07FFFF80
03FFFE00
01FFFC00
007FF000
ENDCHAR
STARTCHAR 1EC6
ENCODING 7878
SWIDTH 522 0
DWIDTH 29 0
BBX 25 66 2 -15
BITMAP
0007F000
000FF000
000FF800
001FF800
003F7C00
003E7C00
007C3E00
00781E00
00F80F00
00F00780
00000000
00000000
00003F80
0007FF80
003FFF80
00FFFF80
01FFFF80
03FFFF80
07FFFF80
0FFFFF80
1FFFFF80
3FFF8000
3FFE0000
7FF80000
7FF00000
FFE00000
FFE00000
FFFFFF80
FFFFFF80
FFFFFF80
FFFFFF80
FFFFFF80
FFFFFF80
FFFFFF80
FFFFFF80
FFFFFF80
FFC00000
FFE00000
7FF00000
7FF80000
3FFC0000
3FFF8000
1FFFFF80
0FFFFF80
0FFFFF80
07FFFF80
01FFFF80
00FFFF80
003FFF80
000FFF80
00007F80
00000000
00000000
00000000
00000000
0007E000
000FF800
001FF800
001FFC00
001FFC00
001FFC00
001FFC00
001FF800
000FF800
0007F000
00018000
ENDCHAR
STARTCHAR 1EC7
ENCODING 7879
SWIDTH 540 0
DWIDTH 30 0
BBX 29 56 1 -15
BITMAP
001FC000
001FC000
003FE000
007FE000
007FF000
00FDF000
00F8F800
01F07800
01E03C00
03C03C00
00000000
00000000
00000000
001FC000
00FFF800
03FFFC00
07FFFF00
0FFFFF00
1FFFFF80
1FFFFFC0
3FF03FE0
7FE07FE0
7FC1FFC0
7F83FF80
7F8FFE00
FF9FFC00
FF9FF000
FF8FE000
FF8F8380
7F8707E0
7FC007F8
7FE00FF8
7FF03FF0
3FFFFFF0
3FFFFFE0
1FFFFFC0
0FFFFFC0
07FFFF80
03FFFE00
01FFFC00
007FF000
00000000
00000000
00000000
00000000
001F8000
003FE000
007FE000
007FF000
007FF000
007FF000
007FF000
007FE000
003FE000
001FC000
00060000
ENDCHAR
STARTCHAR 1EC8
ENCODING 7880
SWIDTH 270 0
DWIDTH 15 0
BBX 11 53 3 0
BITMAP
3F00
7F80
FFC0
F3C0
E1E0
01E0
03C0
1FC0
1F80
1F00
1C00
1C00
0000
0000
FFC0
FFC0
FFC0
FFC0
FFC0
FFC0
FFC0
FFC0
FFC0
FFC0
FFC0
FFC0
FFC0
FFC0
FFC0
FFC0
FFC0
FFC0
FFC0
FFC0
FFC0
FFC0
FFC0
FFC0
FFC0
FFC0
FFC0
FFC0
FFC0
FFC0
FFC0
FFC0
FFC0
FFC0
FFC0
FFC0
FFC0
FFC0
FFC0
ENDCHAR
STARTCHAR 1EC9
ENCODING 7881
SWIDTH 234 0
DWIDTH 13 0
BBX 11 43 2 0
BITMAP
0C00
3F80
7FC0
FFC0
F1E0
E1E0
01E0
03E0
0FC0
0F80
0E00
0C00
0C00
0000
0000
7F80
7F80
7F80
7F80
7F80
7F80
7F80
7F80
7F80
7F80
7F80
7F80
7F80
7F80
7F80
7F80
7F80
7F80
7F80
7F80
7F80
7F80
7F80
7F80
7F80
7F80
7F80
7F80
ENDCHAR
STARTCHAR 1ECA
ENCODING 7882
SWIDTH 270 0
DWIDTH 15 0
BBX 11 54 2 -15
BITMAP
7FE0
7FE0
7FE0
7FE0
7FE0
7FE0
7FE0
7FE0
7FE0
7FE0
7FE0
7FE0
7FE0
7FE0
7FE0
7FE0
7FE0
7FE0
7FE0
7FE0
7FE0
7FE0
7FE0
7FE0
7FE0
7FE0
7FE0
7FE0
7FE0
7FE0
7FE0
7FE0
7FE0
7FE0
7FE0
7FE0
7FE0
7FE0
7FE0
0000
0000
0000
0000
1F80
3FC0
7FE0
7FE0
FFE0
FFE0
FFE0
7FE0
7FC0
3F80
0600
ENDCHAR
STARTCHAR 1ECB
ENCODING 7883
SWIDTH 234 0
DWIDTH 13 0
BBX 12 55 1 -15
BITMAP
0F00
3FC0
3FC0
7FE0
7FE0
7FE0
7FE0
7FC0
3FC0
0F00
0000
0000
3FC0
3FC0
3FC0
3FC0
3FC0
3FC0
3FC0
3FC0
3FC0
3FC0
3FC0
3FC0
3FC0
3FC0
3FC0
3FC0
3FC0
3FC0
3FC0
3FC0
3FC0
3FC0
3FC0
3FC0
3FC0
3FC0
3FC0
3FC0
0000
0000
0000
0000
1F80
3FC0
7FE0
7FE0
FFE0
FFF0
7FE0
7FE0
3FC0
3F80
0E00
ENDCHAR
STARTCHAR 1ECC
ENCODING 7884
SWIDTH 756 0
DWIDTH 42 0
BBX 39 54 2 -14
BITMAP
0007FFC000
001FFFF000
007FFFFC00
01FFFFFF00
03FFFFFF80
07FFFFFFC0
0FFFFFFFE0
1FFFFFFFE0
1FFFFFFFF0
3FFF83FFF8
3FFC007FF8
7FF8003FFC
7FF0001FFC
FFE0000FFE
FFE0000FFE
FFC00007FE
FFC00007FE
FFC00007FE
FF800007FE
FF800007FE
FF800007FE
FFC00007FE
FFC00007FE
FFC00007FE
FFE0000FFE
FFE0000FFE
7FF0001FFC
7FF8003FFC
3FFC007FF8
3FFF01FFF8
1FFFFFFFF0
1FFFFFFFF0
0FFFFFFFE0
07FFFFFFC0
03FFFFFF80
01FFFFFF00
007FFFFC00
003FFFF800
0007FFE000
0000380000
0000000000
0000000000
0000000000
0000FE0000
0001FF0000
0003FF0000
0003FF8000
0003FF8000
0003FF8000
0003FF8000
0003FF0000
0001FF0000
0000FE0000
0000100000
ENDCHAR
STARTCHAR 1ECD
ENCODING 7885
SWIDTH 540 0
DWIDTH 30 0
BBX 28 43 1 -15
BITMAP
003FC000
00FFF800
03FFFC00
07FFFF00
0FFFFF80
1FFFFF80
1FFFFFC0
3FFFFFE0
3FFFFFE0
7FE07FE0
7FC03FF0
7FC01FF0
FF801FF0
FF801FF0
FF801FF0
FF801FF0
7FC01FF0
7FC03FF0
7FE07FF0
7FF8FFE0
3FFFFFE0
3FFFFFC0
1FFFFFC0
0FFFFF80
07FFFF00
03FFFE00
01FFF800
007FF000
00000000
00000000
00000000
00000000
001F8000
003FE000
007FE000
007FF000
007FF000
007FF000
007FF000
007FE000
003FE000
001FC000
00060000
ENDCHAR
STARTCHAR 1ECE
ENCODING 7886
SWIDTH 756 0
DWIDTH 42 0
BBX 39 54 2 -1
BITMAP
00007E0000
0000FF0000
0001FF8000
0001C78000
0003C38000
0000038000
0000078000
00003F8000
00003F0000
00003C0000
0000380000
0000380000
0000000000
0000000000
0007FFC000
001FFFF000
007FFFFC00
01FFFFFF00
03FFFFFF80
07FFFFFFC0
0FFFFFFFE0
1FFFFFFFE0
1FFFFFFFF0
3FFF83FFF8
3FFC007FF8
7FF8003FFC
7FF0001FFC
FFE0000FFE
FFE0000FFE
FFC00007FE
FFC00007FE
FFC00007FE
FF800007FE
FF800007FE
FF800007FE
FFC00007FE
FFC00007FE
FFC00007FE
FFE0000FFE
FFE0000FFE
7FF0001FFC
7FF8003FFC
3FFC007FF8
3FFF01FFF8
1FFFFFFFF0
1FFFFFFFF0
0FFFFFFFE0
07FFFFFFC0
03FFFFFF80
01FFFFFF00
007FFFFC00
003FFFF800
0007FFE000
0000380000
ENDCHAR
STARTCHAR 1ECF
ENCODING 7887
SWIDTH 540 0
DWIDTH 30 0
BBX 28 43 1 0
BITMAP
00030000
001FC000
003FE000
003FF000
0078F000
00787000
00007000
0001F000
0007E000
0007E000
00078000
00070000
00070000
00000000
00000000
003FC000
00FFF800
03FFFC00
07FFFF00
0FFFFF80
1FFFFF80
1FFFFFC0
3FFFFFE0
3FFFFFE0
7FE07FE0
7FC03FF0
7FC01FF0
FF801FF0
FF801FF0
FF801FF0
FF801FF0
7FC01FF0
7FC03FF0
7FE07FF0
7FF8FFE0
3FFFFFE0
3FFFFFC0
1FFFFFC0
0FFFFF80
07FFFF00
03FFFE00
01FFF800
007FF000
ENDCHAR
STARTCHAR 1ED0
ENCODING 7888
SWIDTH 756 0
DWIDTH 42 0
BBX 39 63 2 -1
BITMAP
00007F0000
00007E0000
0000FC0000
0000FC0000
0001F80000
0001F00000
0003E00000
0003C00000
0007800000
0007800000
0000000000
0000FE0000
0001FF0000
0001FF0000
0003FF8000
0003EF8000
0007C7C000
000787C000
000F83E000
000F01E000
001E00F000
0000000000
0000000000
0007FFC000
001FFFF000
007FFFFC00
01FFFFFF00
03FFFFFF80
07FFFFFFC0
0FFFFFFFE0
1FFFFFFFE0
1FFFFFFFF0
3FFF83FFF8
3FFC007FF8
7FF8003FFC
7FF0001FFC
FFE0000FFE
FFE0000FFE
FFC00007FE
FFC00007FE
FFC00007FE
FF800007FE
FF800007FE
FF800007FE
FFC00007FE
FFC00007FE
FFC00007FE
FFE0000FFE
FFE0000FFE
7FF0001FFC
7FF8003FFC
3FFC007FF8
3FFF01FFF8
1FFFFFFFF0
1FFFFFFFF0
0FFFFFFFE0
07FFFFFFC0
03FFFFFF80
01FFFFFF00
007FFFFC00
003FFFF800
0007FFE000
0000380000
ENDCHAR
STARTCHAR 1ED1
ENCODING 7889
SWIDTH 540 0
DWIDTH 30 0
BBX 28 52 1 0
BITMAP
000FE000
000FE000
001FC000
001F8000
003F0000
003E0000
007C0000
007C0000
00F80000
00F00000
00000000
001FC000
003FC000
003FE000
007FE000
007FF000
00FDF000
00F8F800
01F07800
01E03C00
03C03C00
00000000
00000000
00000000
003FC000
00FFF800
03FFFC00
07FFFF00
0FFFFF80
1FFFFF80
1FFFFFC0
3FFFFFE0
3FFFFFE0
7FE07FE0
7FC03FF0
7FC01FF0
FF801FF0
FF801FF0
FF801FF0
FF801FF0
7FC01FF0
7FC03FF0
7FE07FF0
7FF8FFE0
3FFFFFE0
3FFFFFC0
1FFFFFC0
0FFFFF80
07FFFF00
03FFFE00
01FFF800
007FF000
ENDCHAR
STARTCHAR 1ED2
ENCODING 7890
SWIDTH 756 0
DWIDTH 42 0
BBX 39 63 2 -1
BITMAP
0001FC0000
0000FC0000
0000FE0000
00007E0000
00003F0000
00001F0000
00000F8000
0000078000
000003C000
000003C000
0000000000
0000FE0000
0001FF0000
0001FF0000
0003FF8000
0003EF8000
0007C7C000
000787C000
000F83E000
000F01E000
001E00F000
0000000000
0000000000
0007FFC000
001FFFF000
007FFFFC00
01FFFFFF00
03FFFFFF80
07FFFFFFC0
0FFFFFFFE0
1FFFFFFFE0
1FFFFFFFF0
3FFF83FFF8
3FFC007FF8
7FF8003FFC
7FF0001FFC
FFE0000FFE
FFE0000FFE
FFC00007FE
FFC00007FE
FFC00007FE
FF800007FE
FF800007FE
FF800007FE
FFC00007FE
FFC00007FE
FFC00007FE
FFE0000FFE
FFE0000FFE
7FF0001FFC
7FF8003FFC
3FFC007FF8
3FFF01FFF8
1FFFFFFFF0
1FFFFFFFF0
0FFFFFFFE0
07FFFFFFC0
03FFFFFF80
01FFFFFF00
007FFFFC00
003FFFF800
0007FFE000
0000380000
ENDCHAR
STARTCHAR 1ED3
ENCODING 7891
SWIDTH 540 0
DWIDTH 30 0
BBX 28 52 1 0
BITMAP
007F0000
003F8000
001F8000
000FC000
0007C000
0007E000
0003E000
0001F000
0000F000
00007800
00000000
001FC000
003FC000
003FE000
007FE000
007FF000
00FDF000
00F8F800
01F07800
01E03C00
03C03C00
00000000
00000000
00000000
003FC000
00FFF800
03FFFC00
07FFFF00
0FFFFF80
1FFFFF80
1FFFFFC0
3FFFFFE0
3FFFFFE0
7FE07FE0
7FC03FF0
7FC01FF0
FF801FF0
FF801FF0
FF801FF0
FF801FF0
7FC01FF0
7FC03FF0
7FE07FF0
7FF8FFE0
3FFFFFE0
3FFFFFC0
1FFFFFC0
0FFFFF80
07FFFF00
03FFFE00
01FFF800
007FF000
ENDCHAR
STARTCHAR 1ED4
ENCODING 7892
SWIDTH 756 0
DWIDTH 42 0
BBX 39 63 2 0
BITMAP
000000FC00
000001FE00
000003FF00
0000038F00
0000078700
0000000700
0000000F00
0000007F00
0000007E00
0000007800
0000007000
0000FE7000
0001FF0000
0001FF0000
0003FF8000
0003EF8000
0007C7C000
000787C000
000F83E000
000F01E000
001E00F000
0000000000
0000000000
0007FFC000
001FFFF000
007FFFFC00
01FFFFFF00
03FFFFFF80
07FFFFFFC0
0FFFFFFFE0
1FFFFFFFE0
1FFFFFFFF0
3FFF83FFF8
3FFC007FF8
7FF8003FFC
7FF0001FFC
FFE0000FFE
FFE0000FFE
FFC00007FE
FFC00007FE
FFC00007FE
FF800007FE
FF800007FE
FF800007FE
FFC00007FE
FFC00007FE
FFC00007FE
FFE0000FFE
FFE0000FFE
7FF0001FFC
7FF8003FFC
3FFC007FF8
3FFF01FFF8
1FFFFFFFF0
1FFFFFFFF0
0FFFFFFFE0
07FFFFFFC0
03FFFFFF80
01FFFFFF00
007FFFFC00
003FFFF800
0007FFE000
0000380000
ENDCHAR
STARTCHAR 1ED5
ENCODING 7893
SWIDTH 540 0
DWIDTH 30 0
BBX 28 52 1 0
BITMAP
00000F00
00003F80
00007FC0
00007BE0
0000F0E0
000070E0
000001E0
000007E0
00000FC0
00000F80
00000E00
001FCE00
003FC000
003FE000
007FE000
007FF000
00FDF000
00F8F800
01F07800
01E03C00
03C03C00
00000000
00000000
00000000
003FC000
00FFF800
03FFFC00
07FFFF00
0FFFFF80
1FFFFF80
1FFFFFC0
3FFFFFE0
3FFFFFE0
7FE07FE0
7FC03FF0
7FC01FF0
FF801FF0
FF801FF0
FF801FF0
FF801FF0
7FC01FF0
7FC03FF0
7FE07FF0
7FF8FFE0
3FFFFFE0
3FFFFFC0
1FFFFFC0
0FFFFF80
07FFFF00
03FFFE00
01FFF800
007FF000
ENDCHAR
STARTCHAR 1ED6
ENCODING 7894
SWIDTH 756 0
DWIDTH 42 0
BBX 39 61 2 -1
BITMAP
0000003C00
0001FC3800
0003FFF800
0003FFF000
0007FFF000
00070FE000
0007000000
0000000000
0000000000
0000FE0000
0001FF0000
0001FF0000
0003FF8000
0003EF8000
0007C7C000
000787C000
000F83E000
000F01E000
001E00F000
0000000000
0000000000
0007FFC000
001FFFF000
007FFFFC00
01FFFFFF00
03FFFFFF80
07FFFFFFC0
0FFFFFFFE0
1FFFFFFFE0
1FFFFFFFF0
3FFF83FFF8
3FFC007FF8
7FF8003FFC
7FF0001FFC
FFE0000FFE
FFE0000FFE
FFC00007FE
FFC00007FE
FFC00007FE
FF800007FE
FF800007FE
FF800007FE
FFC00007FE
FFC00007FE
FFC00007FE
FFE0000FFE
FFE0000FFE
7FF0001FFC
7FF8003FFC
3FFC007FF8
3FFF01FFF8
1FFFFFFFF0
1FFFFFFFF0
0FFFFFFFE0
07FFFFFFC0
03FFFFFF80
01FFFFFF00
007FFFFC00
003FFFF800
0007FFE000
0000380000
ENDCHAR
STARTCHAR 1ED7
ENCODING 7895
SWIDTH 540 0
DWIDTH 30 0
BBX 28 50 1 0
BITMAP
00000700
000C0700
003FEF00
007FFF00
00FFFE00
00FFFC00
00E07000
01C00000
00000000
001FC000
003FC000
003FE000
007FE000
007FF000
00FDF000
00F8F800
01F07800
01E03C00
03C03C00
00000000
00000000
00000000
003FC000
00FFF800
03FFFC00
07FFFF00
0FFFFF80
1FFFFF80
1FFFFFC0
3FFFFFE0
3FFFFFE0
7FE07FE0
7FC03FF0
7FC01FF0
FF801FF0
FF801FF0
FF801FF0
FF801FF0
7FC01FF0
7FC03FF0
7FE07FF0
7FF8FFE0
3FFFFFE0
3FFFFFC0
1FFFFFC0
0FFFFF80
07FFFF00
03FFFE00
01FFF800
007FF000
ENDCHAR
STARTCHAR 1ED8
ENCODING 7896
SWIDTH 756 0
DWIDTH 42 0
BBX 39 66 2 -15
BITMAP
0000FE0000
0001FF0000
0001FF0000
0003FF8000
0003EF8000
0007C7C000
000787C000
000F83E000
000F01E000
001E00F000
0000000000
0000000000
0007FFC000
001FFFF000
007FFFFC00
01FFFFFF00
03FFFFFF80
07FFFFFFC0
0FFFFFFFE0
1FFFFFFFE0
1FFFFFFFF0
3FFF83FFF8
3FFC007FF8
7FF8003FFC
7FF0001FFC
FFE0000FFE
FFE0000FFE
FFC00007FE
FFC00007FE
FFC00007FE
FF800007FE
FF800007FE
FF800007FE
FFC00007FE
FFC00007FE
FFC00007FE
FFE0000FFE
FFE0000FFE
7FF0001FFC
7FF8003FFC
3FFC007FF8
3FFF01FFF8
1FFFFFFFF0
1FFFFFFFF0
0FFFFFFFE0
07FFFFFFC0
03FFFFFF80
01FFFFFF00
007FFFFC00
003FFFF800
0007FFE000
0000380000
0000000000
0000000000
0000000000
0000FE0000
0001FF0000
0003FF0000
0003FF8000
0003FF8000
0003FF8000
0003FF8000
0003FF0000
0001FF0000
0000FE0000
0000100000
ENDCHAR
STARTCHAR 1ED9
ENCODING 7897
SWIDTH 540 0
DWIDTH 30 0
BBX 28 56 1 -15
BITMAP
001FC000
003FC000
003FE000
007FE000
007FF000
00FDF000
00F8F800
01F07800
01E03C00
03C03C00
00000000
00000000
00000000
003FC000
00FFF800
03FFFC00
07FFFF00
0FFFFF80
1FFFFF80
1FFFFFC0
3FFFFFE0
3FFFFFE0
7FE07FE0
7FC03FF0
7FC01FF0
FF801FF0
FF801FF0
FF801FF0
FF801FF0
7FC01FF0
7FC03FF0
7FE07FF0
7FF8FFE0
3FFFFFE0
3FFFFFC0
1FFFFFC0
0FFFFF80
07FFFF00
03FFFE00
01FFF800
007FF000
00000000
00000000
00000000
00000000
001F8000
003FE000
007FE000
007FF000
007FF000
007FF000
007FF000
007FE000
003FE000
001FC000
00060000
ENDCHAR
STARTCHAR 1EDA
ENCODING 7898
SWIDTH 756 0
DWIDTH 42 0
BBX 40 54 2 -1
BITMAP
00000FE000
00000FE000
00001FC000
00001F8000
00003F0000
00003E0000
00007C0000
00007C0000
0000F80000
0000F00000
0001E00000
000000007F
000000007F
00000000FE
0007FFC0FE
001FFFF1FC
007FFFFDFC
01FFFFFFF8
03FFFFFFF8
07FFFFFFF0
0FFFFFFFF0
1FFFFFFFE0
1FFFFFFFF0
3FFF83FFF8
3FFC007FF8
7FF8003FFC
7FF0001FFC
FFE0000FFE
FFE0000FFE
FFC00007FE
FFC00007FE
FFC00007FE
FF800007FE
FF800007FE
FF800007FE
FFC00007FE
FFC00007FE
FFC00007FE
FFE0000FFE
FFE0000FFE
7FF0001FFC
7FF8003FFC
3FFC007FF8
3FFF01FFF8
1FFFFFFFF0
1FFFFFFFF0
0FFFFFFFE0
07FFFFFFC0
03FFFFFF80
01FFFFFF00
007FFFFC00
003FFFF800
0007FFE000
0000380000
ENDCHAR
STARTCHAR 1EDB
ENCODING 7899
SWIDTH 540 0
DWIDTH 30 0
BBX 31 41 1 0
BITMAP
0001FC00
0001F800
0003F800
0003F000
0007E000
0007C000
000F8000
001F0000
001E0000
003E00FE
000001FE
000001FC
000001FC
003FC3F8
00FFFBF8
03FFFFF0
07FFFFF0
0FFFFFE0
1FFFFFE0
1FFFFFC0
3FFFFFE0
3FFFFFE0
7FE07FE0
7FC03FF0
7FC01FF0
FF801FF0
FF801FF0
FF801FF0
FF801FF0
7FC01FF0
7FC03FF0
7FE07FF0
7FF8FFE0
3FFFFFE0
3FFFFFC0
1FFFFFC0
0FFFFF80
07FFFF00
03FFFE00
01FFF800
007FF000
ENDCHAR
STARTCHAR 1EDC
ENCODING 7900
SWIDTH 756 0
DWIDTH 42 0
BBX 40 54 2 -1
BITMAP
000FE00000
000FE00000
0007F00000
0003F00000
0001F80000
0000F80000
00007C0000
00007C0000
00003E0000
00001E0000
00000F0000
000000007F
000000007F
00000000FE
0007FFC0FE
001FFFF1FC
007FFFFDFC
01FFFFFFF8
03FFFFFFF8
07FFFFFFF0
0FFFFFFFF0
1FFFFFFFE0
1FFFFFFFF0
3FFF83FFF8
3FFC007FF8
7FF8003FFC
7FF0001FFC
FFE0000FFE
FFE0000FFE
FFC00007FE
FFC00007FE
FFC00007FE
FF800007FE
FF800007FE
FF800007FE
FFC00007FE
FFC00007FE
FFC00007FE
FFE0000FFE
FFE0000FFE
7FF0001FFC
7FF8003FFC
3FFC007FF8
3FFF01FFF8
1FFFFFFFF0
1FFFFFFFF0
0FFFFFFFE0
07FFFFFFC0
03FFFFFF80
01FFFFFF00
007FFFFC00
003FFFF800
0007FFE000
0000380000
ENDCHAR
STARTCHAR 1EDD
ENCODING 7901
SWIDTH 540 0
DWIDTH 30 0
BBX 31 41 1 0
BITMAP
03F80000
01FC0000
00FE0000
007E0000
003F0000
001F0000
000F8000
000F8000
0007C000
0003C0FE
000001FE
000001FC
000001FC
003FC3F8
00FFFBF8
03FFFFF0
07FFFFF0
0FFFFFE0
1FFFFFE0
1FFFFFC0
3FFFFFE0
3FFFFFE0
7FE07FE0
7FC03FF0
7FC01FF0
FF801FF0
FF801FF0
FF801FF0
FF801FF0
7FC01FF0
7FC03FF0
7FE07FF0
7FF8FFE0
3FFFFFE0
3FFFFFC0
1FFFFFC0
0FFFFF80
07FFFF00
03FFFE00
01FFF800
007FF000
ENDCHAR
STARTCHAR 1EDE
ENCODING 7902
SWIDTH 756 0
DWIDTH 42 0
BBX 40 54 2 -1
BITMAP
00007E0000
0000FF0000
0001FF8000
0001C78000
0003C38000
0000038000
0000078000
00003F8000
00003F0000
00003C0000
0000380000
000038007F
000000007F
00000000FE
0007FFC0FE
001FFFF1FC
007FFFFDFC
01FFFFFFF8
03FFFFFFF8
07FFFFFFF0
0FFFFFFFF0
1FFFFFFFE0
1FFFFFFFF0
3FFF83FFF8
3FFC007FF8
7FF8003FFC
7FF0001FFC
FFE0000FFE
FFE0000FFE
FFC00007FE
FFC00007FE
FFC00007FE
FF800007FE
FF800007FE
FF800007FE
FFC00007FE
FFC00007FE
FFC00007FE
FFE0000FFE
FFE0000FFE
7FF0001FFC
7FF8003FFC
3FFC007FF8
3FFF01FFF8
1FFFFFFFF0
1FFFFFFFF0
0FFFFFFFE0
07FFFFFFC0
03FFFFFF80
01FFFFFF00
007FFFFC00
003FFFF800
0007FFE000
0000380000
ENDCHAR
STARTCHAR 1EDF
ENCODING 7903
SWIDTH 540 0
DWIDTH 30 0
BBX 31 43 1 0
BITMAP
00030000
001FC000
003FE000
003FF000
0078F000
00787000
00007000
0001F000
0007E000
0007E000
00078000
000700FE
000701FE
000001FC
000001FC
003FC3F8
00FFFBF8
03FFFFF0
07FFFFF0
0FFFFFE0
1FFFFFE0
1FFFFFC0
3FFFFFE0
3FFFFFE0
7FE07FE0
7FC03FF0
7FC01FF0
FF801FF0
FF801FF0
FF801FF0
FF801FF0
7FC01FF0
7FC03FF0
7FE07FF0
7FF8FFE0
3FFFFFE0
3FFFFFC0
1FFFFFC0
0FFFFF80
07FFFF00
03FFFE00
01FFF800
007FF000
ENDCHAR
STARTCHAR 1EE0
ENCODING 7904
SWIDTH 756 0
DWIDTH 42 0
BBX 40 52 2 -1
BITMAP
0000007000
0003F0F000
0007FFE000
000FFFE000
000FFFC000
001E3F8000
001C000000
0000000000
0000000000
000000007F
000000007F
00000000FE
0007FFC0FE
001FFFF1FC
007FFFFDFC
01FFFFFFF8
03FFFFFFF8
07FFFFFFF0
0FFFFFFFF0
1FFFFFFFE0
1FFFFFFFF0
3FFF83FFF8
3FFC007FF8
7FF8003FFC
7FF0001FFC
FFE0000FFE
FFE0000FFE
FFC00007FE
FFC00007FE
FFC00007FE
FF800007FE
FF800007FE
FF800007FE
FFC00007FE
FFC00007FE
FFC00007FE
FFE0000FFE
FFE0000FFE
7FF0001FFC
7FF8003FFC
3FFC007FF8
3FFF01FFF8
1FFFFFFFF0
1FFFFFFFF0
0FFFFFFFE0
07FFFFFFC0
03FFFFFF80
01FFFFFF00
007FFFFC00
003FFFF800
0007FFE000
0000380000
ENDCHAR
STARTCHAR 1EE1
ENCODING 7905
SWIDTH 540 0
DWIDTH 30 0
BBX 31 39 1 0
BITMAP
00000E00
007E1C00
00FFFC00
01FFFC00
03FFF800
03C3F000
03800000
000000FE
000001FE
000001FC
000001FC
003FC3F8
00FFFBF8
03FFFFF0
07FFFFF0
0FFFFFE0
1FFFFFE0
1FFFFFC0
3FFFFFE0
3FFFFFE0
7FE07FE0
7FC03FF0
7FC01FF0
FF801FF0
FF801FF0
FF801FF0
FF801FF0
7FC01FF0
7FC03FF0
7FE07FF0
7FF8FFE0
3FFFFFE0
3FFFFFC0
1FFFFFC0
0FFFFF80
07FFFF00
03FFFE00
01FFF800
007FF000
ENDCHAR
STARTCHAR 1EE2
ENCODING 7906
SWIDTH 756 0
DWIDTH 42 0
BBX 40 57 2 -15
BITMAP
000000007F
000000007F
00000000FE
0007FFC0FE
001FFFF1FC
007FFFFDFC
01FFFFFFF8
03FFFFFFF8
07FFFFFFF0
0FFFFFFFF0
1FFFFFFFE0
1FFFFFFFF0
3FFF83FFF8
3FFC007FF8
7FF8003FFC
7FF0001FFC
FFE0000FFE
FFE0000FFE
FFC00007FE
FFC00007FE
FFC00007FE
FF800007FE
FF800007FE
FF800007FE
FFC00007FE
FFC00007FE
FFC00007FE
FFE0000FFE
FFE0000FFE
7FF0001FFC
7FF8003FFC
3FFC007FF8
3FFF01FFF8
1FFFFFFFF0
1FFFFFFFF0
0FFFFFFFE0
07FFFFFFC0
03FFFFFF80
01FFFFFF00
007FFFFC00
003FFFF800
0007FFE000
0000380000
0000000000
0000000000
0000000000
0000FE0000
0001FF0000
0003FF0000
0003FF8000
0003FF8000
0003FF8000
0003FF8000
0003FF0000
0001FF0000
0000FE0000
0000100000
ENDCHAR
STARTCHAR 1EE3
ENCODING 7907
SWIDTH 540 0
DWIDTH 30 0
BBX 31 47 1 -15
BITMAP
000000FE
000001FE
000001FC
000001FC
003FC3F8
00FFFBF8
03FFFFF0
07FFFFF0
0FFFFFE0
1FFFFFE0
1FFFFFC0
3FFFFFE0
3FFFFFE0
7FE07FE0
7FC03FF0
7FC01FF0
FF801FF0
FF801FF0
FF801FF0
FF801FF0
7FC01FF0
7FC03FF0
7FE07FF0
7FF8FFE0
3FFFFFE0
3FFFFFC0
1FFFFFC0
0FFFFF80
07FFFF00
03FFFE00
01FFF800
007FF000
00000000
00000000
00000000
00000000
001F8000
003FE000
007FE000
007FF000
007FF000
007FF000
007FF000
007FE000
003FE000
001FC000
00060000
ENDCHAR
STARTCHAR 1EE4
ENCODING 7908
SWIDTH 612 0
DWIDTH 34 0
BBX 29 54 3 -15
BITMAP
FF800FF8
FF800FF8
FF800FF8
FF800FF8
FF800FF8
FF800FF8
FF800FF8
FF800FF8
FF800FF8
FF800FF8
FF800FF8
FF800FF8
FF800FF8
FF800FF8
FF800FF8
FF800FF8
FF800FF8
FF800FF8
FF800FF8
FF800FF8
FF800FF8
FF800FF8
FF800FF8
FF800FF8
FF801FF8
FF801FF8
FFC01FF8
FFC01FF8
FFC03FF8
FFF07FF0
7FFFFFF0
7FFFFFF0
3FFFFFE0
3FFFFFC0
1FFFFFC0
0FFFFF80
07FFFF00
03FFFC00
00FFF800
000F0000
00000000
00000000
00000000
001FC000
003FE000
007FE000
007FF000
007FF000
007FF000
007FF000
007FE000
003FE000
001FC000
00020000
ENDCHAR
STARTCHAR 1EE5
ENCODING 7909
SWIDTH 522 0
DWIDTH 29 0
BBX 25 43 2 -15
BITMAP
FF807F80
FF807F80
FF807F80
FF807F80
FF807F80
FF807F80
FF807F80
FF807F80
FF807F80
FF807F80
FF807F80
FF807F80
FF807F80
FF807F80
FF807F80
FF807F80
FF807F80
FF807F80
7FC0FF80
7FE1FF80
7FFFFF00
7FFFFF00
3FFFFF00
1FFFFE00
1FFFFC00
07FFF800
03FFF000
00FFC000
00000000
00000000
00000000
00000000
003F0000
007F8000
00FFC000
01FFC000
01FFC000
01FFC000
01FFC000
00FFC000
00FF8000
007F0000
000C0000
ENDCHAR
STARTCHAR 1EE6
ENCODING 7910
SWIDTH 612 0
DWIDTH 34 0
BBX 29 54 3 -1
BITMAP
000FC000
001FE000
003FF000
0078F000
00787000
00007000
0000F000
0007F000
0007E000
00078000
00070000
00070000
00000000
00000000
FF800FF8
FF800FF8
FF800FF8
FF800FF8
FF800FF8
FF800FF8
FF800FF8
FF800FF8
FF800FF8
FF800FF8
FF800FF8
FF800FF8
FF800FF8
FF800FF8
FF800FF8
FF800FF8
FF800FF8
FF800FF8
FF800FF8
FF800FF8
FF800FF8
FF800FF8
FF800FF8
FF800FF8
FF801FF8
FF801FF8
FFC01FF8
FFC01FF8
FFC03FF8
FFF07FF0
7FFFFFF0
7FFFFFF0
3FFFFFE0
3FFFFFC0
1FFFFFC0
0FFFFF80
07FFFF00
03FFFC00
00FFF800
000F0000
ENDCHAR
STARTCHAR 1EE7
ENCODING 7911
SWIDTH 522 0
DWIDTH 29 0
BBX 25 43 2 0
BITMAP
000C0000
003F0000
007F8000
00FFC000
00E1C000
00E1E000
0001E000
0003C000
001FC000
001F8000
001E0000
001C0000
001C0000
00000000
00000000
FF807F80
FF807F80
FF807F80
FF807F80
FF807F80
FF807F80
FF807F80
FF807F80
FF807F80
FF807F80
FF807F80
FF807F80
FF807F80
FF807F80
FF807F80
FF807F80
FF807F80
FF807F80
7FC0FF80
7FE1FF80
7FFFFF00
7FFFFF00
3FFFFF00
1FFFFE00
1FFFFC00
07FFF800
03FFF000
00FFC000
ENDCHAR
STARTCHAR 1EE8
ENCODING 7912
SWIDTH 666 0
DWIDTH 37 0
BBX 37 54 3 -1
BITMAP
0001FC0000
0001FC0000
0003F80000
0003F00000
0007E00000
0007C00000
000F800000
000F000000
001F000000
001E000000
003C000000
00000007F8
00000007F0
0000000FF0
FF800FFFE0
FF800FFFE0
FF800FFFC0
FF800FFFC0
FF800FFF80
FF800FFF80
FF800FFF00
FF800FFF00
FF800FFE00
FF800FF800
FF800FF800
FF800FF800
FF800FF800
FF800FF800
FF800FF800
FF800FF800
FF800FF800
FF800FF800
FF800FF800
FF800FF800
FF800FF800
FF800FF800
FF800FF800
FF800FF800
FF801FF800
FF801FF800
FFC01FF800
FFC01FF800
FFC03FF800
FFF07FF000
7FFFFFF000
7FFFFFF000
3FFFFFE000
3FFFFFC000
1FFFFFC000
0FFFFF8000
07FFFF0000
03FFFC0000
00FFF80000
000F000000
ENDCHAR
STARTCHAR 1EE9
ENCODING 7913
SWIDTH 558 0
DWIDTH 31 0
BBX 32 41 2 0
BITMAP
0003F800
0007F000
0007E000
000FC000
000F8000
001F8000
001F0000
003E0000
003C0000
0078007F
0000007F
000000FE
000000FE
FF807FFC
FF807FFC
FF807FF8
FF807FF8
FF807FF0
FF807FF0
FF807FE0
FF807FE0
FF807F80
FF807F80
FF807F80
FF807F80
FF807F80
FF807F80
FF807F80
FF807F80
FF807F80
FF807F80
7FC0FF80
7FE1FF80
7FFFFF00
7FFFFF00
3FFFFF00
1FFFFE00
1FFFFC00
07FFF800
03FFF000
00FFC000
ENDCHAR
STARTCHAR 1EEA
ENCODING 7914
SWIDTH 666 0
DWIDTH 37 0
BBX 37 54 3 -1
BITMAP
03F8000000
01FC000000
00FE000000
007E000000
003F000000
001F000000
001F800000
000F800000
0007C00000
0003C00000
0001E00000
00000007F8
00000007F0
0000000FF0
FF800FFFE0
FF800FFFE0
FF800FFFC0
FF800FFFC0
FF800FFF80
FF800FFF80
FF800FFF00
FF800FFF00
FF800FFE00
FF800FF800
FF800FF800
FF800FF800
FF800FF800
FF800FF800
FF800FF800
FF800FF800
FF800FF800
FF800FF800
FF800FF800
FF800FF800
FF800FF800
FF800FF800
FF800FF800
FF800FF800
FF801FF800
FF801FF800
FFC01FF800
FFC01FF800
FFC03FF800
FFF07FF000
7FFFFFF000
7FFFFFF000
3FFFFFE000
3FFFFFC000
1FFFFFC000
0FFFFF8000
07FFFF0000
03FFFC0000
00FFF80000
000F000000
ENDCHAR
STARTCHAR 1EEB
ENCODING 7915
SWIDTH 558 0
DWIDTH 31 0
BBX 32 41 2 0
BITMAP
07F00000
03F80000
01F80000
00FC0000
00FC0000
007E0000
003E0000
001F0000
000F0000
0007807F
0000007F
000000FE
000000FE
FF807FFC
FF807FFC
FF807FF8
FF807FF8
FF807FF0
FF807FF0
FF807FE0
FF807FE0
FF807F80
FF807F80
FF807F80
FF807F80
FF807F80
FF807F80
FF807F80
FF807F80
FF807F80
FF807F80
7FC0FF80
7FE1FF80
7FFFFF00
7FFFFF00
3FFFFF00
1FFFFE00
1FFFFC00
07FFF800
03FFF000
00FFC000
ENDCHAR
STARTCHAR 1EEC
ENCODING 7916
SWIDTH 666 0
DWIDTH 37 0
BBX 37 54 3 -1
BITMAP
000FC00000
001FE00000
003FF00000
0078F00000
0078700000
0000700000
0000F00000
0007F00000
0007E00000
0007800000
0007000000
00070007F8
00000007F0
0000000FF0
FF800FFFE0
FF800FFFE0
FF800FFFC0
FF800FFFC0
FF800FFF80
FF800FFF80
FF800FFF00
FF800FFF00
FF800FFE00
FF800FF800
FF800FF800
FF800FF800
FF800FF800
FF800FF800
FF800FF800
FF800FF800
FF800FF800
FF800FF800
FF800FF800
FF800FF800
FF800FF800
FF800FF800
FF800FF800
FF800FF800
FF801FF800
FF801FF800
FFC01FF800
FFC01FF800
FFC03FF800
FFF07FF000
7FFFFFF000
7FFFFFF000
3FFFFFE000
3FFFFFC000
1FFFFFC000
0FFFFF8000
07FFFF0000
03FFFC0000
00FFF80000
000F000000
ENDCHAR
STARTCHAR 1EED
ENCODING 7917
SWIDTH 558 0
DWIDTH 31 0
BBX 32 43 2 0
BITMAP
000C0000
003F0000
007F8000
00FFC000
00E1C000
00E1E000
0001E000
0003C000
001FC000
001F8000
001E0000
001C007F
001C007F
000000FE
000000FE
FF807FFC
FF807FFC
FF807FF8
FF807FF8
FF807FF0
FF807FF0
FF807FE0
FF807FE0
FF807F80
FF807F80
FF807F80
FF807F80
FF807F80
FF807F80
FF807F80
FF807F80
FF807F80
FF807F80
7FC0FF80
7FE1FF80
7FFFFF00
7FFFFF00
3FFFFF00
1FFFFE00
1FFFFC00
07FFF800
03FFF000
00FFC000
ENDCHAR
STARTCHAR 1EEE
ENCODING 7918
SWIDTH 666 0
DWIDTH 37 0
BBX 37 52 3 -1
BITMAP
00000E0000
007C1C0000
00FFFC0000
01FFF80000
03FFF80000
03C7F00000
0380000000
0000000000
0000000000
00000007F8
00000007F0
0000000FF0
FF800FFFE0
FF800FFFE0
FF800FFFC0
FF800FFFC0
FF800FFF80
FF800FFF80
FF800FFF00
FF800FFF00
FF800FFE00
FF800FF800
FF800FF800
FF800FF800
FF800FF800
FF800FF800
FF800FF800
FF800FF800
FF800FF800
FF800FF800
FF800FF800
FF800FF800
FF800FF800
FF800FF800
FF800FF800
FF800FF800
FF801FF800
FF801FF800
FFC01FF800
FFC01FF800
FFC03FF800
FFF07FF000
7FFFFFF000
7FFFFFF000
3FFFFFE000
3FFFFFC000
1FFFFFC000
0FFFFF8000
07FFFF0000
03FFFC0000
00FFF80000
000F000000
ENDCHAR
STARTCHAR 1EEF
ENCODING 7919
SWIDTH 558 0
DWIDTH 31 0
BBX 32 39 2 0
BITMAP
00003800
01FC3800
03FFF800
03FFF000
07FFF000
070FE000
07000000
0000007F
0000007F
000000FE
000000FE
FF807FFC
FF807FFC
FF807FF8
FF807FF8
FF807FF0
FF807FF0
FF807FE0
FF807FE0
FF807F80
FF807F80
FF807F80
FF807F80
FF807F80
FF807F80
FF807F80
FF807F80
FF807F80
FF807F80
7FC0FF80
7FE1FF80
7FFFFF00
7FFFFF00
3FFFFF00
1FFFFE00
1FFFFC00
07FFF800
03FFF000
00FFC000
ENDCHAR
STARTCHAR 1EF0
ENCODING 7920
SWIDTH 666 0
DWIDTH 37 0
BBX 37 57 3 -15
BITMAP
00000007F8
00000007F0
0000000FF0
FF800FFFE0
FF800FFFE0
FF800FFFC0
FF800FFFC0
FF800FFF80
FF800FFF80
FF800FFF00
FF800FFF00
FF800FFE00
FF800FF800
FF800FF800
FF800FF800
FF800FF800
FF800FF800
FF800FF800
FF800FF800
FF800FF800
FF800FF800
FF800FF800
FF800FF800
FF800FF800
FF800FF800
FF800FF800
FF800FF800
FF801FF800
FF801FF800
FFC01FF800
FFC01FF800
FFC03FF800
FFF07FF000
7FFFFFF000
7FFFFFF000
3FFFFFE000
3FFFFFC000
1FFFFFC000
0FFFFF8000
07FFFF0000
03FFFC0000
00FFF80000
000F000000
0000000000
0000000000
0000000000
001FC00000
003FE00000
007FE00000
007FF00000
007FF00000
007FF00000
007FF00000
007FE00000
003FE00000
001FC00000
0002000000
ENDCHAR
STARTCHAR 1EF1
ENCODING 7921
SWIDTH 558 0
DWIDTH 31 0
BBX 32 47 2 -15
BITMAP
0000007F
0000007F
000000FE
000000FE
FF807FFC
FF807FFC
FF807FF8
FF807FF8
FF807FF0
FF807FF0
FF807FE0
FF807FE0
FF807F80
FF807F80
FF807F80
FF807F80
FF807F80
FF807F80
FF807F80
FF807F80
FF807F80
FF807F80
7FC0FF80
7FE1FF80
7FFFFF00
7FFFFF00
3FFFFF00
1FFFFE00
1FFFFC00
07FFF800
03FFF000
00FFC000
00000000
00000000
00000000
00000000
003F0000
007F8000
00FFC000
01FFC000
01FFC000
01FFC000
01FFC000
00FFC000
00FF8000
007F0000
000C0000
ENDCHAR
STARTCHAR 1EF2
ENCODING 7922
SWIDTH 558 0
DWIDTH 31 0
BBX 27 53 2 0
BITMAP
03F80000
03F80000
01FC0000
00FC0000
007E0000
003E0000
001F0000
001F0000
000F8000
00078000
0003C000
00000000
00000000
00000000
FFC03FE0
FFC03FE0
FFC03FE0
FFC03FE0
FFC03FE0
FFC03FE0
FFC03FE0
FFC03FE0
FFC03FE0
FFC03FE0
FFC03FE0
FFC03FE0
FFC03FE0
FFC03FE0
7FC07FE0
7FE07FE0
7FE0FFE0
7FFFFFC0
3FFFFFC0
3FFFFFC0
1FFFFF80
1FFFFF00
0FFFFE00
07FFFC00
01FFF800
007FE000
007FE000
007FE000
007FE000
007FE000
007FE000
007FE000
007FE000
007FE000
007FE000
007FE000
007FE000
007FE000
007FE000
ENDCHAR
STARTCHAR 1EF3
ENCODING 7923
SWIDTH 522 0
DWIDTH 29 0
BBX 25 53 2 -12
BITMAP
07F00000
03F80000
01F80000
00FC0000
00FC0000
007E0000
003E0000
001F0000
000F0000
00078000
00000000
00000000
00000000
FF807F80
FF807F80
FF807F80
FF807F80
FF807F80
FF807F80
FF807F80
FF807F80
FF807F80
FF807F80
FF807F80
FF807F80
FF807F80
FF807F80
FF807F80
FF807F80
FF807F80
FF807F80
FF80FF80
7FC1FF80
7FFFFF80
7FFFFF00
3FFFFF00
3FFFFE00
1FFFFC00
0FFFF800
03FFF000
01FFC000
00FF8000
00FF8000
00FF8000
00FF8000
00FF8000
00FF8000
00FF8000
00FF8000
00FF8000
00FF8000
00FF8000
00FF8000
ENDCHAR
STARTCHAR 1EF4
ENCODING 7924
SWIDTH 558 0
DWIDTH 31 0
BBX 27 54 2 -15
BITMAP
FFC03FE0
FFC03FE0
FFC03FE0
FFC03FE0
FFC03FE0
FFC03FE0
FFC03FE0
FFC03FE0
FFC03FE0
FFC03FE0
FFC03FE0
FFC03FE0
FFC03FE0
FFC03FE0
7FC07FE0
7FE07FE0
7FE0FFE0
7FFFFFC0
3FFFFFC0
3FFFFFC0
1FFFFF80
1FFFFF00
0FFFFE00
07FFFC00
01FFF800
007FE000
007FE000
007FE000
007FE000
007FE000
007FE000
007FE000
007FE000
007FE000
007FE000
007FE000
007FE000
007FE000
007FE000
00000000
00000000
00000000
00000000
001F8000
003FC000
007FE000
007FE000
00FFF000
00FFF000
007FE000
007FE000
003FC000
001F8000
000E0000
ENDCHAR
STARTCHAR 1EF5
ENCODING 7925
SWIDTH 522 0
DWIDTH 29 0
BBX 27 43 2 -15
BITMAP
FF807F80
FF807F80
FF807F80
FF807F80
FF807F80
FF807F80
FF807F80
FF807F80
FF807F80
FF807F80
FF807F80
FF807F80
FF807F80
FF807F80
FF807F80
FF807F80
FF807F80
FF807F80
FF80FF80
7FC1FF80
7FFFFF80
7FFFFF00
3FFFFF00
3FFFFE00
1FFFFC00
0FFFF800
03FFF000
01FFC000
00FF8000
00FF8000
00FF8000
00FF8000
00FFBF00
00FFFFC0
00FFFFC0
00FFFFE0
00FFFFE0
00FFFFE0
00FFFFE0
00FFFFC0
00007FC0
00003F80
00000C00
ENDCHAR
STARTCHAR 1EF6
ENCODING 7926
SWIDTH 558 0
DWIDTH 31 0
BBX 27 53 2 0
BITMAP
001F8000
003FC000
007FE000
0071E000
00F0E000
0000E000
0001E000
000FE000
000FC000
000F8000
000E0000
000E0000
00000000
00000000
FFC03FE0
FFC03FE0
FFC03FE0
FFC03FE0
FFC03FE0
FFC03FE0
FFC03FE0
FFC03FE0
FFC03FE0
FFC03FE0
FFC03FE0
FFC03FE0
FFC03FE0
FFC03FE0
7FC07FE0
7FE07FE0
7FE0FFE0
7FFFFFC0
3FFFFFC0
3FFFFFC0
1FFFFF80
1FFFFF00
0FFFFE00
07FFFC00
01FFF800
007FE000
007FE000
007FE000
007FE000
007FE000
007FE000
007FE000
007FE000
007FE000
007FE000
007FE000
007FE000
007FE000
007FE000
ENDCHAR
STARTCHAR 1EF7
ENCODING 7927
SWIDTH 522 0
DWIDTH 29 0
BBX 25 55 2 -12
BITMAP
000C0000
003F0000
007F8000
00FFC000
00E1C000
00E1E000
0001E000
0003C000
001FC000
001F8000
001E0000
001C0000
001C0000
00000000
00000000
FF807F80
FF807F80
FF807F80
FF807F80
FF807F80
FF807F80
FF807F80
FF807F80
FF807F80
FF807F80
FF807F80
FF807F80
FF807F80
FF807F80
FF807F80
FF807F80
FF807F80
FF807F80
FF80FF80
7FC1FF80
7FFFFF80
7FFFFF00
3FFFFF00
3FFFFE00
1FFFFC00
0FFFF800
03FFF000
01FFC000
00FF8000
00FF8000
00FF8000
00FF8000
00FF8000
00FF8000
00FF8000
00FF8000
00FF8000
00FF8000
00FF8000
00FF8000
ENDCHAR
STARTCHAR 1EF8
ENCODING 7928
SWIDTH 558 0
DWIDTH 31 0
BBX 27 51 2 0
BITMAP
00001C00
00FC1C00
01FFFC00
03FFF800
03FFF000
0387E000
07800000
00000000
00000000
00000000
00000000
00000000
FFC03FE0
FFC03FE0
FFC03FE0
FFC03FE0
FFC03FE0
FFC03FE0
FFC03FE0
FFC03FE0
FFC03FE0
FFC03FE0
FFC03FE0
FFC03FE0
FFC03FE0
FFC03FE0
7FC07FE0
7FE07FE0
7FE0FFE0
7FFFFFC0
3FFFFFC0
3FFFFFC0
1FFFFF80
1FFFFF00
0FFFFE00
07FFFC00
01FFF800
007FE000
007FE000
007FE000
007FE000
007FE000
007FE000
007FE000
007FE000
007FE000
007FE000
007FE000
007FE000
007FE000
007FE000
ENDCHAR
STARTCHAR 1EF9
ENCODING 7929
SWIDTH 522 0
DWIDTH 29 0
BBX 25 51 2 -12
BITMAP
00003800
01FC3800
03FFF800
03FFF000
07FFF000
070FE000
07000000
00000000
00000000
00000000
00000000
FF807F80
FF807F80
FF807F80
FF807F80
FF807F80
FF807F80
FF807F80
FF807F80
FF807F80
FF807F80
FF807F80
FF807F80
FF807F80
FF807F80
FF807F80
FF807F80
FF807F80
FF807F80
FF80FF80
7FC1FF80
7FFFFF80
7FFFFF00
3FFFFF00
3FFFFE00
1FFFFC00
0FFFF800
03FFF000
01FFC000
00FF8000
00FF8000
00FF8000
00FF8000
00FF8000
00FF8000
00FF8000
00FF8000
00FF8000
00FF8000
00FF8000
00FF8000
ENDCHAR
STARTCHAR 2010
ENCODING 8208
SWIDTH 324 0
DWIDTH 18 0
BBX 15 7 2 10
BITMAP
FFFE
FFFE
FFFE
FFFE
FFFE
FFFE
FFFE
ENDCHAR
STARTCHAR 2013
ENCODING 8211
SWIDTH 486 0
DWIDTH 27 0
BBX 28 6 0 11
BITMAP
FFFFFFF0
FFFFFFF0
FFFFFFF0
FFFFFFF0
FFFFFFF0
FFFFFFF0
ENDCHAR
STARTCHAR 2014
ENCODING 8212
SWIDTH 990 0
DWIDTH 55 0
BBX 56 6 0 11
BITMAP
FFFFFFFFFFFFFF
FFFFFFFFFFFFFF
FFFFFFFFFFFFFF
FFFFFFFFFFFFFF
FFFFFFFFFFFFFF
FFFFFFFFFFFFFF
ENDCHAR
STARTCHAR 2018
ENCODING 8216
SWIDTH 270 0
DWIDTH 15 0
BBX 8 13 4 26
BITMAP
1F
3F
3F
3F
3F
7F
7F
7F
7E
FE
FE
FE
FE
ENDCHAR
STARTCHAR 2019
ENCODING 8217
SWIDTH 270 0
DWIDTH 15 0
BBX 9 13 4 26
BITMAP
3F80
7F80
7F00
7F00
7F00
7F00
7E00
7E00
FE00
FE00
FC00
FC00
FC00
ENDCHAR
STARTCHAR 201A
ENCODING 8218
SWIDTH 270 0
DWIDTH 15 0
BBX 9 12 3 -6
BITMAP
3F80
3F80
3F80
3F00
7F00
7F00
7F00
7E00
7E00
7E00
7E00
FC00
ENDCHAR
STARTCHAR 201C
ENCODING 8220
SWIDTH 486 0
DWIDTH 27 0
BBX 20 13 4 26
BITMAP
1F03F0
3F03F0
3F07F0
3F07E0
3F07E0
7F07E0
7F0FE0
7F0FE0
7E0FE0
FE0FE0
FE1FC0
FE1FC0
FE1FC0
ENDCHAR
STARTCHAR 201D
ENCODING 8221
SWIDTH 486 0
DWIDTH 27 0
BBX 20 13 4 26
BITMAP
3F87F0
7F87F0
7F07F0
7F0FE0
7F0FE0
7F0FE0
7E0FE0
7E0FC0
FE0FC0
FE0FC0
FC1FC0
FC1F80
FC1F80
ENDCHAR
STARTCHAR 201E
ENCODING 8222
SWIDTH 486 0
DWIDTH 27 0
BBX 20 12 3 -6
BITMAP
3F87F0
3F87F0
3F87F0
3F07F0
7F07F0
7F07E0
7F0FE0
7E0FE0
7E0FE0
7E0FC0
7E0FC0
FC0FC0
ENDCHAR
STARTCHAR 2020
ENCODING 8224
SWIDTH 486 0
DWIDTH 27 0
BBX 24 42 2 -3
BITMAP
00FF00
00FF00
00FF00
00FF00
00FF00
00FF00
00FF00
00FF00
00FF00
FFFFFF
FFFFFF
FFFFFF
FFFFFF
FFFFFF
FFFFFF
FFFFFF
00FF00
00FF00
00FF00
00FF00
00FF00
00FF00
00FF00
00FF00
00FF00
00FF00
00FF00
00FF00
00FF00
00FF00
00FF00
00FF00
00FF00
00FF00
00FF00
00FF00
00FF00
00FF00
00FF00
00FF00
00FF00
00FF00
ENDCHAR
STARTCHAR 2021
ENCODING 8225
SWIDTH 486 0
DWIDTH 27 0
BBX 24 42 2 -3
BITMAP
00FF00
00FF00
00FF00
00FF00
00FF00
00FF00
00FF00
00FF00
00FF00
FFFFFF
FFFFFF
FFFFFF
FFFFFF
FFFFFF
FFFFFF
FFFFFF
00FF00
00FF00
00FF00
00FF00
00FF00
00FF00
00FF00
FFFFFF
FFFFFF
FFFFFF
FFFFFF
FFFFFF
FFFFFF
FFFFFF
FFFFFF
00FF00
00FF00
00FF00
00FF00
00FF00
00FF00
00FF00
00FF00
00FF00
00FF00
00FF00
ENDCHAR
STARTCHAR 2022
ENCODING 8226
SWIDTH 576 0
DWIDTH 32 0
BBX 16 16 8 13
BITMAP
01C0
0FF8
1FFC
3FFE
7FFE
7FFF
FFFF
FFFF
FFFF
FFFF
7FFF
7FFF
7FFE
3FFE
1FFC
07F0
ENDCHAR
STARTCHAR 2026
ENCODING 8230
SWIDTH 990 0
DWIDTH 55 0
BBX 48 11 4 -1
BITMAP
3F0007E001F8
7F800FF003FE
FFC01FF807FE
FFE03FF807FF
FFE03FF807FF
FFE03FF807FF
FFE03FF807FF
FFC01FF807FE
7FC01FF003FE
3F800FE001FC
0E0003C00070
ENDCHAR
STARTCHAR 2030
ENCODING 8240
SWIDTH 1260 0
DWIDTH 70 0
BBX 67 39 2 0
BITMAP
01F80001F800000000
07FE0001F000000000
1FFF0003F000000000
3FFF8007E000000000
3FFFC007E000000000
7FFFE00FC000000000
7F0FE01F8000000000
FE07F01F8000000000
FC03F03F0000000000
FC03F03E0000000000
FC03F07E0000000000
FC03F0FC0000000000
FE07F0FC0000000000
FF0FE1F80000000000
7FFFE3F00000000000
7FFFC3F00000000000
3FFFC7E00000000000
1FFF87C00000000000
0FFF0FC00000000000
03FC1F81FC0007F000
00001F87FF001FFC00
00003F0FFF803FFE00
00007E1FFFC07FFF00
00007E3FFFE0FFFF80
0000FC3FFFF0FFFFC0
0000F87F87F1FE1FC0
0001F87F03F1FC0FC0
0003F07E03F9F80FE0
0003F07E01F9F807E0
0007E07E01F9F807E0
0007C07E03F9F80FE0
000FC07F03F1FC0FC0
001F807F87F1FE1FC0
001F803FFFF0FFFFC0
003F003FFFE0FFFF80
007E001FFFC07FFF00
007E000FFF803FFE00
00FC0007FF001FFC00
00F80001FC0007F000
ENDCHAR
STARTCHAR 2039
ENCODING 8249
SWIDTH 342 0
DWIDTH 19 0
BBX 13 17 3 5
BITMAP
03F8
03F0
07E0
0FC0
1F80
3F80
3F00
7E00
FE00
7E00
3F00
1F80
0FC0
0FE0
07E0
03F0
01F8
ENDCHAR
STARTCHAR 203A
ENCODING 8250
SWIDTH 342 0
DWIDTH 19 0
BBX 13 17 3 5
BITMAP
FE00
7E00
3F00
1F80
0FC0
0FE0
07E0
03F0
03F8
03F0
07E0
0FC0
1F80
3F80
3F00
7E00
FC00
ENDCHAR
STARTCHAR 2044
ENCODING 8260
SWIDTH 162 0
DWIDTH 9 0
BBX 27 39 -9 0
BITMAP
000003E0
000007E0
000007C0
00000FC0
00000F80
00001F00
00003F00
00003E00
00007E00
00007C00
0000FC00
0000F800
0001F000
0003F000
0003E000
0007E000
0007C000
000FC000
000F8000
001F0000
003F0000
003E0000
007E0000
007C0000
00FC0000
01F80000
01F00000
03F00000
03E00000
07E00000
07C00000
0F800000
1F800000
1F000000
3F000000
3E000000
7E000000
7C000000
F8000000
ENDCHAR
STARTCHAR 20A3
ENCODING 8355
SWIDTH 810 0
DWIDTH 45 0
BBX 43 39 3 0
BITMAP
007FF0000000
03FFF0000000
0FFFF0000000
1FFFF0000000
3FFFF0000000
7FFFF0000000
7FFFF0000000
FFFFF0000000
FFFFF0000000
FFF000000000
FFC000000000
FFC0007F8020
FF80007F8FE0
FF80007F9FE0
FF80007FBFE0
FF80007FFFE0
FFFFF07FFFE0
FFFFF07FFFE0
FFFFF07FFFE0
FFFFF07FFFE0
FFFFF07FFC00
FFFFF07FF000
FFFFF07FE000
FFFFF07FC000
FFFFF07FC000
FF80007FC000
FF80007FC000
FF80007F8000
FF80007F8000
FF80007F8000
FF80007F8000
FF80007F8000
FF80007F8000
FF80007F8000
FF80007F8000
FF80007F8000
FF80007F8000
FF80007F8000
FF80007F8000
ENDCHAR
STARTCHAR 20AB
ENCODING 8363
SWIDTH 414 0
DWIDTH 23 0
BBX 22 37 1 3
BITMAP
0003F0
0003F0
0003F0
007FFC
007FFC
007FFC
0003F0
0003F0
0003F0
03FBF0
0FFBF0
1FFBF0
3FFBF0
7FFBF0
7FFBF0
7F03F0
FE03F0
FE03F0
FE03F0
FE03F0
FE03F0
FE07F0
FF0FF0
7FFFF0
7FFFE0
3FFFC0
1FFFC0
0FFF80
07FE00
003000
000000
000000
000000
1FFFE0
1FFFE0
1FFFE0
1FFFE0
ENDCHAR
STARTCHAR 2122
ENCODING 8482
SWIDTH 828 0
DWIDTH 46 0
BBX 35 15 5 25
BITMAP
FFFC7E07E0
FFFC7E0FE0
FFFC7F0FE0
FFFC7F0FE0
07807F1FE0
07807F9DE0
07807BBDE0
07807BBDE0
07807BF9E0
078079F9E0
078079F1E0
078079F1E0
078078F1E0
078078E1E0
07807861E0
ENDCHAR
STARTCHAR 2126
ENCODING 8486
SWIDTH 792 0
DWIDTH 44 0
BBX 42 41 1 0
BITMAP
0000FFC00000
0007FFFC0000
001FFFFF0000
007FFFFF8000
00FFFFFFE000
01FFFFFFF000
03FFFFFFF800
07FFFFFFFC00
0FFFFFFFFC00
0FFF807FFE00
1FFF001FFE00
1FFE000FFF00
1FFC0007FF00
3FF80007FF00
3FF80003FF00
3FF80003FF00
3FF00003FF80
3FF00003FF80
3FF00003FF80
3FF00003FF80
3FF00003FF80
3FF00003FF00
3FF00003FF00
1FF80003FF00
1FF80003FF00
1FF80007FE00
0FFC0007FE00
0FFC000FFC00
07FE000FFC00
03FF001FF800
01FF003FF000
00FF807FE000
007F807FC000
FFFF807FFFC0
FFFF807FFFC0
FFFF807FFFC0
FFFF807FFFC0
FFFF807FFFC0
FFFF807FFFC0
FFFF807FFFC0
FFFF807FFFC0
ENDCHAR
STARTCHAR 2202
ENCODING 8706
SWIDTH 540 0
DWIDTH 30 0
BBX 27 38 2 -1
BITMAP
001FC000
00FFF000
01FFFC00
03FF3E00
03FE1E00
03FC1F00
03F80F80
01E00F80
00000F80
00000FC0
00000FC0
00000FC0
00000FC0
00000FC0
01FE1FE0
07FF1FE0
0FF19FE0
1FC0DFE0
3FC0FFE0
7F807FC0
7F007FC0
FF007FC0
FF007FC0
FF007FC0
FE007FC0
FE007F80
FE007F80
FE00FF80
FE00FF00
FE00FF00
FE00FE00
7E01FC00
7E01FC00
3F03F800
1F03F000
0FDFC000
07FF0000
00700000
ENDCHAR
STARTCHAR 2206
ENCODING 8710
SWIDTH 702 0
DWIDTH 39 0
BBX 40 40 0 0
BITMAP
0003FF8000
0003FFC000
0003FFC000
0007FFE000
0007FFE000
0007FFE000
000FFFF000
000FFFF000
001FFFF000
001FFFF800
001FFFF800
003FFFFC00
003FEFFC00
003FE7FC00
007FE7FE00
007FC7FE00
007FC3FE00
00FFC3FF00
00FF83FF00
01FF81FF00
01FF81FF80
01FF01FF80
03FF00FFC0
03FF00FFC0
03FE00FFC0
07FE007FE0
07FE007FE0
07FC007FE0
0FFC003FF0
0FFC003FF0
1FF8003FF0
1FF8001FF8
1FFFFFFFF8
3FFFFFFFFC
3FFFFFFFFC
3FFFFFFFFC
7FFFFFFFFE
7FFFFFFFFE
FFFFFFFFFE
FFFFFFFFFF
ENDCHAR
STARTCHAR 220F
ENCODING 8719
SWIDTH 792 0
DWIDTH 44 0
BBX 37 51 4 -11
BITMAP
FFFFFFFFF8
FFFFFFFFF8
FFFFFFFFF8
FFFFFFFFF8
FFFFFFFFF8
FFFFFFFFF8
FFFFFFFFF8
FFFFFFFFF8
FFFFFFFFF8
FFE0003FF8
FFE0003FF8
FFE0003FF8
FFE0003FF8
FFE0003FF8
FFE0003FF8
FFE0003FF8
FFE0003FF8
FFE0003FF8
FFE0003FF8
FFE0003FF8
FFE0003FF8
FFE0003FF8
FFE0003FF8
FFE0003FF8
FFE0003FF8
FFE0003FF8
FFE0003FF8
FFE0003FF8
FFE0003FF8
FFE0003FF8
FFE0003FF8
FFE0003FF8
FFE0003FF8
FFE0003FF8
FFE0003FF8
FFE0003FF8
FFE0003FF8
FFE0003FF8
FFE0003FF8
FFE0003FF8
FFE0003FF8
FFE0003FF8
FFE0003FF8
FFE0003FF8
FFE0003FF8
FFE0003FF8
FFE0003FF8
FFE0003FF8
FFE0003FF8
FFE0003FF8
FFE0003FF8
ENDCHAR
STARTCHAR 2211
ENCODING 8721
SWIDTH 738 0
DWIDTH 41 0
BBX 39 51 1 -11
BITMAP
7FFFFFFFF8
7FFFFFFFF8
7FFFFFFFF8
7FFFFFFFF8
7FFFFFFFF8
7FFFFFFFF8
7FFFFFFFF8
7FFFFFFFF8
3FFE000000
1FFF000000
0FFF800000
07FFC00000
03FFE00000
01FFF00000
00FFF80000
007FFC0000
003FFE0000
001FFF0000
000FFF8000
0007FFC000
0003FFC000
0001FFE000
0000FFF000
00007FF800
00003FFC00
00001FFC00
00003FF800
00007FF000
0000FFE000
0001FFC000
0003FF8000
0007FF8000
000FFF0000
001FFE0000
003FFC0000
003FF80000
007FF00000
00FFE00000
01FFC00000
03FF800000
07FF000000
0FFF000000
1FFFFFFFFE
3FFFFFFFFE
7FFFFFFFFE
FFFFFFFFFE
FFFFFFFFFE
FFFFFFFFFE
FFFFFFFFFE
FFFFFFFFFE
FFFFFFFFFE
ENDCHAR
STARTCHAR 2212
ENCODING 8722
SWIDTH 828 0
DWIDTH 46 0
BBX 32 7 7 13
BITMAP
FFFFFFFF
FFFFFFFF
FFFFFFFF
FFFFFFFF
FFFFFFFF
FFFFFFFF
FFFFFFFF
ENDCHAR
STARTCHAR 2219
ENCODING 8729
SWIDTH 270 0
DWIDTH 15 0
BBX 11 11 2 14
BITMAP
1F80
3FC0
7FE0
FFE0
FFE0
FFE0
FFE0
7FE0
7FC0
3F80
0E00
ENDCHAR
STARTCHAR 221A
ENCODING 8730
SWIDTH 666 0
DWIDTH 37 0
BBX 35 48 2 -1
BITMAP
00000007E0
00000007E0
00000007E0
0000000FE0
0000000FE0
0000001F00
0000001F00
0000001E00
0000003E00
0000003E00
0000003C00
0000007C00
0000007C00
0000007800
000000F800
000000F800
000001F000
000001F000
000001E000
000003E000
00C003E000
07C003C000
3FE007C000
FFE007C000
FFF00F8000
77F00F8000
07F00F8000
03F81F0000
03F81F0000
01F81E0000
01FC3E0000
01FC3E0000
00FC7C0000
00FE7C0000
00FE7C0000
007EF80000
007FF80000
007FF00000
003FF00000
003FF00000
001FE00000
001FE00000
001FE00000
000FC00000
000FC00000
000FC00000
0007800000
0007800000
ENDCHAR
STARTCHAR 221E
ENCODING 8734
SWIDTH 828 0
DWIDTH 46 0
BBX 36 23 5 5
BITMAP
03E000FC00
0FF801FF00
1FFC07FF80
3FFE0FFFC0
3FFF0FFFC0
7FFF9FFFE0
7FFFFFFFE0
7C07FF81F0
7003FF00F0
F001FE00F0
F001FC0070
F001FC0070
F003F80070
F007F800F0
780FFC00F0
7C1FFF01F0
7FFFDFFFE0
3FFF9FFFE0
3FFF8FFFC0
1FFF07FFC0
0FFE03FF80
07FC01FF00
01F0007C00
ENDCHAR
STARTCHAR 222B
ENCODING 8747
SWIDTH 594 0
DWIDTH 33 0
BBX 32 52 1 -10
BITMAP
000007F8
00001FFC
00003FFE
00007CFE
00007CFF
0000F8FF
0001F8FE
0001F87E
0001F838
0003F800
0003F800
0003F000
0003F000
0007F000
0007F000
0007F000
0007F000
0007F000
0007F000
0007F000
000FF000
000FF000
000FF000
000FF000
000FF000
000FF000
000FF000
000FF000
000FF000
000FF000
000FE000
000FE000
000FE000
000FE000
000FE000
000FE000
000FE000
000FE000
000FE000
000FC000
001FC000
001FC000
001FC000
3C1F8000
7E1F8000
7F1F0000
FF3F0000
FF3E0000
7F7C0000
7FF80000
3FF00000
1FC00000
ENDCHAR
STARTCHAR 2248
ENCODING 8776
SWIDTH 828 0
DWIDTH 46 0
BBX 37 23 5 5
BITMAP
0060000008
07FF800038
1FFFF000F8
7FFFFE03F8
FFFFFFFFF8
FFFFFFFFF8
FFFFFFFFF8
FE03FFFFE0
F0003FFFC0
E00007FE00
8000000000
0000000000
00F8000018
07FF800038
1FFFF800F8
7FFFFF87F8
FFFFFFFFF8
FFFFFFFFF8
FFFFFFFFF8
FC01FFFFE0
F0003FFF80
C00003FE00
8000000000
ENDCHAR
STARTCHAR 2260
ENCODING 8800
SWIDTH 828 0
DWIDTH 46 0
BBX 32 35 7 -1
BITMAP
00000040
000000E0
000001F0
000001FC
000003F8
000007F8
00000FF0
00001FE0
FFFFFFFF
FFFFFFFF
FFFFFFFF
FFFFFFFF
FFFFFFFF
FFFFFFFF
0003FC00
0003F800
0007F000
000FF000
001FE000
003FC000
FFFFFFFF
FFFFFFFF
FFFFFFFF
FFFFFFFF
FFFFFFFF
FFFFFFFF
FFFFFFFF
07F80000
0FF00000
1FE00000
3FC00000
3F800000
0F800000
07000000
02000000
ENDCHAR
STARTCHAR 2264
ENCODING 8804
SWIDTH 828 0
DWIDTH 46 0
BBX 32 34 7 0
BITMAP
00000003
0000001F
000000FF
000007FF
00003FFF
0001FFFF
001FFFFF
00FFFFF8
07FFFF80
3FFFFC00
FFFFE000
FFFF0000
FFF80000
FFF80000
FFFF8000
FFFFF000
1FFFFE00
03FFFFC0
007FFFFC
000FFFFF
0001FFFF
00003FFF
000003FF
0000007F
0000000F
00000001
00000000
00000000
FFFFFFFF
FFFFFFFF
FFFFFFFF
FFFFFFFF
FFFFFFFF
FFFFFFFF
ENDCHAR
STARTCHAR 2265
ENCODING 8805
SWIDTH 828 0
DWIDTH 46 0
BBX 32 34 7 0
BITMAP
C0000000
F8000000
FF000000
FFE00000
FFFE0000
FFFFC000
FFFFF800
0FFFFF00
01FFFFE0
003FFFFC
0007FFFF
00007FFF
00000FFF
00001FFF
0000FFFF
0007FFFF
007FFFFC
03FFFFC0
1FFFFE00
FFFFF000
FFFF8000
FFFC0000
FFE00000
FF000000
F0000000
80000000
00000000
00000000
FFFFFFFF
FFFFFFFF
FFFFFFFF
FFFFFFFF
FFFFFFFF
FFFFFFFF
ENDCHAR
STARTCHAR 22F2
ENCODING 8946
SWIDTH 828 0
DWIDTH 46 0
BBX 37 23 5 5
BITMAP
0060000008
07FF800038
1FFFF000F8
7FFFFE03F8
FFFFFFFFF8
FFFFFFFFF8
FFFFFFFFF8
FE03FFFFE0
F0003FFFC0
E00007FE00
8000000000
0000000000
00F8000018
07FF800038
1FFFF800F8
7FFFFF87F8
FFFFFFFFF8
FFFFFFFFF8
FFFFFFFFF8
FC01FFFFE0
F0003FFF80
C00003FE00
8000000000
ENDCHAR
STARTCHAR 255F
ENCODING 9567
SWIDTH 612 0
DWIDTH 34 0
BBX 29 40 3 0
BITMAP
00020000
007FF000
01FFFC00
07FFFF00
0FFFFF80
1FFFFFC0
3FFFFFC0
3FFFFFE0
7FFFFFE0
7FFFFFF0
FFF07FF0
FFE03FF8
FFC01FF8
FFC01FF8
FF801FF8
FF800FF8
FF9FFFF8
FF9FFFF8
FF9FFFF8
FF9FFFF8
FF9FFFF8
FF9FFFF8
FF9FFFF8
FF9FFFF8
FF9FFFF8
FF9FFFF8
FF800FF8
FF800FF8
FF800FF8
FF800FF8
FF800FF8
FF800FF8
FF800FF8
FF800FF8
FF800FF8
FF800FF8
FF800FF8
FF800FF8
FF800FF8
FF800FF8
ENDCHAR
STARTCHAR 2560
ENCODING 9568
SWIDTH 522 0
DWIDTH 29 0
BBX 25 39 2 0
BITMAP
00003F80
0007FF80
003FFF80
00FFFF80
01FFFF80
03FFFF80
07FFFF80
0FFFFF80
1FFFFF80
3FFF8000
3FFE0000
7FF80000
7FF00000
FFE00000
FFE00000
FFFFFF80
FFFFFF80
FFFFFF80
FFFFFF80
FFFFFF80
FFFFFF80
FFFFFF80
FFFFFF80
FFFFFF80
FFC00000
FFE00000
7FF00000
7FF80000
3FFC0000
3FFF8000
1FFFFF80
0FFFFF80
0FFFFF80
07FFFF80
01FFFF80
00FFFF80
003FFF80
000FFF80
00007F80
ENDCHAR
STARTCHAR 2561
ENCODING 9569
SWIDTH 270 0
DWIDTH 15 0
BBX 10 39 3 0
BITMAP
FFC0
FFC0
FFC0
FFC0
FFC0
FFC0
FFC0
FFC0
FFC0
FFC0
FFC0
FFC0
FFC0
FFC0
FFC0
FFC0
FFC0
FFC0
FFC0
FFC0
FFC0
FFC0
FFC0
FFC0
FFC0
FFC0
FFC0
FFC0
FFC0
FFC0
FFC0
FFC0
FFC0
FFC0
FFC0
FFC0
FFC0
FFC0
FFC0
ENDCHAR
STARTCHAR 2562
ENCODING 9570
SWIDTH 756 0
DWIDTH 42 0
BBX 39 40 2 0
BITMAP
0007FFC000
001FFFF000
007FFFFC00
01FFFFFF00
03FFFFFF80
07FFFFFFC0
0FFFFFFFE0
1FFFFFFFE0
1FFFFFFFF0
3FFF83FFF8
3FFC007FF8
7FF8003FFC
7FF0001FFC
FFE0000FFE
FFE0000FFE
FFC00007FE
FFC00007FE
FFC00007FE
FF800007FE
FF800007FE
FF800007FE
FFC00007FE
FFC00007FE
FFC00007FE
FFE0000FFE
FFE0000FFE
7FF0001FFC
7FF8003FFC
3FFC007FF8
3FFF01FFF8
1FFFFFFFF0
1FFFFFFFF0
0FFFFFFFE0
07FFFFFFC0
03FFFFFF80
01FFFFFF00
007FFFFC00
003FFFF800
0007FFE000
0000380000
ENDCHAR
STARTCHAR 2563
ENCODING 9571
SWIDTH 612 0
DWIDTH 34 0
BBX 29 40 3 -1
BITMAP
FF800FF8
FF800FF8
FF800FF8
FF800FF8
FF800FF8
FF800FF8
FF800FF8
FF800FF8
FF800FF8
FF800FF8
FF800FF8
FF800FF8
FF800FF8
FF800FF8
FF800FF8
FF800FF8
FF800FF8
FF800FF8
FF800FF8
FF800FF8
FF800FF8
FF800FF8
FF800FF8
FF800FF8
FF801FF8
FF801FF8
FFC01FF8
FFC01FF8
FFC03FF8
FFF07FF0
7FFFFFF0
7FFFFFF0
3FFFFFE0
3FFFFFC0
1FFFFFC0
0FFFFF80
07FFFF00
03FFFC00
00FFF800
000F0000
ENDCHAR
STARTCHAR 2564
ENCODING 9572
SWIDTH 558 0
DWIDTH 31 0
BBX 27 39 2 0
BITMAP
FFC03FE0
FFC03FE0
FFC03FE0
FFC03FE0
FFC03FE0
FFC03FE0
FFC03FE0
FFC03FE0
FFC03FE0
FFC03FE0
FFC03FE0
FFC03FE0
FFC03FE0
FFC03FE0
7FC07FE0
7FE07FE0
7FE0FFE0
7FFFFFC0
3FFFFFC0
3FFFFFC0
1FFFFF80
1FFFFF00
0FFFFE00
07FFFC00
01FFF800
007FE000
007FE000
007FE000
007FE000
007FE000
007FE000
007FE000
007FE000
007FE000
007FE000
007FE000
007FE000
007FE000
007FE000
ENDCHAR
STARTCHAR 2565
ENCODING 9573
SWIDTH 558 0
DWIDTH 31 0
BBX 28 28 1 0
BITMAP
003FC000
01FFF800
03FFFC00
07FFFF00
0FFFFF80
1FFFFF80
3FFFFFC0
3FFFFFE0
7FFFFFE0
7FE07FE0
7FC03FF0
FFC01FF0
FF801FF0
FF801FF0
FF801FF0
FF801FF0
FFC01FF0
7FC01FF0
7FE01FF0
7FF8DFF0
3FFFDFF0
3FFFDFF0
1FFFDFF0
1FFFDFF0
0FFFDFF0
07FFDFF0
01FFDFF0
007FDFF0
ENDCHAR
STARTCHAR 2566
ENCODING 9574
SWIDTH 540 0
DWIDTH 30 0
BBX 29 28 1 0
BITMAP
001FC000
00FFF800
03FFFC00
07FFFF00
0FFFFF00
1FFFFF80
1FFFFFC0
3FF03FE0
7FE07FE0
7FC1FFC0
7F83FF80
7F8FFE00
FF9FFC00
FF9FF000
FF8FE000
FF8F8380
7F8707E0
7FC007F8
7FE00FF8
7FF03FF0
3FFFFFF0
3FFFFFE0
1FFFFFC0
0FFFFFC0
07FFFF80
03FFFE00
01FFFC00
007FF000
ENDCHAR
STARTCHAR 2567
ENCODING 9575
SWIDTH 234 0
DWIDTH 13 0
BBX 10 40 2 0
BITMAP
1E00
7F80
7F80
FFC0
FFC0
FFC0
FFC0
FF80
7F80
1E00
0000
0000
7F80
7F80
7F80
7F80
7F80
7F80
7F80
7F80
7F80
7F80
7F80
7F80
7F80
7F80
7F80
7F80
7F80
7F80
7F80
7F80
7F80
7F80
7F80
7F80
7F80
7F80
7F80
7F80
ENDCHAR
STARTCHAR 2568
ENCODING 9576
SWIDTH 234 0
DWIDTH 13 0
BBX 8 28 3 0
BITMAP
FF
FF
FF
FF
FF
FF
FF
FF
FF
FF
FF
FF
FF
FF
FF
FF
FF
FF
FF
FF
FF
FF
FF
FF
FF
FF
FF
FF
ENDCHAR
STARTCHAR 2569
ENCODING 9577
SWIDTH 540 0
DWIDTH 30 0
BBX 28 28 1 0
BITMAP
003FC000
00FFF800
03FFFC00
07FFFF00
0FFFFF80
1FFFFF80
1FFFFFC0
3FFFFFE0
3FFFFFE0
7FE07FE0
7FC03FF0
7FC01FF0
FF801FF0
FF801FF0
FF801FF0
FF801FF0
7FC01FF0
7FC03FF0
7FE07FF0
7FF8FFE0
3FFFFFE0
3FFFFFC0
1FFFFFC0
0FFFFF80
07FFFF00
03FFFE00
01FFF800
007FF000
ENDCHAR
STARTCHAR 256A
ENCODING 9578
SWIDTH 522 0
DWIDTH 29 0
BBX 25 28 2 0
BITMAP
FF807F80
FF807F80
FF807F80
FF807F80
FF807F80
FF807F80
FF807F80
FF807F80
FF807F80
FF807F80
FF807F80
FF807F80
FF807F80
FF807F80
FF807F80
FF807F80
FF807F80
FF807F80
7FC0FF80
7FE1FF80
7FFFFF00
7FFFFF00
3FFFFF00
1FFFFE00
1FFFFC00
07FFF800
03FFF000
00FFC000
ENDCHAR
STARTCHAR 256B
ENCODING 9579
SWIDTH 522 0
DWIDTH 29 0
BBX 25 40 2 -12
BITMAP
FF807F80
FF807F80
FF807F80
FF807F80
FF807F80
FF807F80
FF807F80
FF807F80
FF807F80
FF807F80
FF807F80
FF807F80
FF807F80
FF807F80
FF807F80
FF807F80
FF807F80
FF807F80
FF80FF80
7FC1FF80
7FFFFF80
7FFFFF00
3FFFFF00
3FFFFE00
1FFFFC00
0FFFF800
03FFF000
01FFC000
00FF8000
00FF8000
00FF8000
00FF8000
00FF8000
00FF8000
00FF8000
00FF8000
00FF8000
00FF8000
00FF8000
00FF8000
ENDCHAR
STARTCHAR 25CA
ENCODING 9674
SWIDTH 486 0
DWIDTH 27 0
BBX 27 56 0 -12
BITMAP
00040000
00060000
000E0000
000F0000
001F0000
001F8000
003B8000
0039C000
0071C000
0071E000
00F0E000
00E0F000
01E07000
01C07800
03C03800
03803800
03801C00
07001C00
07000E00
0E000E00
0E000700
1C000700
1C000380
38000380
380001C0
700001C0
700001E0
E00000E0
F00000E0
700001E0
700001C0
380001C0
38000380
1C000380
1C000700
0E000700
0E000E00
07000E00
07001C00
03801C00
03803800
03C03800
01C07000
01E07000
00E0F000
00E0E000
0070E000
0071C000
0039C000
003B8000
001F8000
001F0000
000F0000
000E0000
00060000
00040000
ENDCHAR
STARTCHAR 25CB
ENCODING 9675
SWIDTH 612 0
DWIDTH 34 0
BBX 17 21 9 41
BITMAP
03F800
03F000
07E000
07E000
0FC000
0F8000
1F0000
1E0000
3C0000
380000
000000
07F000
0FF000
0FF800
1FFC00
1F7C00
3E3E00
3C3E00
7C1F00
780F00
F00780
ENDCHAR
STARTCHAR 25CF
ENCODING 9679
SWIDTH 612 0
DWIDTH 34 0
BBX 17 21 9 41
BITMAP
0FE000
07E000
07F000
03F000
01F800
00F800
007C00
003C00
003E00
001E00
000000
07F000
0FF000
0FF800
1FFC00
1F7C00
3E3E00
3C3E00
7C1F00
780F00
F00780
ENDCHAR
STARTCHAR 25D8
ENCODING 9688
SWIDTH 612 0
DWIDTH 34 0
BBX 21 21 9 42
BITMAP
0007E0
000FF0
001FF8
003C78
003C38
000038
000078
0003F8
0003F0
0003C0
000380
07F380
0FF000
0FF800
1FFC00
1F7C00
3E3E00
3C3E00
7C1F00
780F00
F00780
ENDCHAR
STARTCHAR 25D9
ENCODING 9689
SWIDTH 612 0
DWIDTH 34 0
BBX 18 19 9 41
BITMAP
0001C0
0FE1C0
1FFFC0
1FFF80
3FFF80
387F00
380000
000000
000000
07F000
0FF000
0FF800
1FFC00
1F7C00
3E3E00
3C3E00
7C1F00
780F00
F00780
ENDCHAR
STARTCHAR F000
ENCODING 61440
SWIDTH 774 0
DWIDTH 43 0
BBX 38 45 3 -1
BITMAP
0000001800
0000007800
000000F800
000003F800
000003F000
000007F000
00000FE000
00000FE000
00000FC000
00000F0000
00000E0000
01FF01FF00
03FFFFFFC0
0FFFFFFFE0
1FFFFFFFF8
3FFFFFFFF0
3FFFFFFFE0
7FFFFFFFC0
7FFFFFFF80
7FFFFFFF80
FFFFFFFF00
FFFFFFFF00
FFFFFFFF00
FFFFFFFF00
FFFFFFFF00
FFFFFFFF00
FFFFFFFF00
FFFFFFFF00
7FFFFFFF80
7FFFFFFF80
7FFFFFFFC0
7FFFFFFFE0
3FFFFFFFF8
3FFFFFFFFC
3FFFFFFFF8
1FFFFFFFF8
1FFFFFFFF0
0FFFFFFFF0
07FFFFFFE0
07FFFFFFC0
03FFFFFFC0
01FFFFFF80
00FFFFFF00
007FC3FE00
001E00F800
ENDCHAR
STARTCHAR F001
ENCODING 61441
SWIDTH 558 0
DWIDTH 31 0
BBX 27 40 3 0
BITMAP
00001F00
00FE3F80
07FE7FC0
1FFE7FC0
3FFE7FE0
7FFE7FE0
7FFE7FC0
FFFE7FC0
FFFE3F80
FF801F00
FF000000
FF000000
FFFE7FC0
FFFE7FC0
FFFE7FC0
FFFE7FC0
FFFE7FC0
FFFE7FC0
FFFE7FC0
FFFE7FC0
FFFE7FC0
FF007FC0
FF007FC0
FF007FC0
FF007FC0
FF007FC0
FF007FC0
FF007FC0
FF007FC0
FF007FC0
FF007FC0
FF007FC0
FF007FC0
FF007FC0
FF007FC0
FF007FC0
FF007FC0
FF007FC0
FF007FC0
FF007FC0
ENDCHAR
STARTCHAR F002
ENCODING 61442
SWIDTH 558 0
DWIDTH 31 0
BBX 26 39 3 0
BITMAP
00FE7FC0
07FE7FC0
1FFE7FC0
3FFE7FC0
7FFE7FC0
7FFE7FC0
FFFE7FC0
FFFE7FC0
FF807FC0
FF007FC0
FF007FC0
FFFE7FC0
FFFE7FC0
FFFE7FC0
FFFE7FC0
FFFE7FC0
FFFE7FC0
FFFE7FC0
FFFE7FC0
FFFE7FC0
FF007FC0
FF007FC0
FF007FC0
FF007FC0
FF007FC0
FF007FC0
FF007FC0
FF007FC0
FF007FC0
FF007FC0
FF007FC0
FF007FC0
FF007FC0
FF007FC0
FF007FC0
FF007FC0
FF007FC0
FF007FC0
FF007FC0
ENDCHAR
ENDFONT
